<svg xmlns="http://www.w3.org/2000/svg" width="319" height="132" viewBox="0 0 319 132"><rect width="319" height="132" rx="8.1" fill="#eee"/><path d="M21,53V18.8h6.4a42,42,0,0,1,7.2.4,11.1,11.1,0,0,1,4,1.2,8.1,8.1,0,0,1,3.1,3,8.9,8.9,0,0,1,1.1,4.3A6.9,6.9,0,0,1,41,32.6,9.7,9.7,0,0,1,35.6,35a10.8,10.8,0,0,1,6.3,2.7A7.4,7.4,0,0,1,44,43.2a8.8,8.8,0,0,1-4.6,7.9A13.4,13.4,0,0,1,35,52.6a75.3,75.3,0,0,1-8.5.4H21Zm7.3-20.6h1.6a9,9,0,0,0,4.7-.9A3.6,3.6,0,0,0,36,28.4a3.6,3.6,0,0,0-1.3-3.1,9,9,0,0,0-4.7-.9H28.3Zm0,14.9h2.8a6.2,6.2,0,0,0,4.2-1.2,4.3,4.3,0,0,0,1.5-3.5,4.1,4.1,0,0,0-1.5-3.4,6.7,6.7,0,0,0-4.1-1.1H28.3Z"/><path d="M74.3,53H65.9l-9-16V53H49.5V18.8H60c4.2,0,7.3.8,9.4,2.4s3.1,4,3.1,7.3a8.7,8.7,0,0,1-2.2,6,8.1,8.1,0,0,1-5.4,2.9ZM56.9,33.4H58c2.9,0,4.9-.4,5.8-1A3.8,3.8,0,0,0,65.3,29a4.1,4.1,0,0,0-1.6-3.6c-1-.7-2.9-1-5.7-1H56.9Z"/><path d="M74.5,53l13-34.2h8.4L109.1,53h-8.3L98,45.7H84.7L82.3,53ZM96.3,40,92.4,28.9c-.1-.3-.2-.9-.4-1.7s-.3-1.7-.5-2.9l-.6,3c-.2.9-.3,1.5-.4,1.8L86.8,40Z"/><path d="M139.4,27.7a15.4,15.4,0,0,0-4.6-2.9,13.5,13.5,0,0,0-5-1,11.8,11.8,0,0,0-8.7,3.3,12.2,12.2,0,0,0-3.2,8.8c0,3.6,1,6.5,3,8.6s4.7,3.1,8.2,3.1a14.2,14.2,0,0,0,5.5-1,15,15,0,0,0,4.8-2.9v7.5a17.4,17.4,0,0,1-4.9,2,19,19,0,0,1-5.4.7,18.5,18.5,0,0,1-13.4-5.1,17.3,17.3,0,0,1-5.3-12.9A17.3,17.3,0,0,1,115.6,23c3.5-3.4,8-5,13.6-5a23.2,23.2,0,0,1,5.3.5,24.7,24.7,0,0,1,5.2,1.8Z"/><path d="M146.2,53V18.8h7.3V34.3l11.4-15.5h8.5L161.1,34.4,173.8,53H165L153.5,35.1V53Z"/><path d="M177.2,53V18.8h20.2v6.1H184.5V32h12.9v6.2H184.5v8.6h12.9V53Z"/><path d="M217.3,25V53H210V25h-8.4V18.8h24.1V25Z"/><path d="M48.5,67.8A19,19,0,0,0,44,64.9a14.3,14.3,0,0,0-5-.9,11.8,11.8,0,0,0-8.8,3.3A12.2,12.2,0,0,0,27,76.1a11.8,11.8,0,0,0,3,8.5c2,2.2,4.8,3.2,8.2,3.2a14.2,14.2,0,0,0,5.5-1,13.7,13.7,0,0,0,4.8-3v7.5a17.7,17.7,0,0,1-4.9,2.1,19,19,0,0,1-5.4.7A18.5,18.5,0,0,1,24.7,89a17.2,17.2,0,0,1-5.2-12.9,17.2,17.2,0,0,1,5.2-12.9c3.5-3.4,8-5.1,13.6-5.1a24.8,24.8,0,0,1,5.4.6,25.9,25.9,0,0,1,5.1,1.8Z" fill="#0a6cff"/><path d="M90.4,76.1a18.2,18.2,0,0,1-1.4,7,17,17,0,0,1-3.9,5.7A18.7,18.7,0,0,1,79,92.7,17.6,17.6,0,0,1,66,93a19.6,19.6,0,0,1-5.5-3,18.5,18.5,0,0,1-5-6.2,18,18,0,0,1-.3-14.6,16.3,16.3,0,0,1,4-5.8,21.6,21.6,0,0,1,5.9-3.9,19.5,19.5,0,0,1,14,0,23.8,23.8,0,0,1,6,3.9A17.4,17.4,0,0,1,89,69.2,18.1,18.1,0,0,1,90.4,76.1ZM72.1,87.6a10,10,0,0,0,7.7-3.3,11.7,11.7,0,0,0,3-8.2,12,12,0,0,0-3-8.2,10.6,10.6,0,0,0-15.4,0,11.9,11.9,0,0,0-3.1,8.2,11.6,11.6,0,0,0,3.1,8.2A10,10,0,0,0,72.1,87.6Z" fill="#0a6cff"/><path d="M126,58.9V80.2c0,4.7-1.3,8.1-3.7,10.4s-6.1,3.5-11.1,3.5-8.7-1.2-11.1-3.5-3.7-5.7-3.7-10.4V58.9h7.3V79.1a10,10,0,0,0,1.8,6.4,7.2,7.2,0,0,0,5.6,2.1,7.4,7.4,0,0,0,5.7-2.1c1.3-1.5,1.9-3.6,1.9-6.4V58.9Z" fill="#0a6cff"/><path d="M133.5,93.2V58.9h7.6l15.2,20a13.6,13.6,0,0,1,1.4,2.3c.5,1.1,1.1,2.3,1.6,3.6-.1-1-.3-2-.3-3s-.1-2.2-.1-3.7V58.9h6.9V93.2h-7.1L143.1,72.9a22.1,22.1,0,0,1-1.4-2.4c-.5-1-1.1-2.2-1.7-3.7.2,1,.3,2,.4,3s.1,2.3.1,3.8V93.2Z" fill="#0a6cff"/><path d="M186.3,65.2v28h-7.4v-28h-8.4V58.9h24.1v6.3Z" fill="#0a6cff"/><path d="M199.4,93.2V58.9h20.2v6.2H206.7v7h12.9v6.3H206.7v8.5h12.9v6.3Z" fill="#0a6cff"/><path d="M251.5,93.2h-8.4l-9-16v16h-7.4V58.9h10.5c4.2,0,7.3.8,9.4,2.5a8.7,8.7,0,0,1,3.1,7.2,8.8,8.8,0,0,1-2.2,6.1,8.5,8.5,0,0,1-5.4,2.9ZM234.1,73.5h1.1c2.9,0,4.9-.3,5.8-.9a3.8,3.8,0,0,0,1.5-3.4,4.1,4.1,0,0,0-1.6-3.6c-1-.7-2.9-1.1-5.7-1.1h-1.1Z" fill="#0a6cff"/><path d="M253.6,88.8l4-4.6a6.2,6.2,0,0,0,2.5,3,7,7,0,0,0,3.8,1.1,6.5,6.5,0,0,0,4.1-1.2,4,4,0,0,0,1.5-3.3c0-1.6-1.7-3.2-5-4.8L262,77.7c-3-1.6-5.1-3.1-6.2-4.6a8.1,8.1,0,0,1-1.8-5.3,8.7,8.7,0,0,1,3.4-7,13.3,13.3,0,0,1,8.7-2.7,13,13,0,0,1,5.4,1.1,10.5,10.5,0,0,1,3.9,3.4l-4.3,4.1a6.1,6.1,0,0,0-2-2.2,6.2,6.2,0,0,0-3.1-.7,4.9,4.9,0,0,0-3.5,1.1,3.3,3.3,0,0,0-1.3,2.8c0,1.8,1.7,3.4,5.2,4.9l1.6.7a20.4,20.4,0,0,1,6.5,4.5,8.7,8.7,0,0,1,2.1,5.7,9.7,9.7,0,0,1-3.3,7.7,13,13,0,0,1-8.8,2.9,15.9,15.9,0,0,1-6.8-1.4A9.1,9.1,0,0,1,253.6,88.8Z" fill="#0a6cff"/></svg>