<svg xmlns="http://www.w3.org/2000/svg" width="319" height="132" viewBox="0 0 319 132"><rect width="319" height="132" fill="none"/><path d="M32.4,64.5V30.3h6.4a61.7,61.7,0,0,1,7.3.3,13.4,13.4,0,0,1,4,1.3,8.9,8.9,0,0,1,3.1,3,8.9,8.9,0,0,1,1.1,4.3A6.5,6.5,0,0,1,52.5,44a9.1,9.1,0,0,1-5.4,2.5,10.8,10.8,0,0,1,6.2,2.7,7.1,7.1,0,0,1,2.2,5.5,8.2,8.2,0,0,1-1.3,4.6,8.7,8.7,0,0,1-3.3,3.3A17.5,17.5,0,0,1,46.5,64a54.4,54.4,0,0,1-8.5.5H32.4Zm7.4-20.6h1.6a9,9,0,0,0,4.7-.9,3.6,3.6,0,0,0,1.4-3.1,3.4,3.4,0,0,0-1.4-3.1c-.8-.6-2.4-.9-4.6-.9H39.8Zm0,14.9h2.8a6.2,6.2,0,0,0,4.2-1.2,4.2,4.2,0,0,0,1.4-3.5,4,4,0,0,0-1.4-3.4,6.7,6.7,0,0,0-4.1-1.1H39.8Z"/><path d="M85.8,64.5H77.3l-9-16v16H61V30.3H71.5q6.3,0,9.3,2.4c2.1,1.6,3.2,4,3.2,7.3a9.2,9.2,0,0,1-2.2,6,8.1,8.1,0,0,1-5.5,2.9ZM68.3,44.8h1.1c3,0,5-.3,5.9-.9a3.8,3.8,0,0,0,1.4-3.4,4.1,4.1,0,0,0-1.5-3.6c-1-.7-2.9-1.1-5.8-1.1H68.3Z"/><path d="M86,64.5,99,30.3h8.4l13.2,34.2h-8.4l-2.7-7.3H96.2l-2.4,7.3Zm21.8-13-3.9-11.1c-.1-.3-.2-.9-.4-1.7a17.2,17.2,0,0,1-.5-2.9l-.6,3c-.2.9-.3,1.4-.4,1.7l-3.7,11Z"/><path d="M150.9,39.2a13.6,13.6,0,0,0-4.6-2.9,13.1,13.1,0,0,0-13.7,2.3c-2.2,2.2-3.2,5.1-3.2,8.8a12.2,12.2,0,0,0,3,8.6c2,2.1,4.7,3.1,8.2,3.1a14.2,14.2,0,0,0,5.5-1,13.6,13.6,0,0,0,4.7-2.9v7.5a18.7,18.7,0,0,1-4.9,2,19,19,0,0,1-5.4.7,18.5,18.5,0,0,1-13.4-5.1,17.3,17.3,0,0,1-5.3-12.9,17.3,17.3,0,0,1,5.3-12.9q5.3-5.1,13.5-5.1a23.5,23.5,0,0,1,5.4.6,22.1,22.1,0,0,1,5.1,1.8Z"/><path d="M157.7,64.5V30.3H165V45.8l11.4-15.5h8.5L172.6,45.8l12.7,18.7h-8.8L165,46.6V64.5Z"/><path d="M188.7,64.5V30.3h20.2v6.1H196v7.1h12.9v6.2H196v8.6h12.9v6.2Z"/><path d="M228.8,36.5v28h-7.3v-28h-8.4V30.3h24.1v6.2Z"/><path d="M60,76.3a15.4,15.4,0,0,0-4.6-2.9,13.5,13.5,0,0,0-5-.9,11.8,11.8,0,0,0-8.7,3.3c-2.2,2.2-3.2,5.1-3.2,8.8a11.8,11.8,0,0,0,3,8.5,10.8,10.8,0,0,0,8.2,3.2,14.2,14.2,0,0,0,5.5-1,15.7,15.7,0,0,0,4.7-3v7.5a23.3,23.3,0,0,1-4.9,2.1,23.5,23.5,0,0,1-5.4.7,18.5,18.5,0,0,1-13.4-5.1,17.3,17.3,0,0,1-5.3-12.9,17.3,17.3,0,0,1,5.3-12.9c3.5-3.4,8-5.1,13.6-5.1a23.3,23.3,0,0,1,5.3.6A24.7,24.7,0,0,1,60.3,69Z" fill="#0a6cff"/><path d="M101.8,84.6a18.2,18.2,0,0,1-1.3,7,18.6,18.6,0,0,1-10,9.6,17.6,17.6,0,0,1-13,.3A16.6,16.6,0,0,1,72,98.4a17.3,17.3,0,0,1-5-6.1,18.1,18.1,0,0,1-1.7-7.7,18,18,0,0,1,5.3-12.7,19.1,19.1,0,0,1,20-3.9,19.6,19.6,0,0,1,5.9,3.9,16.3,16.3,0,0,1,4,5.8A18,18,0,0,1,101.8,84.6ZM83.6,96a9.9,9.9,0,0,0,7.7-3.2,11.7,11.7,0,0,0,3-8.2,11.8,11.8,0,0,0-3-8.2,10.1,10.1,0,0,0-7.7-3.3,10,10,0,0,0-7.7,3.3,11.5,11.5,0,0,0-3.1,8.2,11.7,11.7,0,0,0,3,8.2A10.1,10.1,0,0,0,83.6,96Z" fill="#0a6cff"/><path d="M137.4,67.4V88.7c0,4.7-1.2,8.1-3.6,10.4s-6.2,3.5-11.1,3.5-8.7-1.2-11.2-3.5-3.6-5.7-3.6-10.4V67.4h7.2V87.6a9.5,9.5,0,0,0,1.9,6.3,6.9,6.9,0,0,0,5.6,2.2,7.1,7.1,0,0,0,5.7-2.2,9.5,9.5,0,0,0,1.9-6.3V67.4Z" fill="#0a6cff"/><path d="M145,101.7V67.4h7.6l15.2,19.9a22.1,22.1,0,0,1,1.4,2.4,31.7,31.7,0,0,1,1.6,3.6c-.1-1-.3-2-.3-3a35.7,35.7,0,0,1-.2-3.7V67.4h7v34.3h-7.2L154.6,81.4a12.7,12.7,0,0,1-1.4-2.4,33,33,0,0,1-1.7-3.7c.2,1,.3,2,.4,3s.1,2.3.1,3.8v19.6Z" fill="#0a6cff"/><path d="M197.7,73.6v28.1h-7.3V73.6H182V67.4h24.1v6.2Z" fill="#0a6cff"/><path d="M210.9,101.7V67.4H231v6.2H218.2v7H231v6.3H218.2v8.5H231v6.3Z" fill="#0a6cff"/><path d="M263,101.7h-8.5l-9-16v16h-7.3V67.4h10.5q6.3,0,9.3,2.4a8.8,8.8,0,0,1,3.2,7.3,9.3,9.3,0,0,1-2.2,6.1,8.5,8.5,0,0,1-5.5,2.9ZM245.5,82h1.1c3,0,5-.3,5.9-1s1.4-1.7,1.4-3.3a4.1,4.1,0,0,0-1.5-3.6c-1-.7-2.9-1.1-5.8-1.1h-1.1Z" fill="#0a6cff"/><path d="M265,97.3l4.1-4.6a5.7,5.7,0,0,0,2.5,3,7,7,0,0,0,3.8,1.1,5.9,5.9,0,0,0,4.1-1.3,3.9,3.9,0,0,0,1.5-3.2c0-1.6-1.7-3.3-5-4.9l-2.5-1.2a20.4,20.4,0,0,1-6.3-4.6,8.8,8.8,0,0,1-1.7-5.3,8.5,8.5,0,0,1,3.4-7,13.3,13.3,0,0,1,8.7-2.7,12.5,12.5,0,0,1,5.3,1.1,10.7,10.7,0,0,1,4,3.4l-4.3,4.1a5,5,0,0,0-2.1-2.2,5.6,5.6,0,0,0-3-.7,4.9,4.9,0,0,0-3.5,1.1,3.4,3.4,0,0,0-1.4,2.8c0,1.8,1.8,3.4,5.3,4.9l1.6.7a18.9,18.9,0,0,1,6.5,4.5,8.7,8.7,0,0,1,2.1,5.7,9.7,9.7,0,0,1-3.3,7.7,13.1,13.1,0,0,1-8.8,2.9,15.5,15.5,0,0,1-6.8-1.4A9.9,9.9,0,0,1,265,97.3Z" fill="#0a6cff"/></svg>