<svg xmlns="http://www.w3.org/2000/svg" width="218" height="132" viewBox="0 0 218 132"><rect width="218" height="132" fill="none"/><path d="M15.1,66V41.6h4.6a31.9,31.9,0,0,1,5.2.3,10.2,10.2,0,0,1,2.8.9,6.3,6.3,0,0,1,2.2,2.1,6.1,6.1,0,0,1,.8,3,5,5,0,0,1-1.3,3.5,6.8,6.8,0,0,1-3.8,1.8A7.2,7.2,0,0,1,30,55.1,5.1,5.1,0,0,1,31.5,59a7.3,7.3,0,0,1-.8,3.3,6.6,6.6,0,0,1-2.4,2.3,10,10,0,0,1-3.2,1,37.9,37.9,0,0,1-6,.4h-4Zm5.2-14.7h1.2a6.4,6.4,0,0,0,3.3-.6,2.5,2.5,0,0,0,1-2.3,2.3,2.3,0,0,0-.9-2.1,5.4,5.4,0,0,0-3.3-.7H20.3Zm0,10.6h2.1a4.5,4.5,0,0,0,3-.9,3.2,3.2,0,0,0,1-2.5,2.9,2.9,0,0,0-1-2.3,4.3,4.3,0,0,0-2.9-.8H20.3Z"/><path d="M53.1,66h-6L40.7,54.6V66H35.5V41.6h7.4c3,0,5.2.6,6.7,1.7a6.5,6.5,0,0,1,2.2,5.2,6.4,6.4,0,0,1-1.5,4.3,5.8,5.8,0,0,1-3.9,2.1ZM40.7,52h.8c2.1,0,3.5-.2,4.1-.7a2.7,2.7,0,0,0,1-2.4,3,3,0,0,0-1-2.6,8.1,8.1,0,0,0-4.1-.7h-.8Z"/><path d="M53.2,66l9.3-24.4h5.9L77.8,66H71.9l-2-5.2H60.5L58.8,66Zm15.5-9.3L66,48.8a5,5,0,0,1-.3-1.2c-.1-.5-.3-1.2-.4-2s-.3,1.4-.4,2.1a4.9,4.9,0,0,0-.3,1.2L62,56.7Z"/><path d="M99.4,47.9a11.7,11.7,0,0,0-3.3-2,8.2,8.2,0,0,0-12,7.9,8.5,8.5,0,0,0,2.1,6.1,7.7,7.7,0,0,0,5.9,2.2,10,10,0,0,0,3.9-.7,8.4,8.4,0,0,0,3.3-2.1v5.4a15.1,15.1,0,0,1-3.5,1.4,15.8,15.8,0,0,1-3.8.5A13.3,13.3,0,0,1,82.4,63a12.6,12.6,0,0,1-3.7-9.2,12.3,12.3,0,0,1,3.8-9.2A13.1,13.1,0,0,1,92.1,41a23.3,23.3,0,0,1,3.8.4,27.2,27.2,0,0,1,3.7,1.3Z"/><path d="M104.2,66V41.6h5.2v11l8.1-11h6l-8.7,11.1L123.9,66h-6.3l-8.2-12.8V66Z"/><path d="M126.3,66V41.6h14.3V46h-9.1v5h9.1v4.4h-9.1v6.1h9.1V66Z"/><path d="M154.8,46V66h-5.2V46h-6V41.6h17.2V46Z"/><path d="M34.7,74.4a8.9,8.9,0,0,0-3.2-2.1,10.5,10.5,0,0,0-3.6-.6A8.2,8.2,0,0,0,21.7,74a8.5,8.5,0,0,0-2.3,6.2,8.2,8.2,0,0,0,2.2,6.1,7.7,7.7,0,0,0,5.8,2.3,12.3,12.3,0,0,0,3.9-.7,9.5,9.5,0,0,0,3.4-2.2v5.4a15.1,15.1,0,0,1-3.5,1.4,12,12,0,0,1-3.8.5,13.3,13.3,0,0,1-9.6-3.6,12.2,12.2,0,0,1-3.7-9.2,12,12,0,0,1,3.7-9.1,13.4,13.4,0,0,1,9.7-3.6,15.8,15.8,0,0,1,3.8.4,17.4,17.4,0,0,1,3.6,1.3Z" fill="#0a6cff"/><path d="M64.5,80.3a11.9,11.9,0,0,1-1,4.9,11.5,11.5,0,0,1-2.8,4.1,14.7,14.7,0,0,1-4.2,2.8,14.3,14.3,0,0,1-5,.9,12.5,12.5,0,0,1-4.3-.7,12.4,12.4,0,0,1-3.9-2.2,11.7,11.7,0,0,1-3.6-4.4,12.5,12.5,0,0,1-1.2-5.4,12.1,12.1,0,0,1,1-5,12.3,12.3,0,0,1,7.1-6.8,11.9,11.9,0,0,1,4.9-1,12.4,12.4,0,0,1,5,1,13.2,13.2,0,0,1,4.2,2.7,11.1,11.1,0,0,1,2.8,4.1A12.1,12.1,0,0,1,64.5,80.3Zm-13,8.1A7.3,7.3,0,0,0,57,86.1a8.4,8.4,0,0,0,2.1-5.8A8.7,8.7,0,0,0,57,74.4a7.7,7.7,0,0,0-11,0,8.5,8.5,0,0,0-2.1,5.9A8.3,8.3,0,0,0,46,86.1,7.3,7.3,0,0,0,51.5,88.4Z" fill="#0a6cff"/><path d="M89.8,68V83.2c0,3.3-.9,5.8-2.6,7.4S82.8,93,79.3,93s-6.2-.8-7.9-2.4-2.6-4.1-2.6-7.4V68H74V82.4a6.5,6.5,0,0,0,1.3,4.5,5.1,5.1,0,0,0,4,1.5,5.2,5.2,0,0,0,4-1.5,6.5,6.5,0,0,0,1.3-4.5V68Z" fill="#0a6cff"/><path d="M95.2,92.4V68h5.4l10.8,14.2a19.4,19.4,0,0,1,1,1.7,21.7,21.7,0,0,1,1.2,2.6,8.9,8.9,0,0,1-.3-2.2,20.1,20.1,0,0,1-.1-2.6V68h5V92.4h-5.1L102,78a19.4,19.4,0,0,1-1-1.7c-.4-.8-.8-1.6-1.2-2.6l.3,2.1c0,.7.1,1.6.1,2.7V92.4Z" fill="#0a6cff"/><path d="M132.7,72.5V92.4h-5.2V72.5h-6V68h17.1v4.5Z" fill="#0a6cff"/><path d="M142,92.4V68h14.4v4.4h-9.1v5h9.1v4.5h-9.1V88h9.1v4.4Z" fill="#0a6cff"/><path d="M179.1,92.4h-6L166.7,81V92.4h-5.2V68h7.4c3,0,5.2.6,6.7,1.8a5.9,5.9,0,0,1,2.2,5.1,6.4,6.4,0,0,1-1.5,4.3,5.8,5.8,0,0,1-3.9,2.1Zm-12.4-14h.8c2.1,0,3.5-.2,4.1-.7a2.5,2.5,0,0,0,1.1-2.4,2.8,2.8,0,0,0-1.1-2.5,7.9,7.9,0,0,0-4.1-.8h-.8Z" fill="#0a6cff"/><path d="M180.5,89.3l2.9-3.3a4.6,4.6,0,0,0,1.8,2.1,4.3,4.3,0,0,0,2.7.8,4.4,4.4,0,0,0,2.9-.9,2.7,2.7,0,0,0,1.1-2.3c0-1.1-1.2-2.3-3.6-3.4l-1.8-.9a12.8,12.8,0,0,1-4.4-3.3,6.4,6.4,0,0,1,1.2-8.7,9.4,9.4,0,0,1,6.2-1.9,9.2,9.2,0,0,1,3.8.7,9.4,9.4,0,0,1,2.8,2.5L193,73.6a3.6,3.6,0,0,0-1.4-1.6,5.1,5.1,0,0,0-2.2-.5,3.4,3.4,0,0,0-2.5.8,2.4,2.4,0,0,0-.9,2c0,1.2,1.2,2.4,3.7,3.5l1.2.5a12.4,12.4,0,0,1,4.5,3.2,6,6,0,0,1,1.5,4,7.2,7.2,0,0,1-2.3,5.5,9.2,9.2,0,0,1-6.3,2,12.1,12.1,0,0,1-4.8-.9A7.4,7.4,0,0,1,180.5,89.3Z" fill="#0a6cff"/></svg>