<svg xmlns="http://www.w3.org/2000/svg" width="1366" height="768" viewBox="0 0 1366 768"><rect width="1366" height="768" fill="#5ec9ea"/><path d="M1194.2,269h-312a28.8,28.8,0,0,0-28.8,28.8V470.2A28.8,28.8,0,0,0,882.2,499h312a28.8,28.8,0,0,0,28.8-28.8V297.8A28.8,28.8,0,0,0,1194.2,269Zm0,12h.8L1038.2,402,881.4,281h312.8ZM865.4,297.8a16.3,16.3,0,0,1,4-10.8l127.1,97.9L866.2,475.2a15.9,15.9,0,0,1-.8-5ZM882.2,487a17.4,17.4,0,0,1-8.5-2.3l132.7-92.1,31.8,24.6,31.3-24.2,130.3,93a16.9,16.9,0,0,1-5.6,1ZM1211,470.2a16.6,16.6,0,0,1-1.9,7.7l-129.6-92.6L1207,287a16.3,16.3,0,0,1,4,10.8Z" fill="#fff"/></svg>