<svg xmlns="http://www.w3.org/2000/svg" viewBox="0 0 1162 768"><rect width="1162" height="768" fill="none"/><path d="M595.2,30.9" fill="none" stroke="#000" stroke-miterlimit="10" stroke-width="3.4"/><path d="M1007.3,202.5a7988.4,7988.4,0,0,0-911,158.7l25.3,252.3A7785.8,7785.8,0,0,1,1011,458.6Z" fill="none"/><path d="M123.7,499.3c.9,1.7,1.7,1.7,2.5.2C125.4,499.7,124.4,497.4,123.7,499.3Z" fill="#0a6cff" fill-rule="evenodd"/><path d="M125.5,493.8c.7-.7,1.8,2,2.5.2C127.1,493.5,126.1,491.1,125.5,493.8Z" fill="#0a6cff" fill-rule="evenodd"/><path d="M132.7,502.3c1,1.1.9-.6,2.1-1.3-.6-1.3-1-.9-1.5-1.4S133.2,501.4,132.7,502.3Z" fill="#0a6cff" fill-rule="evenodd"/><path d="M160.9,543.8l1.2,2c.4-2,1-.8,1.5-2.4C162.5,541.6,161.6,541.7,160.9,543.8Z" fill="#0a6cff" fill-rule="evenodd"/><path d="M130.1,493.7c-.3,1.6,1.7,3,2.1,1.3s-.7-.5-1.6-2.4C130.6,493.4,130.6,494.2,130.1,493.7Z" fill="#0a6cff" fill-rule="evenodd"/><path d="M164.7,544.3c1.1-.1,1.2,1.7,1.9,3a8.6,8.6,0,0,0-.9-5.2Z" fill="#0a6cff" fill-rule="evenodd"/><path d="M147.4,505c-.2,2,1.8,2.4,2.2-.2S148.3,506.9,147.4,505Z" fill="#0a6cff" fill-rule="evenodd"/><path d="M175.3,547.2c.4.1,1.1-.9.9.4s.9-1.8,1.4-2.3a5.4,5.4,0,0,0,2.7,3.3c-.3-4.2,1.6-4.1,2.9-5.6-.8,0-1.6.7-2.5-1.3.2,2.9-.4,1.8-1.4,3.4a6.8,6.8,0,0,0-.7-2c-.7,1.3-1.4,1.4-2.2.2A8.2,8.2,0,0,0,175.3,547.2Z" fill="#0a6cff" fill-rule="evenodd"/><path d="M151.1,506.1l1.2,2c0-.8.2-2.3.7-1.7C153.3,504.8,151.4,503.8,151.1,506.1Z" fill="#0a6cff" fill-rule="evenodd"/><path d="M153.3,491.1c.9.5,1.7-.2,2.4-1.9C154.8,488.9,153.2,488.4,153.3,491.1Z" fill="#0a6cff" fill-rule="evenodd"/><path d="M198.8,555.7c.9,1.5,2.3.9,2.1-1.3C200.2,554.7,199.5,554.4,198.8,555.7Z" fill="#0a6cff" fill-rule="evenodd"/><path d="M161.6,491c.9.2,2,2.7,2.7-.4C163.3,490.1,162.4,489.5,161.6,491Z" fill="#0a6cff" fill-rule="evenodd"/><path d="M192.4,521.3c1.2.7.9-1.6,2.3-3a1.6,1.6,0,0,1-1.2-.9C193.4,520.9,191.8,518.3,192.4,521.3Z" fill="#0a6cff" fill-rule="evenodd"/><path d="M170.3,482.5c.2-1.8-1.7-1.5-2.5-3.9C167.2,481,169.4,481.6,170.3,482.5Z" fill="#0a6cff" fill-rule="evenodd"/><path d="M180.1,484.9c.9-.3,1.8.5,2.6-1.4-1.1-.7-2.2-.4-3.4-1.7C178.5,483,180.9,483.7,180.1,484.9Z" fill="#0a6cff" fill-rule="evenodd"/><path d="M214.9,539.5c-.1,3.2,1.7.3,2.3.7C217.3,537.6,215.5,539.8,214.9,539.5Z" fill="#0a6cff" fill-rule="evenodd"/><path d="M216.1,528.2c-.8-1.9-1.2,1.4-2-1.3a6,6,0,0,0,.3,4.2C215,528.4,216.3,530.8,216.1,528.2Z" fill="#0a6cff" fill-rule="evenodd"/><path d="M233.7,556.6c1.1,1.1,2.2,1.9,3.1.1C235.7,556.5,234.7,555.7,233.7,556.6Z" fill="#0a6cff" fill-rule="evenodd"/><path d="M171.2,456c.7,1.8,1.2.5,1.8,1.9.9-1.5.1-2.8-.8-4.1Z" fill="#0a6cff" fill-rule="evenodd"/><path d="M179.5,468.1c.9,2.1,1.6,1.4,2.3,1.8C182,468.3,179.9,465.6,179.5,468.1Z" fill="#0a6cff" fill-rule="evenodd"/><path d="M177.1,456.8c.2.5.4.3.5,0,2.4,2.3,4.4-.6,6.7,1.2,1.1-1.9.2-3.5.8-5.4-1.4-1.3-.9,2-1.9,1.9s-.5-2.6-1.5-2.5c.2,2.9-1.4,2.3-2.2,4-.8-1.9-1.4-1.2-2.1-2.4C176.3,454.8,178.2,455.6,177.1,456.8Z" fill="#0a6cff" fill-rule="evenodd"/><path d="M229.4,530.8c-.6-.6.9-2.1,1.2-1.8.4-2.8-1,.6-1.4-1.4-1,1.4-.3,2.5-.6,3.8a6.1,6.1,0,0,0,2.3,1.8C231.5,531.5,230.1,530.6,229.4,530.8Z" fill="#0a6cff" fill-rule="evenodd"/><path d="M154.7,412.3c1,1.1,2.1,3.4,2.8.7C156.6,412.6,155.5,411,154.7,412.3Z" fill="#0a6cff" fill-rule="evenodd"/><path d="M154.2,408.7c-.3,1.9,1.5,1.7,1.9.3S154.9,409.4,154.2,408.7Z" fill="#0a6cff" fill-rule="evenodd"/><path d="M158.3,412.4c.6-1.4.2-2.5.6-3.8s-.9.2-1.4-.3A6.6,6.6,0,0,0,158.3,412.4Z" fill="#0a6cff" fill-rule="evenodd"/><path d="M232.6,529.3c.1,3.3,2.2.8,3.1,2.3C236.2,528,233.5,528.9,232.6,529.3Z" fill="#0a6cff" fill-rule="evenodd"/><path d="M145.8,379.8c.9.5,2-1.2,3.3-4.1C148,376.9,146.8,376.8,145.8,379.8Z" fill="#0a6cff" fill-rule="evenodd"/><path d="M243.1,531.2c-.2-1.7-1.7-3.7-2.3-1.8S242.4,533.7,243.1,531.2Z" fill="#0a6cff" fill-rule="evenodd"/><path d="M176.1,425.3c1,2,4-.1,2.2-2.9C177.7,425.4,176.8,424.1,176.1,425.3Z" fill="#0a6cff" fill-rule="evenodd"/><path d="M197.4,456.3c.4,2.8,2.9,2.5,3.8-.5-.6-.6-.4-1.3-.1-2.1C199.7,451.4,198.8,457.7,197.4,456.3Z" fill="#0a6cff" fill-rule="evenodd"/><path d="M161.8,394.5c1.3,2.4,2.3,2.2,3.3.6C164.1,395.9,162.7,392.4,161.8,394.5Z" fill="#0a6cff" fill-rule="evenodd"/><path d="M248.3,532.2c.4.1.8.2.6,1,1.6-2.6,3.5.5,5-2.2C251.4,531.6,249.8,525.7,248.3,532.2Z" fill="#0a6cff" fill-rule="evenodd"/><path d="M188.2,425.9c.8,2.2,1.3-1,1.8-1.8a1.7,1.7,0,0,1-1.1-.9A6,6,0,0,1,188.2,425.9Z" fill="#0a6cff" fill-rule="evenodd"/><path d="M254.5,530.9c-.5,2,.9.5,1.2,2-.7-3.2.9-.4,1.7-2.9-.8-2.7-1.1,2.4-1.9-.3C255.2,530.6,254.9,531.4,254.5,530.9Z" fill="#0a6cff" fill-rule="evenodd"/><path d="M257.8,531.6c1.8.6,2.4,4.6,3.7,2.2-1.8-1.6.2-3.6-1.4-5.1C260.3,532.3,258.5,529.5,257.8,531.6Z" fill="#0a6cff" fill-rule="evenodd"/><path d="M187.6,403.3c1.3.4,3-1.4,1.6-3.9C188.3,401.2,187.9,400.8,187.6,403.3Z" fill="#0a6cff" fill-rule="evenodd"/><path d="M267,530.5c1.2,2.2,2.2.1,3.3.6s.1,2.5-.6,3.8c2,1.1,1.6-4.1,4.2-3.7-.7-2.2-.7-1.1-1.8-2.9-1.1,2.1.4.5.9,2.5C271.1,531.2,268.9,528.2,267,530.5Z" fill="#0a6cff" fill-rule="evenodd"/><path d="M234.9,461.6c1.3,1.4,2.5-1.1,2.8-3C236.5,458.5,235.1,458.7,234.9,461.6Z" fill="#0a6cff" fill-rule="evenodd"/><path d="M214.8,426.7c1,0,.3.7,1.2,1.9.4-1.3,0-2.4,0-3.7S215.2,425.9,214.8,426.7Z" fill="#0a6cff" fill-rule="evenodd"/><path d="M240.3,429.9c1.2.3,2.4.5,3.5-2C242.7,429,240.4,427.1,240.3,429.9Z" fill="#0a6cff" fill-rule="evenodd"/><path d="M219.2,370.8c.8,1.3,1.4.6,2.1,1.3.8-1.1-1.7-1.9-.8-3S219.7,370,219.2,370.8Z" fill="#0a6cff" fill-rule="evenodd"/><path d="M203.1,344.4c1.2,1.1,2.2-.2,3.2-2.6C205.3,342.5,203.2,342.1,203.1,344.4Z" fill="#0a6cff" fill-rule="evenodd"/><path d="M269.7,442.1l1.2,2c0-.8.1-1.6.5-1.1C271.8,441.3,270,440.2,269.7,442.1Z" fill="#0a6cff" fill-rule="evenodd"/><path d="M225.1,358.5c1.3,1.6,2.4-.6,3.8,2.2.4-1.3-.4-2.4-.5-3.7s2,.7,1.8-1.8c-.7-.7-1.2,1.8-2-.2C228,358.7,226.2,355.9,225.1,358.5Z" fill="#0a6cff" fill-rule="evenodd"/><path d="M274.2,429.5c.4-.1.9,1,1.3.3s-.2-3.7-1-3.6S275.3,428.3,274.2,429.5Z" fill="#0a6cff" fill-rule="evenodd"/><path d="M241,354.4c.2,2.7,3.9,2.9,3.8-.4C243.6,354.5,242.4,356.2,241,354.4Z" fill="#0a6cff" fill-rule="evenodd"/><path d="M237.4,336.5c1,1.4,1.9.8,2.7-1.4C239.2,335.6,238.2,334.8,237.4,336.5Z" fill="#0a6cff" fill-rule="evenodd"/><path d="M255.2,361.1c1,.3,2,1.6,2.8-.3C257,360.2,256,359.7,255.2,361.1Z" fill="#0a6cff" fill-rule="evenodd"/><path d="M265.4,364.1c.7.9,1.2-.5,1.9.3.2-.9-.5-1.7-1-2.5Z" fill="#0a6cff" fill-rule="evenodd"/><path d="M269.4,362.1c.8,1.7,1.5-.2,2.2.7C271.9,361.6,269.8,359.4,269.4,362.1Z" fill="#0a6cff" fill-rule="evenodd"/><path d="M313.5,429.7a.9.9,0,0,0-.1-1c.4-.6.8.4,1.2.9s.1-3.7,1.2-2.8c.8-2-1.5-.4-.7-2C314.3,425.2,311.9,427.5,313.5,429.7Z" fill="#0a6cff" fill-rule="evenodd"/><path d="M316.3,425.7c.4,1.1.7.5,1.1-.1s.9,1.3.6,2,.9-1,1.3-1.7l-1.5-2.5C317.4,425.4,316.7,424.2,316.3,425.7Z" fill="#0a6cff" fill-rule="evenodd"/><path d="M323.1,434.9c.8.6,1.4-.1,2.1-1.2S323.7,433.3,323.1,434.9Z" fill="#0a6cff" fill-rule="evenodd"/><path d="M284.9,367.1c1.2.5.9-3.2.3-4.2S285,365.6,284.9,367.1Z" fill="#0a6cff" fill-rule="evenodd"/><path d="M282.3,361.1c1.5.7,3.7,2,4.1-2.1C285.1,360.3,283.5,357.2,282.3,361.1Z" fill="#0a6cff" fill-rule="evenodd"/><path d="M286.8,366.4c.9-.6,1.8.2,2.7-1.4-1-.4-1.8.2-2.8-.7C286.5,365,287.1,365.6,286.8,366.4Z" fill="#0a6cff" fill-rule="evenodd"/><path d="M292,374.7c2.3-1.3,3,.4,1.1-4.8C292,371.6,292.2,373.1,292,374.7Z" fill="#0a6cff" fill-rule="evenodd"/><path d="M331.2,433q1.5,2.1,2.7-.3C333,432.4,332,431,331.2,433Z" fill="#0a6cff" fill-rule="evenodd"/><path d="M344.8,436.3c2.4-3.3,4.8-1.1,6.1-5.4a9.6,9.6,0,0,0-5.9,2.7c-.3-.7.2-1.4.4-2.2C343.5,429.8,343.6,434,344.8,436.3Z" fill="#0a6cff" fill-rule="evenodd"/><path d="M308.1,367.6c1.6,1.3.3-4.1,1.3-2.7C309.3,361.4,307.6,366.5,308.1,367.6Z" fill="#0a6cff" fill-rule="evenodd"/><path d="M309.4,365.9c.9.6,1.7.4,2.4-1.9C311,363.5,310.2,364.2,309.4,365.9Z" fill="#0a6cff" fill-rule="evenodd"/><path d="M357.2,430.7l1.2,2c.4-.9.1-1.8.6-2.7S357.7,429.3,357.2,430.7Z" fill="#0a6cff" fill-rule="evenodd"/><path d="M328.5,376.9c.4-1.3-.4-2.4.7-3.8C327.8,372.7,326.5,376.8,328.5,376.9Z" fill="#0a6cff" fill-rule="evenodd"/><path d="M364,325.7c1.6,2.9,2.4-.8,2.4-2.9C365.6,322.9,364.8,324.4,364,325.7Z" fill="#0a6cff" fill-rule="evenodd"/><path d="M391.9,324.3c1.3,1.9.9-2.7,2.5-.7s-1,1.5-1.3,2.7,2-.5,2.4-2.8c-.8-.1-1.1-.7-1.2-2s2.4,1.1,3.5-2c-.7.1-1.3.7-2-1.3-1.4,2.8-2.9,1.8-3.9.3C392,320.5,393.4,322.3,391.9,324.3Z" fill="#0a6cff" fill-rule="evenodd"/><path d="M402.3,322.3l1.2,1.9c1-2,1.1-1,1.5-3.3s-2.4,3-1.7-.9C402.6,318.9,402.4,321.8,402.3,322.3Z" fill="#0a6cff" fill-rule="evenodd"/><path d="M406.6,324.5c-.1-1.4.8-2.9,1.4-4.4l-.8-1.5q-.4,1-.9.6c.1,2,.4,1.4-.7,2.7C406.2,322.8,406,323.7,406.6,324.5Z" fill="#0a6cff" fill-rule="evenodd"/><path d="M411.1,326.1c.8-2.1,1.8-.5,2.6-2.3-1.2-1.1-2.3,1.4-3.6-1.3C409.7,324.9,410.6,323.8,411.1,326.1Z" fill="#0a6cff" fill-rule="evenodd"/><path d="M415.3,320.4c-.8,1.3-1,2.6-.2,3.7a1.5,1.5,0,0,0,1.1-1.1A6.7,6.7,0,0,0,415.3,320.4Z" fill="#0a6cff" fill-rule="evenodd"/><path d="M416.1,321.9c.6.9.4,1.8,1,2.6.5-.9.1-2.3.7-1.7.3-.9-.5-1.7-.9-2.5Z" fill="#0a6cff" fill-rule="evenodd"/><path d="M417.6,317.6c-.1,1.1,2.2,4.1,2.9,1.8C419.5,318.5,418.5,316.9,417.6,317.6Z" fill="#0a6cff" fill-rule="evenodd"/><path d="M433.8,321.2c.6-2,1.2-1.5,1.8-2.8s-1.2.6-2-1.4C433.1,318.5,432.6,319.9,433.8,321.2Z" fill="#0a6cff" fill-rule="evenodd"/><path d="M442.3,318.8c.8,1.2,1.5,1.2,2.2-.2l-1.2-2Z" fill="#0a6cff" fill-rule="evenodd"/><path d="M447.5,318.9a18.6,18.6,0,0,0,3.4.7c.8-1.3-1.9-2.3-1-3.6-.7-.5-.5.9-.8,1.7S448,316.6,447.5,318.9Z" fill="#0a6cff" fill-rule="evenodd"/><path d="M450.9,312.8c.6.8,1.2-1.6,1.9-.7-.3-2-1-2.2-2.1-2.5S451.5,311.6,450.9,312.8Z" fill="#0a6cff" fill-rule="evenodd"/><path d="M457.5,320.1c1.5-3.2,3.3-.4,5-.5.9-3.4-2.2-3.4-3-6-.2,3,.3,3.2-1.5,4.3-1.3-2.1-1.2-3.8-2.6-3.5C455.3,317.5,455.9,318,457.5,320.1Z" fill="#0a6cff" fill-rule="evenodd"/><path d="M457.5,313.2c1.2.6,2.4-.8,3.6.2C460.9,311.9,458.4,310,457.5,313.2Z" fill="#0a6cff" fill-rule="evenodd"/><path d="M463.2,310c.5,1,.9.4,1.4,1.5.7-1.6-.8-3.1.1-4.8s-1.1.3-1.6,1.2C464.3,309.5,464.3,308.3,463.2,310Z" fill="#0a6cff" fill-rule="evenodd"/><path d="M471.2,308.8c.5,1.3.9.9,1.4,1.4-.3-1.2.4-2.5-.4-3.6C472.2,308.5,471.8,307.2,471.2,308.8Z" fill="#0a6cff" fill-rule="evenodd"/><path d="M566.7,311.1c1.4,1.6,2.7.2,4.1-1.8-1.3-.8-2.5-2.2-3.7-2.4A29.8,29.8,0,0,0,566.7,311.1Z" fill="#0a6cff" fill-rule="evenodd"/><path d="M593.1,299.1c.7,2.1,1.2-.4,1.9.4C595.4,297.9,593.5,296.8,593.1,299.1Z" fill="#0a6cff" fill-rule="evenodd"/><path d="M621.2,299.1c0,2.1,2.4,1.9,3.2-.2C623.3,298.2,622.2,299.1,621.2,299.1Z" fill="#0a6cff" fill-rule="evenodd"/><path d="M634.6,298.7c1.3-1.6,3.7-1.8,4.1-4A4.3,4.3,0,0,0,634.6,298.7Z" fill="#0a6cff" fill-rule="evenodd"/><path d="M661.4,291.6c1.1,1.1,2.1-.2,3.1.3C664.5,290.2,662.2,289.1,661.4,291.6Z" fill="#0a6cff" fill-rule="evenodd"/><path d="M690.1,296.1c.1-1.3.7-2.5.8-3.8s-1.1.2-1.6,1.2S689.5,295.2,690.1,296.1Z" fill="#0a6cff" fill-rule="evenodd"/><path d="M788.5,463.4c2.2,1.2,4.3-3.7,6.4-2.4C793.8,457.1,790.5,461.5,788.5,463.4Z" fill="#0a6cff" fill-rule="evenodd"/><path d="M795.2,459.4c.9,1.5,1.8,1,2.7-1.2C797,457.9,796.1,458.2,795.2,459.4Z" fill="#0a6cff" fill-rule="evenodd"/><path d="M741.3,280.9a3.4,3.4,0,0,0-.3-2.6c1.8-.1,2.3.1,4.4-1.3a4.4,4.4,0,0,0-5.5.3C740.9,278.5,740.6,279.7,741.3,280.9Z" fill="#0a6cff" fill-rule="evenodd"/><path d="M750.2,287.8c-.1-1.6,1.2-3.2.2-4.8C749.3,283.1,749.3,286.2,750.2,287.8Z" fill="#0a6cff" fill-rule="evenodd"/><path d="M747.6,277.9c-.3.9.5,1.7.8,2.6a7.2,7.2,0,0,0,1.1-3.2C748.8,276.4,748.2,279.6,747.6,277.9Z" fill="#0a6cff" fill-rule="evenodd"/><path d="M812.9,260.9c1,.9,1.4-1.6,1.9-2.8s-1.1.2-1.7,1.2S813,260.3,812.9,260.9Z" fill="#0a6cff" fill-rule="evenodd"/><path d="M816.9,253.8c.8.9,1.7-2.5,1.7-3.2S816.9,251.9,816.9,253.8Z" fill="#0a6cff" fill-rule="evenodd"/><path d="M821.9,256.7c2.4,1.2,4.8-.6,7.1-1.4-.5-2.4,1-2,1.9-3.7C827.6,252,825.5,255.3,821.9,256.7Z" fill="#0a6cff" fill-rule="evenodd"/><path d="M830.1,254.2c1.1,1.4,2-1,3.1-1.7C832.1,251.5,831.1,251.7,830.1,254.2Z" fill="#0a6cff" fill-rule="evenodd"/><path d="M834.3,252.5c1.1-.1,2.2,1,3.3-.2S835.3,249.7,834.3,252.5Z" fill="#0a6cff" fill-rule="evenodd"/><path d="M837.3,256c1.4.1,1.9,1.1,2.8,2,.7-2.3,1.2-2.4.5-5.3C840.4,256.3,838.3,254.1,837.3,256Z" fill="#0a6cff" fill-rule="evenodd"/><path d="M838.8,226.4c-.3,2.4,1.6,1.1,2.2-.1s-.9-1-1.4-1.5S839.4,227.1,838.8,226.4Z" fill="#0a6cff" fill-rule="evenodd"/><path d="M851.8,245.4c-.3.4-.1.7,0,1.1l.6,1c.7-2.5,3.6-.5,5.2-3.9a1.8,1.8,0,0,1-.3-1.6c-1.3,1.5-2.5,1.3-3.8,3.3-1.4-2.5.6-1.9.5-4.2s-1.3,3.3-1.9,1.7C851.7,243.4,853.3,246.4,851.8,245.4Z" fill="#0a6cff" fill-rule="evenodd"/><path d="M843.8,225.2c1.7.1,3.5-.4,5.2-2.9C847.2,222.4,845.5,223.6,843.8,225.2Z" fill="#0a6cff" fill-rule="evenodd"/><path d="M859,243c.9-.3.9,3.4,2.2,3.1-.5-2.1-.3-3.4,1.1-4.3C861.2,240.7,860.1,242,859,243Z" fill="#0a6cff" fill-rule="evenodd"/><path d="M860.9,239.2c1.3,1.2,2.6-.8,3.8-2.2C862.8,236.2,862.5,238,860.9,239.2Z" fill="#0a6cff" fill-rule="evenodd"/><path d="M873.3,238.2c.3-.9-.8-1.7-.3-2.6-1.8-.1-3.7,5.3-5.5,2.3C867.6,243.7,871.5,236.4,873.3,238.2Z" fill="#0a6cff" fill-rule="evenodd"/><path d="M866.9,235.8c2,1.5,3.9-2,5.8-3.9C870.8,230.2,868.9,234.2,866.9,235.8Z" fill="#0a6cff" fill-rule="evenodd"/><path d="M871.3,227.2c-.1,2.8,2-.4,2.8-1.2C873.2,224.6,872.3,228.2,871.3,227.2Z" fill="#0a6cff" fill-rule="evenodd"/><path d="M872.4,230.3c1.6.7,3.2,2.2,4.7-1.7C875.6,231.1,874,227.7,872.4,230.3Z" fill="#0a6cff" fill-rule="evenodd"/><path d="M880.4,233.7c-1.6-2.4.3-4.8,1.4-3.7s-.6,2.7-1.4,3.7c.8,2.5,1.5-1.2,2.2,1,.5-4.8,4.1-10.2,5.8-12.4-.1-3.7-3.7,3.2-3.8,5.4-.3-3.1-2.1-.5-1.4-3.6-2.1,3.4-3.8,7.6-6.6,12.9C877.9,238.6,879.1,236.4,880.4,233.7Z" fill="#0a6cff" fill-rule="evenodd"/><path d="M887.9,227.6c-.3.9.4,1.7.8,2.6s1.4-2.5,2.2-2.2-.4-1.7.3-2.6-1.1-.5-1.7-1C888.8,225.8,889.4,229.1,887.9,227.6Z" fill="#0a6cff" fill-rule="evenodd"/><path d="M891.2,231.7c.8-.3,2.7-1.8,1.3-3.7C891.5,229.2,891.8,230.4,891.2,231.7Z" fill="#0a6cff" fill-rule="evenodd"/><path d="M892.8,225.3c-.5,2.5,1.3.1,1.7,2.1.2-2.1-.1-2.1,1.1-3.2C894.7,222.6,893.7,225.4,892.8,225.3Z" fill="#0a6cff" fill-rule="evenodd"/><path d="M111.2,493.6c-.6-1.1.6-2.5-.6-3.6-.4,1.1-.9.6-1.2,1.8,2.2,0-.2,9.4,1.5,2.4,2.4.1,4.7-1.2,7.3,1.1.8-2.4,1.3-1.6,1.9.3.2-.7-.5-1.4-.1-2.1s.4,1.9,1.5,2.4c0-2.5.6-2.3,1.7-6.5-1-.8-1.9,1.7-2.8,3-1-2.8-1.7-.8-2.5-.2-2.1-4.5-4.6-1.5-5.7-3.4-1.1,2.4,1.7,3.6,2.1,3.4C113.4,494.7,112,490.8,111.2,493.6Z" fill="#0a6cff" fill-rule="evenodd"/><path d="M136.2,509.7c1.6,1.1,3,.4,4.4-.6-1.1-.9-.5-2-1.3-2.9C139.1,510.6,137.4,507.9,136.2,509.7Z" fill="#0a6cff" fill-rule="evenodd"/><path d="M143.1,509.3c.8-.1,1-1.4.1-2.6s.7.4,1.1.9c1-1.4.6-2.6,1.1-3.9s3.4.6,4.8-1.7c2.4,5.1,4.1.1,6.2,1.3.2,4.2-3,1.9-2.9,5.7,2.9-2.1,5,1.3,8-3.2,1,2.2,1.6,4,2.8.7.9,2.1.7,4.8-.4,5.8.5,1.4.9-.4,1.4.3-.7-1.6.9-3.6-.4-5.2,2.1,2.5,3.7-1.7,5.7-1.3-2.4,2.6-3.8,5.1-4.3,5.4,1.1,3.6,3.8-2.2,5.5-3.4.3,2.7,2.1,1.7,3.1,1.2s-.5-1.4-.2-2.1.6-.1.8-.6-.2,1.7.5,2.5c2.2-.2,4.4-2.6,6.6-3.4.2.5.1,1,.4,1.5-2.4,1.4-3,3.3-5.2,4.9,2.1,2.1,3.8-.3,5.8.8.5-2-.8-.5-1.2-1.9s.8-1.2,1.3-1.8c1.3,1.4.6,4.1,1.9,4s.1-1.8.6-2.7-.5.3-.8.6-.8-5.3-1.2-2c-1.8-2.6,0-4.1,1.1-3.8-1.2,1.8,1.7,1.7.8,4.1.8.9,1.3-2.9,2.1-2.4s-.9,3.6-1.7,4,.9,2.6.3,4.1c1.1,1.2,1.9-1.3,3,.2s-1,1.7-1.3,4.4c1.2,2.8,1.9-1.3,3.1,1.1.3-1.9-1.3-.7-1.9-2.9.8,0,1.6-.5,2.5.2-1.4-1.9-.8-3.2-.7-5.7.3-.3.6-.1.8-.6s-.5,2.2.8,3.1c.9-3.6,7.4-1.9,7.2,2.2.6-2,1.6-1.1,1.5-3.4,1.5,1.4.7,3.1,1.6,4.6-1.4-.4-2.6,1.9-4,1,1,2.2,4.1,2.1,5.8.8.6,1-.3,2.2.7,3.1,1.1-1.8,2.1-3.7,4.1-1-.1-2.7,1.1-2.5.2-5.3.9,2.1,1.7-1.4,3.3.6-1.1-3.7,2.1-1.9,1.9-4.5,2.1,1.4-.9,3.3.6,4.7.6-2.2,1.5-2.4,2.3-1.9a22.9,22.9,0,0,1,0,3.7c-2.7,1.8-5.6.1-7.5,3.1.8,1.9,1.2-1.3,2,1.3,3.2-6.4,7.3,2.4,10.5-2.9,3.8,4.8,9.7-1.6,11.7,3.8a19.4,19.4,0,0,1,3.3.7c.3-4.1,2.4-1.4,3.7-2.6.1.9-.2,1.8.4,2.6-.1-2.7,1.9-3.1,1.9-.7,2.8-3.6,6,.6,8.9-1.6-1-1.4.5-2.5.9-3.3.6,1.1-1,2.6-.6,3.7,2.7,2.3,5-1.4,7.5-1.9.2,3.9,3.3,3.8,3.6,1.1.7,1.9,1.2.5,1.8,1.9,1-5.9,7,1.6,9.8-3.8,2.8,5.5,6.6-4.6,8.8,1.1-.8-.5-1.6.4-2.4.8.8,2.8,3.3-1.6,5.4-.6s4.2,3.2,4.1,0c.5-1.3,1.2,1.5,1.8,1.9,1.8-2.3,3.8-.6,5.5-3.2,2.4,1.7,7.1.5,10.7.4,91.9,1.4,182.4-18.8,273.3-37.6.8,1.2.2,2.5-.2,3.7-7-2.7-13.6,4.8-20.5,2.6-.4,2.3-.8,2-1.8,2.8-.3-1,.4-.5.7-1.6s-2,2.9-3.2.2c-.8,1.5.3,2.8-.4,4.3-3.1-4.7-7.7-2.4-11.4.9-3-.4-6.1-1.5-9.1,1.8a1.4,1.4,0,0,1-.3-1.5c-4.7,3.7-11.6.8-14.5,5.4-.8-1.3-.1-1.9-1.1-2s.3,1.4.6,2c-6.3-2.5-10.8,4.8-17.3,1.5-.4,3.5-3.6.8-5.1,1s-4.1,4.1-5.4,1.5c-2,2.6-4.2,3.1-6.5.6-1.1,1.2.8,2.1-.4,3.2s-1.8-1.5-1.1-2c-1.4,3-2.9.7-4.3,2.5-.6-.7-.3-1.4-.1-2.1-1.7,3-3.7,1.4-5.5,3.1-.4-3.9-.2-.4-1.7-1.9,0,1.4-.6,2.7-1.3,2.7a6.3,6.3,0,0,0-.9-2.5c-1.1,4.1-4-.9-6.4,3.7a3.4,3.4,0,0,1-.3-2.6c-3.1,1.7-10.6,1.6-11.3,4.2-1.6.8-3.3-2.5-4.8,1.5-1.6-2.3-4.4-3.3-4.9-.6-10.2-.4-19.3,3.9-30,3.5-.4.7-.1,1.4-.4,2.1-.9-1.4-1.2-.8-2.5-2.3-5.5,4.1-13.7-1-19.9,5.1-.6-.8-.3-1.7-.9-2.5-2.5.9-5,2.7-7.6,1.8.2,1.5,1.1,5.9-1.2,7.5-.8-2-.3-3.3-1.8-4s1.2-3.9,1.8-1.8c.8-2.6-2-3.4-1.7-.9-3.6-3.5-6.7,2.7-10.4-1-.5,3.8-2.9,2.9-4.6,0-.5.7-.2,1.4.1,2.1-3.1-1.4-6.1.4-9.3-1.1-.2.9.2,1.7-.1,2.6-4.5-1.2-10.4,3.3-14-1.2-.2.6.2,1.1.4,1.6-4.9-.4-9.7,2.1-14.7-.5-3.3,2.8-9.2,1.4-13.5,1.5-1,1.4.3,2.5-.6,3.8s-.7.6-1.1.1c.7-5.9-3.5-2.2-5.1-3.6-.4,2.9,1.2.4,1.7,1.9s-1.1,1.8-1.5,2.3c-2.2-6.6-5.6-1.9-8.4-4.3-1,1.3.4,2.4-.6,3.7s-.8-.6-1.1.1c-.3-.8.4-1.8.7-2.7s-1.7-1.1-2.4.8,1,2,.2,3.2,1-.9,1.6.8-1.8-.5-2.5,2.4c-1.1-2.9-1.9-1.4-2.9-1.8-.4-2.5,1.8.4,2.4-1.8-2-3.3.6-1.4,1.2-2.8-2.9-3.4-2.4.8-5-1.5-.4,1.1.9,2,.7,3.1s-.6-.2-.8-.5c-.4,1.4-.1,2,.6,2.1-1.2,3.1-2.6,2.1-3.8,5.1-.9-.9-1.3-1-1.2-3-1.2.2-2.1,4.7-3.4,3s.7-2.2.9-3.2-1.6,1.4-1.2,2.7-1.7-1.9-2.5-.2c-.3-1,.5-2.2-.7-3.1-1,4.2-5,5.7-5.3,1.7-1.2.5-2.5-1.2-3.4,2-1.8-4-3.6,1.2-4.6-2.6-1,6.4-5.2-2.7-7.2,2.5-2.3-1.2-4.5.8-6.8-.8s1.3-.3-.2-2.1c-3.3,5.4-7.3-1-10.7,2.4.5.9.9.3,1.4,1.4s-.2,1.4.2,2.1c-1.7-.3-3.5-2.6-5.1-2.6s.5,1,.9,1.5-1.2-.3-1.5,2.3c-.2-1.4-.5-1.9-1.2-2-1,6.1-4.4-1.5-6.4,2.9a3.4,3.4,0,0,1-.2-4.2c-.9-1.8-1.5.2-2.3-.8-.2.9.6,1.7,1,2.5-.6,2.3-1.3,1.8-2,2.4a3.4,3.4,0,0,1,.3-3.2c-1.7,2.2-3.7.7-5.6,1.2-.4-1,.5-2.1-.8-3-.7,5.5-6.7,2.6-8.3,5.3-.8-2.5-2.9-1.6-1.4-4.1-1.2-.4-1.2,1-1.2,2.8s-1.8-4.8-3.1-2.2c.6,1.7,1-.2,1.7.8a1.6,1.6,0,0,0-.2,1.6c-2.7.2-5.6-2.5-8.1,2.1-.1-2.9-.3-2.5-1.4-5.1-.7,1.7.5,3.1,1.1,4.6-1.1,4.5-3-2.2-4.2,1.6-1.8-1.7.4-3.9-.7-5.7-.8,2-.2,3.9-.4,5.8s-1.2-1.8-1.7-.8c-.3-.8.3-1.8.6-2.7s-2.3,1.1-1.7,2.8c-2.1-3.2-1.9-.1-3.5-3.7-1.6,2.3-1.9,1.5-3.8.5-.1,1.4.9,2.6-.3,4.2l1.6,2.5c1-.1.2-2.8,1.6-.3a1.8,1.8,0,0,0-.1-2c1.6-.1,6.8-2,6.2,3.4.6,1.1,1-1.8,1.5-2.3a4.2,4.2,0,0,1-.5,4.8c.6.5,3.3-.1,2-2.4,1.1-1,2.4,1.2,3.4-2,.6,1.1-.9,2.6-.6,3.8s3.6-2.5,3.2,2.2c.8,1.1.8-1.8.4-2.2a2.8,2.8,0,0,1,3.1,1.2c.2-.9-.2-1.7.1-2.6s1.3.2,1.8-.8a7.5,7.5,0,0,1-.1,2.6c2.2-2.4,4.6-2.5,7-1.9.7,1.4-.8.3-1,2.2s1.6-1,2.6,1.3c-1,1.3-2.1,1.5-3.3-.6-.5,4.5-3.8-.3-5.3,2.7,3.7.9,6.8-.7,9.8-.2.5-1.9-.9-.5-1.2-1.9,1.5-3.2,2.1,4.3,3.6,1.1-.6-.4-1.1-.4-1.7-.8.5-2.9,1.5.4,2-2.4.8.8.3,1.7-.1,2.6s.9-.7,1.4.4c.2-3.6,5-2.2,7.3-1.5.6,2.5-1.3-.9-1.6,1.3a17,17,0,0,1,11.1-.8c.4.8-.3,1.8-.6,2.7,1.3,2.5,1.9-1.3,1.7-2.9,1.6-.8.2,3.1,1.9,4,1.4-1.4-1.2-2.3-.5-3.6,2.3-.1,4.3-3.6,6.8-.3.6-3.8,1.7-2.2,3-3.5,1.1.9.5,2,1.3,3,1.6-2.5,3.3-2.1,5.1-2.2.5,1.9-1.4,1.5-1.8,1.8,1.2,2,3.2.2,4.4-2.1,1.2,1.1,0,2.5,1.1,3.5-.6,1.9-1.9.6-1.7,2.9,3.4-.2,5.5-1.9,8.3-5.2,1.7,1.3-.7,3.2.6,4.6,2.9-.6,5.7-1.6,8.8,1.1,1.2-3.6,2.4-.9,3.2-.4.5-1.1-.5-2,.4-3.2,2.3,3.2,6.8-3.1,7.4,1.7,3.3-.9,8.2,1.6,10.5-1.7,1.9,2.8,3.4-.6,5.3,3.1,1-3.1,2.4-.6,3.3-4,1.1.9.5,2,1.3,3,6.3-.6,12.5-2.7,19-.1.1-1.3.7-2.6-.4-2.5,5.3,1.2,10.6,2.1,15.7-.7,1.2-1.5,2.6,2.2,3.9,1.6s-.5-1.3-.1-2.1c1.6.9,3.7,2,5.9-.6l1.8,3c5.3-3.4,10.9-2.1,16.4-1.2.2-.6,0-1.1.2-1.6,9.7,1.2,19.1-2.2,28.7-2,1.2-3.4,7.9-1.1,12.1-1.7,2.2-.3,3.9-2.5,5.7,0l.9-2.2c1.3,3.7,3.5-1.8,5.5,1.6,4.3-4.3,11.1-.5,16.3-4.3l1.2,2c6.8-4.5,13.9-.9,20.6-5.6,3.2,2.9,6-2.6,9.2.2,1.7-3.3,3.6.3,5.3-2.6,5.1,1.6,10.1-.2,15.1-2.4,11.1-.3,22.1-5.8,33.3-6l1-2.2c.4-.6.5.8.3,1.5,5.8-2.5,10.1-2.8,16-5.5l1.2,2c1.1-.5.2-3.9,2-2.3s-.4.5-.7,1.6,1.9-.1,1.8-1.7c43.7-6.6,85.6-23.1,129.1-33.2.2-.5.5-1,.7-1.6,6,.7,11.8-5.4,17.8-3.2,1-.8,1.8-4.4,2.1-1.2.8-1.6,3.2-3,4.9-1.3l1-2.2c2.1-.1,4.2.4,6.2-1.9,10,1.1,19.9-7.3,29.9-3.4l1.1-2.2c1.7,2.4,4.6,1.2,5.4-1.3.5.9.2,1.7.8,2.6.6-4,1.6-1.7,2.4-.7,2.5-3.6,5.7-3.2,9.2-3.6a3.9,3.9,0,0,1,.3,2.6c.8.4.8-3.8,2.4-1.7.2-.5-.2-1-.3-1.6s1.6.9,2.4-1.7c.6.7.3,1.4,0,2.1.9-1.5,2.7-3.3,4.3-3.4.8,2.6-.9,1.6-1.6,3.3,3.2-2.9,6.4-4.5,9.6-6.9l1.4,2.6c-.2,2.4.8-1.4-.5-2.1,1.4-2.8,2.8-2.3,4.8-4.4.4,2.2,2.3,1.1,1.1,3.1.9.7.8-3.2,2.7-.2,1.2-2.3-.7-1.6-1.1-2,1.8-3,3.8-.7,5.6-4,.3.7-.2,1.4-.5,2.1s1.1-1.2,1.6,1c-.5-2.9,1-1.3,1.9-3.8,4.8,3.5,9.8-8.2,14-2.7.8-4.9,3.7-4.4,5.4-5.5,0,3.3-2.4,1.1-3.2,3.3s.9.4,1.3,1.5c-1.5,1.6-3,4.8-4.5,6,0-5.5-4.1.4-4.9,1.3,3.2,2.2,8.3-.2,11.1-5.3.2.9-.5,1.8-.8,2.7,1.6-.9,5.1-1.3,5-6,1.1-1.2.8,1.9,1.4,2.5,3-3.7,5-3.9,8.3-8.3,4.2-.4,8.3-1,12.4-6.9,2.5.5,6.3-2.5,7.8-6.1,5.3,1.5,14.1-12.9,21.1-6.1-1.8-6.5,4-4.2,3.5-10.2,1.4.4,2.9-6,4.3-2.2q8.6-9.9,17.1-3.3c.7-1.8,1.5-3.6,1.1-5.3s1.8,0,2.7,2c.8-2.6,1.6-1.5,2.4-1.7.3-2.9,1.1-2.6,1.6-5.3s-1.1.9-1.6,0c3.5-4.1,9.4-4.7,13.8.1.5-3.9,2-5,3.8-4.3,3.3-8.3,7.6-13,12-16.2l1.6,3.1c-.5-3.4,2.4-2.8,3.5-4.9a3,3,0,0,1,0,2.1c3.9-1.9,7.6-3.1,10.6-8.2,4.1-1.6,9.6-3.9,12.9-10.4,2.8.2,7.9-6.6,10.1-9.3,3.7-4.5,7.1-8,9.9-13.9-1.1.1-1.1-1.8-1.7-3.1s1.5-.5,2.2-2.2c-1.3-.9-1.9,1.1-2.7-1-1.3,3.8-3.6-1.1-4.1,2.8-.6,1.1-1.2-2-1.9-2.6a17,17,0,0,1-5.1,1.7c1.5-2.8,2.2-3,4.4-7.5-6.5,2-15.3,3.8-22.7,11.7-.7.7-1.5,0-2.2-1a10.9,10.9,0,0,0,.3,2.6c-.8.1-1.7,1-2.5,1.7-1.2-4.7-4.3,3.4-5.7,7-.8-1.7.3-3.5,1.1-5.3-.8.7-1.9-.6-1.9-2.6s1.6-.4,2.4-3.7c-.6-1.6-1.2,3.5-1.9.6-1,1-.3,2.1-1.1,3.2s-.7.5-1.1,0,1.2-3.6,1.2-5.3.5,0,.8-.6c-.6,3.3,1.7.6,2.7-.1.5.9.2,1.8.8,2.6,2.4-1.8,2.8-7.3,4.9-8.6.3,2-1.8,4-2.4,5.9a2.9,2.9,0,0,0,2.4-3.7c2.7,1.5,5.3-3.3,8-6.1-1.7-1.5-3.3,2.8-5,4.4,1-5.2,4.3-7.1,6.1-4.4,2.1-3,4.2-5.7,6.3-3.9,6.5-7.7,12.9-6.2,19.4-12.6-1.4-2.5-2.9-.5-4.3-4.1-1.6,1.1-3.1,1.1-4.7-1.5-.5.7-.2,1.4-.5,2.1-1.2-3.4-2.4,0-3.6-1.5s.2-2.4.9-3.7c-1.5-2-2.9.7-4.4.1s.5-2.5-.2-3.7c-2.2-1.4-3.3,2.7-5.8,3.9-.7-2.9,2.1-5.3,3-7-.4,0-.9-.6-1.3-1.5s.1,1,.3,1.6-1.8-.8-2.3,2.1c-.5-.8-.2-1.7-.8-2.6-1.8,2-3.6,1.6-5.4,1.2a5,5,0,0,0-.1,4.3c-.5,1.4-1.1,1.9-1.6,2.1a46.2,46.2,0,0,1-1.1-6.3c2.2-.8,5.5-5.2,6.1-9.7,3.4-1.5,6.8-3.3,10.1-1.8-.8-4.2,1.7-3,3.1-2.7.4,2.2-1.5,0-2,1.6,1.5,2.2,3-2.5,4.4-3.3,1.1,1.4-.6,2.7.8,2.7.4-3.7,4.1-4.1,6.1-3.4,1.6-3.4,3.5-2.1,5.8-3.8.2-3.6-2-.6-2.8-1,1.9-2.3,6.5-6.7,9.9-3.4,2.3-4.6,10.2-1,10.8-10.3,2,1.1,2.8-3.7,4.4-2.2,0,1.8-1.1,1.3-.9,3.7,4.4-4.1,8.7-9.9,9-17.1-1-1.6-2.9-3-2.4-5.8-2.4-2.2-6.1-1.1-6.8-7.7-1.1,3-3.1,2-3.3,5.4.3.5.7-.6,1.1-1.1.5,2-.2,1.4-.9,2.6-.7-2-1.4-2.4-2.2-2a3.2,3.2,0,0,1,.3-3.7c-.7-.3-1.3.2-1.3,1.6-1.8-3.7-5.6.1-8.3,2.3-3.1-4.6-6.2,2.5-9.4,6.6l-.5-1.1c1.2-5.7,4.3-6.2,5.8-10.1-.5-1.5-1.1-.2-1.6-2.1-4.7,6.3-7.6,4.4-12.2,8.7a7.7,7.7,0,0,0-.2-1.5c1.6-.8,4.1-3.7,5-6.5-.8-1.5-1.5.4-2.2-1,.3,2.2-.4,2.8-1.4,1.6a12.5,12.5,0,0,1-.1,4.3c-1.6-1.1-5.1,1.1-4.4,5.3-.7,1.8-.3-3.2-1.4-1.5-.1-1.1,1.1-1.2.6-3.2-1.1-.3-2,3.9-1.7,5.3s-.6-2.7-1.3-3.6c-1.5,1.6-.5,3.1-1.4,4.7s-1-1.5-.6-2.1-.8,2.5-1.1,3.3a5.4,5.4,0,0,1-1.6-3.2c.6-2,1.3-1.4,1.9-2.7-1.6-1.7-2.3,2.2-2.2,4.3-1.9.7-3.7,1-5,5.4-1.4-1.3.2-2.8-.5-4.2,1.1-.9,2.2-1.4,3.3-2.2a6.7,6.7,0,0,1,.1-6.3c-.8-1.1-1.4.2-1.4,1.6-.2-2.5-1.3-.1-1.7-3.1-1.5,3-2.9,3-4.9,3.3-.4-1.5,1.4-2.8,1.9-.6a.8.8,0,0,0,0-1l.6-1.1c-1.1-1.8-2.2.2-3.3,1.2-.6-2.1,0-4.3-.6-6.4-.5,2.3-.6,1.3-1.6,3.3-1.1-1.2-.7-2.5-1.4-3.7-.7.9-.5,1.8-.8,2.7-.8-1-.1-2.1-1.1-3.2-1.7,1.4-3.3,1.2-5,1.3-.7-2.3.7-1.4,1.4-3.8-.8-1.3-1.6,1.9-2.5-.4.1.9-.6,1.8-.2,2.6-4.1-1.7-8.1,3.7-12.2,2.5-.2.7.3,1.4.6,2.1s-1.3,2.7-1.9,2.7c-1.2-8.2-5.4,2.7-7.8,1.3.7-7.5,3.7-5.7,5.8-9.1-1.2-1.6-2.5,2.3-3-1.5l-1.6,3.2c-.7-.8-.6-1.7-.9-2.6s1.5-2.4,2.2-1.1c-.4-2.3.7-1.4.9-3.7-1.3-4.1-2.6,5.4-3.9,1.1-1.2,3.1-2.5,6.1-3.6,9.1-1.1-1.3-.5-2.8,0-4.2s-1.8-.6-2.7-1a5.9,5.9,0,0,1-1.1,4.3c.5.6,1.1-1.2,1.6,1s-1.8,1.4-2.7.1l-2.5,4.8c-.5-3.1.5-2.5-1.4-2.6s.6-2.8-.5-4.2c-.4,5.2-1.9,3.7-3.6,8.1-1.7-.8-3.3-.7-5-2-1.2,5.2-2.8,6.3-4.6,9.2-1.3-1.4.9-2.9.5-4.2-2.5.6-4.9,8-6,11.8,2.6,1,3.2-6.1,4.9-7.6a3.5,3.5,0,0,1,.3,2.6c.7,1,1.8-2.4,1.1-3.2,2.3,4,6.7-9,9.9-3.5-1.9,6.3-6.1,7-8.8,6.7-1.7,7.4-5.6,7.2-9.1,8.2a35.6,35.6,0,0,0,1.7-9.5c-.8,2.3-1.5,1.3-2.2,3.2-2.6-5.5-3.4,3.4-5.8-1.3a23,23,0,0,1-4.1,3.8c.7.9-.2,1.8.2,2.7s-1.4.2-2.1,2.2c-1.3-1.9.2-3.3,1-3.2-.3-2.4-3.4.9-3.2,3.3-1.1-.2-2.2,2-3.4-1-1.5-.1-3,5.4-4.6,3.9s.6-6,1.3-9c-1.9.5-2.7,5-5.4,4.4-1.1-1.9-.5-2.5-1.7-2-.9,2,1.7.6.8,2.6.9.1,1.7.4,2.5-.6.4,2.6.2,2.4,1.7,2s-.3,1.4-.6,2.1-1.5-2.7-2.2-2-.6,1.8-.3,2.7-1.8-.2-2.7.1c-.4-1.4-.2-2,.5-2.2s.3.9.9,1.6c.1-1.6.5-3.2-.3-4.8-3.7,8.7-7.3,8.8-11,13.1a2.1,2.1,0,0,1-.5-2c-.3,1.7-3.1,4.9-4.9,5.5-.3-2.7,2.6-4.4,2.4-6,.8,2.3,1.5,1,.3-.5-3.1,2.8-5.8,4.4-8.2,4.6-1-3.5,2.8-2.6,2.7-6.5-1.1.3-1.5-.8-1.9,1.7-3.7-2.4-10,6.5-13.7,8.1-.9-1.4,2.1-2.9.5-4.3a6.4,6.4,0,0,1-3,4.9c.8.5,1.7,1.3,2.5.4a4.5,4.5,0,0,0,.3,1.6c-1.7,2-3.4-1.6-5,2.3-.5-.8-.2-1.7-.8-2.6-1.3,2.6-2.6,1-3.8,2.3a3,3,0,0,1-.3-2.6c-.7-.8-1.3,1.7-2-.4a1.8,1.8,0,0,0,.1,2.1c-5.1,0-8.5,1.4-13.5,3.3a3.4,3.4,0,0,1,.5-3.2c-.8-.2-1.6,1.1-2.4.6-1.3,1.5.6,2.8-.5,4.2-1.3-2-2.6-1-3.9,1.3-.8-1-.1-2.1-1.1-3.1-.5,1.2.2,2.4-.2,3.7-1.6-2.9-1.3.4-3.3,1.2-.8-1-.1-2.1-1.2-3.1a3.4,3.4,0,0,0,.3,2.6c-1.6,1.8-5.5-1.4-5.5-4.9-2.5,2.2,2.1,2.9.6,6.2-.9.1-.7-1.4-1.9-2.5-1.3,2.2-2.8.4-3.3,4.4-1.2.2-2.5.7-3-2.5l-1.4,2.8c1.1,2.7.3-2.3,1.4.4-.6,4-4.7,1.6-7.1,4.6.4-2.1.1-3.9,1.3-4.8-1.9-2.7-2.1,4.3-4,5-1.3-3.3-2.6-.2-3.9,1.2-1.5-2.8-3.1-1.2-4.6-.2-.5-2.3,1.4-1,1.9-2.8s.6-3.2.2-4.7c-1.5,3.3-3.6,4-4.9,7.6-.4-1-1.1,0-2.2-.9-.7-3,3.3-.9,1.1-4.3.7-2.2,1.6.5,2.4-1.7-.9-2.4-3.1,2.1-3-1.4-.9,1.9-1.9,1.2-3.3,3.3,0-4.3-1.6.1-3.1-2.5-1.6,3.3-3.2,2.6-4.8,4.5,0,2.2,1.4,3.6,2.2,2-.1,3.7-2.5,1.8-3.5,1.8a5,5,0,0,1,.7-3.7c-.2-1.7-1-1.7-1.1-4.2,0,4.7-1.6,1.4-3,4.9.7,2.7,1.3-.5,2,1.5-1,.3-1.8,2.3-2.8.1s.5-.5.8-1.6-1.2-.4-.8-1.5-.3,3.4-1.4.6c.3,1.7.9,3.4.1,5.2-1.3.2-.1-1.7-1.2-3-.7,1.2-.4,2.4-.2,3.7s-.9-.6-1.3.6c-1.5-2.2.7-4.6-.4-6.9a13,13,0,0,0-.5,4.3c-.9,2.4-1.9-2.2-2.7,1.2-1.1-1.1-.8-2.4-1.5-3.6-1.1,2.3-2.3,1-3.5.8-.6,3.7-2.7,2.9-4.1,2.9s1.4-2.2-.1-3.2c-1.1,3.4-2.5,1.9-4.3,2.4s.6,2.4-.2,3.7-.4-3.1-1.8-4.1-1,.7-1,2.1c-2.9-5.6-5.5,3.7-8.3.5-.8,3.7-1.4,3.2-3.1,5.5-.5.2-.9-2-2-1.4-.4-2.7,1.6-1.6,2.1-3.3-1.7-1.5-2.9.8-4,2.9-1.4-.8-.8-2.1-1.8-4.2-1,.9-1.7-.6-2.1,2.3l-1.2-2c.6,2.8-2.3,4.2-3.5.7-.8,3.9-1.6,2.4-3,1.8-1.1,2,.1.6.6,2s-1.3.2-1.9.7c-1.2-2.4-.4-2.5-.1-4.2-1.2.1-2.4-.4-3.7-3.5.3-.7.6-.8.8-.6-.2-1.9-2.7-.7-3.8-.8,2.9,1.3,2.5,4.8,5.3,5.5-2.4,4.7-3-2.9-5-1.8.2,2.3,2.3,4.4,2.1,6.7-.8-1.9-2.7-1.4-3.4-4-.7,2.4-.6,4.6-1.2,7,.2-3.8-1.2-3.4-2.3-5.1s1.1-2.9-.1-4.3c-.4,1.8-.7,1.8-.5,4.3-.7.2-1.8-1.7-1.1,1.1-.8.1-1.6-1.3-2.5-2.4s2.5-.5,1.9-3.9c-1.4,2.1-7.9,7.3-6.9,1.1-.8-.2-1.6,2.4-2.5.7-.9,5.1-4,1.5-5.9,6.7-.6-3.4-2.2-1-1.7-4.1-1-.7-.6,2.8-1.8,3.8s-4.3-1.3-6.3,2c-.4-2.9-2.1-1.8-2.2.2-.9-2.7-1.7-.8-2.6-2.5.4,1.7.8,1.7,1.3,4.2-1.1.4-2.4-1.6-2.9-3s-.6,3.2-2.7.2c-.1.9.4,1.7-.2,2.6,1.1-.8,2.3-.1,3.6,1.4a31.3,31.3,0,0,0-6.1.4,4.5,4.5,0,0,0-.3-1.6c.9-1,2.7,1,2.7-2.3-1.5-1.5-2.6,2.9-4.7-.2-.3.9-.7,1.7-1,1.2a3.4,3.4,0,0,0,.3,2.6c-1.1,1.9-2.4.1-3.5,1.8-1.1-1-.4-2.1-1.2-3.1-1,1.5.7,2.6-.8,2.7s.6-2.7-.9-2.6.2,1.8-.2,2.7c-4.5-5.9-9.4,1-12.9-1.7-.5-1,.7-2.1.4-3.2s-3,4.1-4.7-.1a3.5,3.5,0,0,0,.4,2.6c-.5,1.9-1.1.7-1.6,2.2-.8-.8-.2-1.7.2-2.6s-1.6.4-2.5-.4c-.3.8.3,1.4.6,2.1s-1.1.1-1.6,1.2c-.1-.9.3-1.8-.4-2.6l-1,2.1c-.8-.9-.2-2-1.2-3-2.6,1.1-5.3,2.2-7.9,2.2l.9,1.5c-.8,0-1.4,2.4-2.2,1.2s-.2-1.7.2-2.6c-1.7-1.1-4.5,1.9-5.2,3-.5-2.2-1.1-2.6-2.2-.9,1.5,1.9.2,2.1-.4,3.2,2.4-1.3,3.6,1.6,6.3,0,.2-1-.3-.3-.6-1,.5-2.4,1.1,1.2,1.6-1.1,1,2.5,1,1.8,2.4,4-3.3-1.9-7.5,3-10-.3-.1.5.1,1.1-.2,1.6s.2-2-.9-2.6c-1.5,4.5-3.2,2.1-4.9,1.5-.4,2.9-1.5,2.8-2.7,2.3.3-2.2,1.2-4.3.4-6.4.7-.7,2.2,0,2.1-2.2-1,.4-1.1-.1-1.7-2-.4,2.4-1.1,2-1.3,3.8s-1.9-1-2.7,1.2c-1.3-3.7-3.6-1.4-5.5.5-.2-3.2-1.1-2.8-2.5-.4a3.4,3.4,0,0,1,.2-2.6c-1.9-1.3-3.6,2.5-5.5,1.5-.4,1.1.8,2.1.1,3.2s-1.1-2.6-1.6.1a3.4,3.4,0,0,1-.4-2.6c-.9-.4.2,2.9-1.3,1.7a3.2,3.2,0,0,1-.6-3.1c-1.4,1.7-4-.9-4.4,2.5-.8-1-.1-2.1-1.2-3.1.1,3.3-1.4.7-1.3.6-1.9.7-2.4,4.9-4.7,2-.2,3.1-2.5,1.9-3.7,2.4s.3-1.7-.4-2.6c-.7,3.6-2.2.4-3.4,4s1.5,2.7,1.9,1.4c.5.4-1.1,2.6-1.5,2.3-.5,2.5,1.2.5,1.6.9s-.4,1.8-.7,2.7-1.7-3.2-2.7.2c-.8-1.2-1.5-2.3-1-3.6-1.1-1.8-2,1.1-3.1-1.3-.2,1.4.2,3.2-1,3.2a18,18,0,0,1,4.4-9.3,15.4,15.4,0,0,1-2.8-1.9c-.4,1.1-.4,3.3-1.3,1.7-.3.9.1,1.8-.2,2.7s-.8-1.2-2-2.5c.4,4.4-4.5,5.5-5.2,1,.1,2.6-1.2.1-1.9,2.8,1,1.8,1.8-1,2.8.8s-2.4.3-3.3.3a6,6,0,0,1-1,3.2c-.6,1.3-.7-1.6-.1-2.1-1-.7-.9,2.8-.1,3.7.6-.8,1.3.5,1.9-1.7.3,1,.3,2.1.6,3.1s-2.6-1.5-3.8.3c-.4-2,1.6-6.1-.2-6.3.4,2.8-.4,1.5-1.3,2.7-.3-3.1.8-1.4-1.2-3-.1,2-.1,2.7-1.3,3.8-.6-4-2,1.6-3.4-1.8,3.3-.9,5.8-4.5,9.6-2.4-1.5-3.4,2.5-1.9,1.7-6-.5-.9-.9-.4-1.4-1.4-.4,3.5-2.8,1.2-3.3-.8.9,2.9-1.2,2.9-.1,5.8-.7-.1-1.4,1.7-2.2.2s2.2,0,.2-2.7c.4-2.4,1.1,1.2,1.6-1.1s-.3-1.8-.9-2.6c-1.5,3.6-2.1,1-2.6-1.4.2,4.4-3.4,1.9-5.1,3.1s.2,1.4.9,2.6c-1.7,3.7-4.8.7-5.6,4.2-1.2-1.2,0-2.5-.4-3.7,1.4-.3,2.9-1.1,4.4-.4a6.1,6.1,0,0,0-.2-4.2c-.3,1.1-.7.7-1.1.1a3.8,3.8,0,0,0,.1,2.1c-1.7-3-5.7.7-6.5,3.8.4-5.4-2.1-2.4-3-6.1-.4,1-.9,1.1-1.3.7-.4,2.9,1.2.4,1.7,1.9s-1,3.8-2.2,7.1c-1.4-2.8,1-3.2.9-5.4s-1.1.4-2.4,1.8c.5,1.2.2,2.5.4,3.7s-1.4-1.5-1.9.7c1.2,2,2.3-2.5,3.6,1.2,1.3-2.3,2.6-4.3,4-4s-1.2,1-1.6,1.2c-.4,1.9,1.5,1.7,1.1-.1.8,10.2-7.8,2.5-11.9,6.3.4.7.9,1.4.6,2.1s1.2-1.8,2,.3-1.9,3.7-2.7,1.3c.6,2.5-1.5,6-2.7,3.4-.3-.5,1.6-2.4,2.2-1.2-.5-3.1.4-3.1.6-5.9-1.3-1-.9-1.8-2.3-2.9,1.9-1.4,3.1.6,5.3-3.7-1.2-2.3,0-2.5-1.8-4,.1,1.7,1.3,3.4-.3,5.3-1.9.2-3.7-.7-5.5.5a3.6,3.6,0,0,1,.7,3.1,4,4,0,0,0,2.4.3c.1,1.5-1,2.5-1.5,3.3s-.3-1.4-.1-2.1c-1.6-1.2-.2,3-2.1,2.3-.2-1.6.4-3.2.1-4.8-1.7,4.2-5.6.7-7.5,5-.5-1.2.2-2.5-1-3.6-1,1.3-2,0-2.9,2.9a5.2,5.2,0,0,1,1.2,3c-1.2,1.4-2.5.5-3.8,2.5-.7-2.1.7-6.2,2.1-3.4-.7-1.5.3-3.2-.4-4.7-1,3.8-2.3,2.5-4.5,5.2.7,2.1,1.2-1.2,1.9.3s-1.6.6-2.3,2.9c-.6-.9-.4-1.8-1-2.6-.3,5.8-3.2.2-4.5,3.1-1-3.8,1.9-3,1.9-5.5-.3-.4-.5.3-.8.6s.6-2.1-.7-3.1c-.9,1.7-2.4.1-1.8,2.8s-1.8-.8-2.7.3c-.3-1.4.1-3.4,1-2.2-.4-3.6-3.4,3.3-3.9-1.8l-1.6,3.4c.8.8.6,1.7,1,2.5s-1.2-.6-1.8-1.9c-1.4,4.3-3.3.5-6.4-1-1.4,3.1-5.2-.7-7.6,1.8.1,2.5,1.2.5,2,1.4-.3,2.8-3,2.5-4.3,2.6-.6-2.6,1.7-.2,1.2-2.8s-1.6-1.8-1.8-3c-.6,1.1-1.6,4.5-2.4,6.6s-1.1-2.7-2.1-3.5-2.6,3.1-2.5-.3c-2,3.1-4.1,2.6-6.3,2.2s.9-3.2-.5-4.7c-1.5,1.8.7,3.1-.6,4.8s-1.5-2.5-2.4-3.9c-.7,1.1-1.5-.3-2.2.2a5.1,5.1,0,0,0-1.3-4.1c0,.8-.2,2.3-.7,1.6-.6,1.6.8.1,1.2,2s-1.5.3-2.2.3,1.1,1.8,1.4,1.4a15.3,15.3,0,0,1-.1,3.7c-1,.2-1.2-1.7-1.6,1.2-1.3-2.3.2-1.9.1-3.7s-.9,1.3-1.2,2.8-2.6-.2-3.9.3c-.1-1.5.7-3.2.6-4.8s-2.6-4.6-4-2.7c-1.2-3.1-1.6-4.8-4.1-4.9.8,1,1.7,1,1.8,3s-1.6.9-2.4.8.5,2-.4,3.2c1-.4,3.2,2.3,3.3-.4.2,1.3.5,2.5-.1,3.7s-.9-2.8-1.9.8c-1.3-1,.5-2.2-.7-3.1.4,3.1-1.2,3.2-2.4,1.8-.6,2.1.5,2.4,1.2,2s-.9.5-1.3,1.7c-.4-1.2-2.1-2.2-1.6-3.5s-2.2,3.2-1.9-.3c-1-.9-1.2,4.8-2.6,3.4s.3-1.8.7-2.7c-1.4-.2-4.1-2.8-4.4.5-.4.4-2.4-.3-1.2-2-2.4.7-5.4,4.4-5.9,10.6-.6.3-1.3-.2-1.9.7-1.2-1.6.8-3.5-.8-5.1,1.2-2.3,1.3-.8,2.2-.3,1.2-1.9,1.4-3.6.3-5.3-.2.6.2,1.1.4,1.6s-1.6,2.4-2.5.8.8-.3,1-2.2-1.4,1.6-2.3-.9c-.2,5.2-3.4,2-5.5-.4-.8,2-1.3,5.7.5,5.7-.6-2.6.6-1.8,1.6-1.2s-.4,1-.8.6c.6,2.3,3.4.3,4.8,1.1-4.2,4.1-11.1,2.1-16.4,4.9-.3-.7.2-1.4.5-2.2s-1.5-1-2.2,1.3c-.6-3.3-1.1-.3-2.3-1.9s1.7-2.6.1-3.6c-.8,3.5-1.5,1.6-3.5.9-.7,2.7-1.7,4.6-3.3,1.4-.8,2.5-1.8.9-2.6,3.4-3.3-6.9-8.2-.9-13.5-3.8.3,2.3-.8,4.4-1.6,1.3-1,1.3-.6,2.5-.6,3.7s-.7.6-1.1.2-.4-3.2.6-4.9c-1.7-1.8-.2,4.5-2.2,1.4-.2,3.7-.7,2.5-2.3,2.9-.6-1.2,0-2.5.6-3.8-2.4,3.1-6.6,1.2-8.1,7.8-1.3,1.3-1.4-.4-2.3-.8s.5-3.2-.5-4.7a5,5,0,0,0-.3,4.3c-1.4-.5-1,1.2-2.1,2.3-1-2.7.5-6.5,1.8-6.5-.6-.8-.4-1.6,0-1.1-2.1-2.8-4.9-5.7-7.5.3-1.1-1.2,1.1-2.9-.2-4.1-.8,3-3.8,0-5.6.6s-.1,1.8-.6,2.7c-.2-.9.2-1.8-.4-2.6s-.3.8-1,2.2c-.3-.6.2-1.4-.2-2.1s-2.4,0-2,2.4c-.4-.7-.6-.8-.9-.4s.2-1.5.4-2.2c-2.5.2-6.8-3.2-8.2,1-2.7-2.6-1.8,1.1-3.4-.7-1.2,4.3-2.1,3.7-3.8,6.2.7,1.3,1.3.7,2,1.4s-1.7-.8-2.4.8c-.3-.7.2-1.4.4-2.2-1.8,0-3.6-1.9-5.4-1.9-.3-.7.2-1.5.4-2.2s-1.7-.8-2.4.8c-.5,5.8-6.5-1.4-9,2.7,3.2.5,6.5.5,9.8,1.4-1,1.5-2.2.5-3.3.4-.3,2.6,1.5.4,2,1.4l-1.5,3.3c-.5-.8-.3-1.7-.9-2.5-2.3,1.6-1.8,6.5-4.8,4.8-.3-1.8,1.7-2.4,2.3-4s-.9-2.3-.5-3.6c-.5.8-1.5,7.4-3.8,5.2a3.4,3.4,0,0,1,.3-3.2c-1.2-1.7-1.8,4.8-3.6,3.6s.6-2.9-.8-4.1a.8.8,0,0,0,0,1c.2,1.4-1.4.5-.9,3.3-.5-.4-2.4-.8-1.8,1.8-.7-.3-1.3,1-2-.3s1.6-4,1-5.9a29.4,29.4,0,0,0-2.3,2.9c-.8-.9-.2-2.1-1.3-3-1.6,1-3.3.4-4.9.6s1-.7,1.2-2.8c-2.2-1.3-2.2,6-4.6,2.2-.5.5-.9,3.4-1.5,2.3-.6,1.5.8.1,1.2,1.9s-.5,1.1-.7,1.7c-1.8-1.8-3.3.5-5.1-1.5-.3-2.6,2-3.3,3-.9.6-1.3,1.3-2.4,2.1-2.3-.9.3-3.3-3.3-4.5.5-1.2-1.4.1-3.2-1.1-4.6-.8,3.9-4.1,4-6.6,4.5-.8-1.8.8-.7.9-2.2-1.1.2-.7-1.7-1.8-3-1.4,1.8-3,.5-4.3,2.7-2.3-3-2,.9-4.7,4.8,1.2-.5,2.3-1.9,3.5-1,.6-.8.3-1.4-.1-2.1a1.4,1.4,0,0,1,2.2-.3c.7.9-.7,1.5-1,1.2.5,1.6,3.5,6.1,4.6,2.6,1.1,3,4.2,2.4,5.9.9.7,1.4.5,2.7,1.4.3,3.1,3.1,5.9,3.5,8.7,1.6.3,3.6,3.1.4,2.5,3.9.3-1.1,1.3-1.1,2.3-1.9s-.9-.3-1.4-1.4,1-.6,1.6-1.2a3.4,3.4,0,0,1-.2,2.6c.9,1.6,1.5.3,2.4,1.9.5-.8.1-1.4.4-2.2.7,1.4,1.4,2.6,2,.3.5.7,1,2.1,1.4,1.4.9.9-1.3,2.3.2,3.1.8-4.2,5.7-2.9,6.9-.3s.3-1.6,1-2.2.5-.1.8-.6c1.1,1.1.5,2.4,1.6,3.5,1.6-3.6,5.3-1.1,8-.5.5-2,1.2-1.5,1.8-2.8-1.6-2.2-1,2-2.5.8.6-1.7.4-1.3-.5-3.6,1.6-3.7,3.3-2,4,.5s-1.7-2.2-2.3.3c1.3-.1,2,2.9,1.2,4.6,1.7-.2,3.5,1.1,5.3,1-.4,2.9-.2,1.7,1.3,3-.9.8-1.9.1-2.9-1.8-.4,1.1.8,2,.2,3.1.9-.8,2,.6,3,.2s-.5-2.8-1.3-4.1c1.5-.9,3.1.5,4.6-2.1s-.6-2.7-.3-4.2.2,2.8,1.6,3.6-.4.5-.7,1.6c1.8,3.4,5.3.7,7.4,4.4,2-3.6,4.4-1.6,6.6-1.8.9,2.6-1.4,2.5-1.4,5.4,1.8,1.9,1.9-3.7,2.6,1.3a9.2,9.2,0,0,0-.3-5.2c1.8-1.5,3.8-1.2,5.8-.1.3-4.1,2.3-2.8,3.7-2.6s-.2,1.5-.4,2.2-1-.8-1.5-1.4a1.8,1.8,0,0,0-.2,1.6l-.5,1.1c1.1,1.2,2-2,3.1,1.2-.5,1.5-1.2.2-1.8.7-.2,2.9,1.6,1.2,2.3,1.9-1.6,4.6,2.1.5,3.7,2.2-.2-1.6,0-4.7,1.1-4.9-.6,2.8.9,2.6,1.1,5.7.3-.7.5-.9.8-.6-.6-2.9,1.2-2.7,1.4-5.4.8.3,3.3,3,4.7-.1,1.1,1.3.2,2.8.2,4.2,1.6,1.2,3.1,1.2,4,2.7a14.7,14.7,0,0,0,1-2.2l-1.2-2c-.8,3.1-2-.2-3-.1,1.1-2.4,2.6.7,3.7-1.5.4,6.4,3.2,2.4,5.6,5.1-.9-.6-1.6,1.1-2.5-.2,0,2.6,2.2,1.4,3.1,1.2a29.7,29.7,0,0,1,.3-4.2c1.4-1,.9,2.6,1.6,3.5.3-1.1.7-.7,1.1-.1-.2-3.3,1.1-3.5,2.7-.3-1-3.4.4-1.2,1.4-4.4,1.8,2.7-1.8,2.7.3,5.2.3-3.9,1.4-3,1.9-5.4,1.5,2.3-1.4,2.6-.8,4.3,1.3-.2,1.6-.2,2.3-2.9,1.4,2.1-.8,1.3-.4,3.2,2.6,3.4,3.1-1,5.4-2.7.7,1.2.5,2.4,1.6,3.5,1-2.5,2.3-.4,3.4-1.9.5,1.3,0,2.8.3,4.2s-.8.4-1.1,1.1c-1-.9-.1-2.1-.1-3.1-1.7.7-2.1,2.6-4.1,2,1.3.7,2.5,2.4,3.7,1.2,1,1.4-1.5.3-.5,2.1-1.3-.8-2.6-.2-3.9-.6s.5,1.4.1,2.1-.4-2-1.5-2.5c-.4,1-.8,1.1-1.3.7.2,6.5-2.8-1.2-4,3-1.1-1.2.1-3.2-1.3-3-.6,2.2.5,4.2-.2,6.4.8,1.4,1.5-.5,2.3.8.2-.7-.4-1.4-.7-2.1s1.8-.6,2.8-.2-.9.9-1,3.2c-1,.5-2.2-.3-3.2,1.4-1.1-1.3,0-3.2-1.3-3-1.3,7.9-7.6,3.1-11.1,3.9-.2-1.4,1-2.9.4-4.3,3.3.4,6.7,1.9,9.9,1,.4-1.9-1.3-1.7-1.6.2-.9-1.7-2-1.1-1-3.6a8.7,8.7,0,0,1-2.7,1.4c-.3-1.4.6-2.9-.8-4.1-.7,3.1-1,2.1-2.4,1.8s.1-2.5-1-3.6-4.3,1.6-5.3,3.8c0-.9-.7-1.7-.4-2.6s.2,2.7,1.1-.1c-1.8-1.9-3.3.2-5.1-1.5l-1.7,3.9c-.6-1.4-.7-2.8-1.9-4.1-.9,3.7.9,3.4,1.4,5.2s-2.2-3.4-3-.2c-1.5-2,.8-4.3-.9-6.2-.3.5.1,1,.3,1.5-2,2.1-4.2.7-6.3.2-1,2.4.9,4.5,1.9,4-1,1.1-1.7,6.2-2.9,4s1.1-.8.7-2.7-1,1.4-1.7-.9c-.5,2.1.3,2.8-1.1,3.9a2.7,2.7,0,0,1-.2-3.2c-1.7-1.9-1.1,4.4-2.7,2.4s1.4-3.3.1-4.7c-1,1.3-.6,2.5-1.2,3.8s-.7.6-1.1.1,1.4-1.9.9-4.3c-1.4.4-1.2-1.3-2.7-3.4s-5.3,1.4-7.1,1.9c1.3-4-4.5-1.6-6.5-3-.1-2.7,2.5.2,3.4-3-2.4-2.3-4,3.4-5.8.2-.2.7.3,1.3.7,2-.6,2.6-1.5.4-2.1,2.4-2.4-5-4.8.3-6.3-3.5-2.4,2.7-4.1,0-5.9,3.9,1.1,0,.4.6,1.3,1.9-2.9,3.8-4.1-2-4.6-6.3-.5,2.2.2,4.2-.1,6.4-1.3-.5-2.4,0-3.7-1.2s1.4-1.4,1.8-2.8c.3,1.2-4.3-1.4-5-.4s-.9-3.3-.2-2.1c-.2-2.5-1.1,0-1.6.2s.3,1.3.6,2c-2.2.5-6.1-5.4-8.9-2.1l-1.6-2.4c-.5,1.1-1.1-.7-1.6,1.2-2.7-5.2-4.7.6-7.4-4.3-2.3,3-4.9,1.2-7.6-1.8,1.4-1.8,1.4-3,2.5-4.5-2.8.5-5.3,4.5-6.9,1.4.4,4.4-1.4,6.8-.4,11.6-1.4-.4-2.8-1.6-4.3-2.1.5,4.7,5.2,1.1,5.5,6.7-.5,1.3-1.2-1.4-1.8-1.8,0,3.3-2.2.5-3.1,3.5,0-1.8.1-3.5-1.5-5.1.3,2.5-.5,3.2-1.6,5-1-1.9-2.7-4.3-2.5-1.3-1.1-1.2-.7-3.1-1.9-2.9-.7-1.9,0-1.4.7-2.7-1.3-.3-2.5-.7-3.6,1-1.1-1.6.8-3.6-.3-5.3-.5.9-.6,5.2-1.8,2.9-.1,1.2-.7,2.6.5,3.6-1.4,1.4-1.2.9-1.7,3.9s-1.2-2.7-1.7-.8.9,2,1.3,3-1.5-.9-2.2.3c-.6-1.3,1-3-.2-4.2-.2,2.3-1.9,1.2-1.4-.3-1.4,4.3-4.4,2.7-7-.7,0,1.2-.6,2.5-.6,3.7s.7,1.1,1.8,3c.7-1,.1-1.8-.4-2.6,2.2-1.1,4.7,1.7,7.1,2.8-1.8,2.1-4-1.9-5.8.2a8.8,8.8,0,0,1,3.2,2.2c-1,1.4-2.3-1.2-3.2,2.5-.6-1.3.3-2.8-.8-4.1-.4,1.1-.9.6-1.3,1.8-.7-.8-.2-1.8.1-2.7s-1,.9-1.7-.8c0,3-2,1.4-1.9,4.4-1.6-1.5-.2-3.4-1.4-5-1,1.7-3.7.1-4-1.6-1.6,2.1-1.8-1.2-3.3.4-.8-1.8.8-.7.9-2.2-1.7-2.1-3.1.4-4.8-1a16,16,0,0,0-.5,4.8c-.9-.4-2.6.8-2.5,3.5-1.3-.9.5-2.2-.8-3.1s-1.5,1.6-2.5-.2c-.9,1.5-.1,2.7-1.2,2.8-1-1.6,1.1-3.6.8-5.3s1.5,3.2,1.9.2-2.6-1.8-3.6,0c-1.1-.9-.4-2.1-1.3-3-1.3,2-3.9,4.5-4.6,2.2-.5-.5-.4.9-.1,1.6s-2,1.3-3.2-1.2c-.5,2.1-1.2.8-1.7,2.9,1.1-1.9,2.6,3.3,3.6,0,1,2.5-.1,3.7,2,5-1.3,3.8-2.1,0-2.5-.2-.9,2.7,1.2,1.8,1.4,4.1.4-1.8,1-1.9,1.6-.3.6-2,1.4-.8,1.2-2.8s-1.6.5-1.5-2.4c.5-1,1.4,2,1.9.3.7,1.9-.5,2.8,1.1,3.5-.8-3.5,1.2,0,2.2-.2s.2,3.7-.6,2.7,2.7,3,4,1.6c1.3,4.3,2.8,1.1,3.9,5.2,1.4-1.1,1-3.3,2.6-3.4s-.4,1.8-.7,2.7c1.4,3.1,2.5,1,3.8,2.1.3-1.4,0-1.9-.7-2,.5-2.7,1.9-.3,1.7-2.9.1.5.6,3.3,1.3,2,.6,1.9-.1,1.4-.7,2.7,1.6,1.7,2.9-1,4.6,2.6.1-5.6,2.2,2.2,3.2-2.5-.1,3.3,1.2,1.1,1.6,3.4-1,.6-2,1.4-3.1-1.1-.6,4.4-3.5,1.3-5.4-.9a8.7,8.7,0,0,1-1,4.8c2.3-5.3,8.4,6.4,10.3-3.4,1.7.3,3.4-.7,5.3.9.3-1.4,0-1.9-.7-2a34.5,34.5,0,0,0,1.4-3.4c.6-.4,1.1,0,1.7.9s-1.6,0-2.2,2.9c.9,1.3,1.7,1,2.6,2.3l1-2.2a1.5,1.5,0,0,1,1.4.3c.6,1.2,0,2.5-.6,3.8,2.1.6.7-5.2,3.1-3.6a3.4,3.4,0,0,0-.5-2.6c.5-.9,1-1.5,1.6-1.2-.8,4.7,3.6,5.4,5.2,7.2-1.6,1.5-5.8-1.1-5.4,2.8-1.6.3-3.4-1.3-5-.4.1,3,2.1.6,2.9,1.7-1.2,1.6-1.3.5-2,3.5-1-4.5-1.6-.3-2.5-5-1.3,2.1-.5,3.9.1,5.8-1,1.1-1.3-2.2-1.9-2.9-.5,1.3-1.2.8-1.7,2.8-1.1-.9-.5-2-1.3-3-1.1,2.8-.7.2-2-.2-1.2,1.8-2.5.6-3.7,2.6-1.2-1.1,0-2.5-.5-3.7,1.3-1,3.9,1.1,3.4-3-.8-.3-1.4,1.8-2.1,2.3a4,4,0,0,0-.7-2c-1,2.5-1.2,2.7-2.4.9-1.4,2.1.5,3.8-1,5.9-.2.3-.5,0-.8.6-1-1.3-.2-2.8-.2-4.2s-1.5,0-2.4-1.8a1.8,1.8,0,0,0,.2,2.1c-1.6,1.5-3.6-3.2-4.9,1.7-3.1-1.4-5.2,1.2-7.9-2.2-.7,2.8-1.8.9-2.7,1.5-.1,2.5.3,3-.5,4.8,1.5,2.1,1.4,1.4,2.5,3.9.4-2.7,0-1.9.8-4.4,1.2-.8,2.5.9,3.5-2,.8,1.8-.9,4-1,5.9s2.7-.8,2.6,2.3c1.9.6,3.5-3.4,5.6.4-1,1.7-2.1.9-3.1,2.5.7.3,1.4-.3,2.3,1.8.1-2.3.4-2.3,1.1-.2,1.8-4,4.3,1.4,6.3-.3,1.2,1,0,2.2-.3,3.3s1.4-.3,2.2.7c-.6-1.8-.7-3.7-2.3-5.5a11.5,11.5,0,0,1,.1-2.6c.7-.3,1.3.2,2,.2s-.5,2.2.7,3.1c.7-1,.5-1.8.7-2.7s.8.6,1.1-.2c.8,2.2-.5,1.3-.3,3.3s-1.8-1.7-2.5.8c8.7,1.2,17.1-.1,25.9,2.5.2-4.4,3.1-2.6,3.9.5.4-2.3-.7-4.5-.2-6.8s1.6,2.9,3.1,1.2c.3.6-.2,1.4-.4,2.1,1.4.5,2.6-2.2,4.1-1-1.3,5.8,3.4,2.7,5.9,6.6,1-1.2-.3-2-.7-3,2.2-.1,1.2.6,3.4,1.7.2-1-.9-1.7-.5-2.6s1.1,0,1.7.8a9.1,9.1,0,0,1,.9-3.3c1.1-1.8,1.1,2.7,2.2-.2a3.4,3.4,0,0,1-.3,3.2c3.4,1.1,2.9,2.8,6.9.7a3.6,3.6,0,0,1-.1,2.7c2.4-3.4,5.1-.7,7.5-3.1a3.8,3.8,0,0,1,.2,2.1c1,0,1.9-1.8,2.7-4a2.2,2.2,0,0,1,.2,3.2c3.2-1.7,6.9,3.8,9.8-2.3,1.1,1.1-.1,2.5,1,3.6-.4,1.1-1.1-.7-1.5,1.2,2.5-1.1,5.5-4.7,8.9-2.6.3-2.4-2.3-1.4-.8-4.2,1.6,2,2.8,3.7,4,2.7.6-3.4-1.1-.1-2-1.3.9-2.5,2-1.2,2.9-2a23.3,23.3,0,0,1-.2,5.3c2.7-1.1,4.5-5.2,7.8-3.5.2.6-.3,1.4.1,2.1s.9.3,1.4,1.4c.9-2.1.4-2.1,1.5-3.3a5.6,5.6,0,0,0,1.3,3c1.3-1.3,2.7-.8,4-1,.8,1.3-.7,1.9-1,1.2,1.2,3,3.3-1,3.9-4.2,1.5,1.3.3,2.8-.3,4.3,1.9-.2,3.6-4.8,5.6-3.3s-.7,3.3-1.1,1.2c.5,2.2,1.6,2.9,2.9,2.8a1.2,1.2,0,0,0-.4,2.2c-.5.6-1.1-1.1-1.6,1.2,1.1,1.8,1.9-.3,2.8.7-.4-1.3.2-4.1,1.3-2.7.2-1.1-.5-.4-1-1.5,1.1-1.1,2.2-1.5,3.1-4.6,1.4,1.3-.4,2.9.8,4.1.7-1.7,2.1-1.9,1.9-4.4,2.4.4,5.1,1.5,6.6.3s-.4-2.4.7-3.7c1,2.9-.5,4.6,1.9,5-.6,2.2-1.4.8-2.1,1.3.2,2.7,2.5-.7,3.5.1.1-.9-.4-1.7.2-2.6.9,1,1.5.1,2.3,2.9,1-1.4.2-2.5,1.2-3.9s1.8,4.5,3,.2c.8,1,.2,2.1,1.3,3-.6,1.5-1.2,1-1.9.8,4.4,4.7,10.6-1.1,15.6-.2a8.4,8.4,0,0,1-.8,4.3c1,.6,1.9-1.2,3,.2.7-1.3.3-2.5.1-3.7,2.4-.3,7.1,4.2,9.2-3.1.9,2.3-.9,2-.7,3.8,1.8-.1,2.2-.3,3.6.1s-.1-1.7.1-2.6c1.8-1.2,5.1,4.5,5.8-.1.7,1.2.5,2.4,1.6,3.5.7-.7,1.4-3.3,2.4-.8.9-5.6,4.7.8,6.7-3.3-.2,1.1,1.1,2,.7,3.1,1.3-1.3,2.5-3.4,4.1.1.5-1.5,1-2.1,1.5-2.3a3.7,3.7,0,0,0,.7,2c.1-1.7,1.6-1.8,1.1-.1.7-1.6,2.2-1.4,3.8-.4-.5-2.2.2-2.5,1.2-2.7s-.2,1.4-.4,2.1c1.4.7,2.7-.6,4.1.1-.9,2.7-1.4-.4-1.8,2.8.9.5,1.7,1.2,2.5.3.3.8-.4,1.8-.7,2.7s-2.2-3.2-3-.2c1.1-.8.8,3.5,2,2.4.5,2.3-.6,2.7-1.5,3.3-.5-1.2.1-2.4.1-3.7s-1.3,1.4-1.8,2.8-1.7,1.1-2.7-.7c2,.3,1.3-3.5,2.8-2.9.4-2-1.7-.8-.1-3.2s-.1,3.3.9,1.5.1-1.3-.7-3.1c.3-.3.7-.5,1.1-.1-1.3-1.8-4.7,1.6-6.9.2.8,3-1,.7-.9,3.3a5.6,5.6,0,0,0,3.7-2.5c1,6.9-3.6,5.2-4.8,7.3-2.2-2.4-.4-5.2-1.8-7.7.1,3.5-1.9-.7-2.6,2.4.8-.6,3.3.3,2.6,3.4-1.7-3.3-1.3,2-3.6-.2s.2-3.1-1-4.6l-1.2,2.8c.4.6.9,1.3.6,2-2.4,2.9-5,2.2-7.5,4,1,2.4,1.7.4,2.6,1.3-1.5,1.9-4.1,3.6-5-.5.8.3,1.5-.3,2.1-2.4s-1.4-.5-1-2.5c-1.6.7-2.9,5.1-4.3.5-.6,2.2-1.3.9-1.9.7s-.5,1.8-.1,2.6c-2.1-1.5-5.4,2.6-6.7-1.4a31.2,31.2,0,0,0-3.5,2,8.2,8.2,0,0,1,.2-2.7c-1.1-.9-.6,2.1-1.3,2.8-1.2-1.6-.6-3.4-.2-5.2-1.3-.8-2.8.5-3.5-2.8-.2,2.1.9,4.1-.2,6.3,1.8,1.4.4-4.6,2.6-2.4.5,2.1.1,3.4-.8,4.3s-4.4-3.6-6.4-1.9c-1-2.8.8-1.8,1.4-3.3-1-1.4-1.8.4-2.7,1.3a8.6,8.6,0,0,0,.7,2.1c-.7.7-1.1-1.1-1,1.1-1.7-1.9-2.9,3.8-4.8-1,0,2.4-2.3,3-2.7.3-.6,4.6-3.2,4.7-5,3.2-.5.8-.2,1.4-.4,2.2-1.6-1.6-3.1.1-3.2-3.3l-1.8,3.8c-1.9-1.5.4-3.5-.8-5.2-1.1,2.4-2.3,2-3.5,1-.1,1.7-1.1,3.6-1.4,5.4-.8-2,1.1-4.3-.3-6.3.3,5.1-3.2,5.3-5,3.2-1.4,1.2-1,4.3-2.6,3.5,0-1.9.9-4.2-.7-3.1-.4-1.5.3-3.2,1.1-4.9s-.4-.2-.6.1l-.6-1c-.8,1.5,0,2.8-.8,4.3s-1.4-2.5-3-3.9c-.9,2.2-2-.6-3,.9,1.3,2.8,2.3,2,3.4.7a8.3,8.3,0,0,0,1.5,3.5c-1.2-.4-.9,1.9-2.4-.3-1.2,1.2.8,2.1-.4,3.2-1.3-2.4-3.9-1.4-5.9-1.9-.2,1.4,1.7,1.5,2.3.8.6,4-2.1,3.8-3.4,3-1-2.4,1.9-.4.9-2.2s-.9,2-2.4.8c1.3-5.2-4.1,1.2-6.2-3.5-.5,2.2-2.5,3.7-3.8,6.2-.1-4.6-4.3,0-4.8,1.7a2.5,2.5,0,0,1-.7-2.1c-.4,1.7-1.6,0-2.6,2.5-1.1-3.7-1.9.2-3.8,1.5-.4-1.2.2-2.5-1-3.6-3.2,3.2-5.2,1-8.6,3.2-.5-1.3.1-2.7-1-2.5.2,4.2-1.8,1.9-2.8-.8.8,3.2-.8,5.7-2.5,4.6s1.8-.3,1.3-2.8c-.6-1-1-.4-1.5-1.4-.3,1.4.4,2.5-.7,2.7s.6-1.8.1-2.7-2.2.5-2,2.4c-1.3,1.1-.2-3.3-1.5-2.5a4.2,4.2,0,0,1-2,4.5c-.6-3.1-.8,0-2-2.4.1,2.3-1.3,2.2-2.2,1.3s.6-.7.2-2.6c-.3,3.3-4.8.2-3.8,5.2-1.1-1.4-1.8,3.4-2.9,1.9s.8-1.7,1.3-4.4c-1-.7-1.9.6-3-.1,0,6.6-3.9,4-4.9,5.3,0-2,1.2-2.9,1.7-3.9a1.8,1.8,0,0,1,.1,2.1c1.3,1,.8-1.7,2.1-2.4-1.9-.4-2.3.4-4.1-3.7-1.1,1.4.3,2.4-.1,3.7-1.8-3.6-7.9,1.3-10.4.3-.3.4-2.1,2.3-1.1,3.8-1.3,2.5-2.9-1.8-2.6,2.5-.9-1.3-.1-2.8-.3-4.2s1,.8,1.5,1.4c.7-2.2-.9-3.2.8-4.3-1.4.1-1.5,1.6-3.1,3.5a4,4,0,0,0-.7-2c-.7,1.9.7,1.2.6,3.6s-1.7-.7-2.4,1.9c4.4,2,8.6,1.7,12.8,1.5,1.2.9-.6,2.2.7,3.1s.6-1.3,1.2-2.8c1.2,2-.4,4.3-1.2,6.5-2.4.1-5.3-4.2-8-.6-.8.3-1.8-1.8-2.6-1.2.9,2.2.7,1.9-1,1.2-.9,1.1.1,2.1-.4,3.2-2.3-3.7-2.5-.6-4.4-.5s-.2-2.1-1.3-3c.3,2.3-.5,3.9-1.7,2.9s1.2-2.3-.2-3.2c-.3,1.2-.7.7-1.1.2a6,6,0,0,1-.7,2.7c-2.4-.9-3.6-1.2-5.7-3.5-.1,4.5-1.9-.8-2.9,2-.7-1.9,1-.8,1.2-2.8-1,.2-2,.9-3-.2-.5.6-.9,3.5-1.5,2.3.5,2.7.2,2.5-1.1,4.9,2.1-.9,3.2,2.3,4.7-.1,1.2,2.3-.5,2,.5,3.7a5.5,5.5,0,0,0,.5-4.8c.6-.9,1.3-.4,1.8-1.9.3,3.5,1.9,1.5,2.8.7.9,2.2-1,2.2-1,4.9,1,.3,1-.6,1.5-2.3.4.8,1.3,2.8,2.9,2.8-.1-1.4.7-2.9,1.4-4.4.4,1.7.1,3.5,1.4,5.1.6-1.7,1.5,0,2.2-.3-.2,1.3.5,2.4.5,3.6,2.8-1.4,5.8-.8,8.8,0,1.4-3.6,3.3.8,4.8-1.7,3.2,5,6.8-4.1,9.2,2.5.4-2,1.1-.7,1.5-2.3.9,1.9,1.6,1.9,2.4,2.9-1,1.4-2.1-.6-2.3,2.9.3-2.9-.7-1.2-1.8-1.9-.5,2.3.5,1.6,1.3,2-1.2,2.6-2.5,1.3-3.8,1.5s1.1-1.9,1.6-1.3c-.7-2.6-3.3.6-4.7.1.8,1.9,1.3-.6,2,1.3-2.5-.3-3.3,2.4-5.5,3.4-.9-1.1,1.6-2.7,0-3.7l-.9,2.2c-2.6-1.8-5.2.4-6.7,2.4,1.3-3.1-1.2-1.9-2.6-2.3-.1,1.4-.7,2.7.4,2.6-1.6,4.2-2.3-1.8-3.7,1.6-.9-1.5-.6-3.1-.6-4.7s-1.8,3-1.7,3.9-3.5-3-3.5,1c-.5,0-2.4-1.2-2.1-2.4-.8,2.6-3.8,3.7-6.4,1.9,1.3-1.4,1.2-.9,2.2-4-1-1.1-2-1.7-3-2.8-.7.8,1.1,3.6-.1,2.7-.3,2.8,1.3-.3,1.7-.2.5,3.4-2.6,6.1-4.2,2.6-1.9,0-3.2,7.1-5.3,3.9l-.9,2.2c-1-.9-.1-2.1-.2-3.2s-2,3.6-3.2,1.5.9-1.5,1.2-2.8c-3,1.8-5.7,4.3-8,.5-.9.3-1.8,0-2.5,2.5a2,2,0,0,1,.4,2.5c-1.3-2.4-4,1.5-6.1-1.2.5-1.5,1.1-2.8,1.8-1.9-.7-1.7-3.6-1.3-5.1-1.4-1,2.8,1-.1,1.6,2.4s-1.8.4-2.6,2.5a3.4,3.4,0,0,1-.1,2.6c.8,1.4,1,.1,1.2,2a2.1,2.1,0,0,0-1,1.2c-1.6-3.8-2-2.7-3.8-4.2.7-2.7,1.9,1.2,2.6-1.5s-1.3-.4-2.1-2.3c.7,2-1.6,4-2.7,4s.2-1.4.4-2.1c-.9-2.4-1.5,0-2.3-1.8-.4,1.1.9,2,.7,3.1s-3.8-.3-5.7,1.3c.2,2.7,1.4-.7,2.3.7s.1,1.1.4,1.5c-1.5-.8-1.7,1.3-3.1,2.6.3,2.9,1.5,1.8,1.8-.8,1.4,1.2-.9,3.3.8,3C143.4,506.2,141.5,507,143.1,509.3Zm105.1,12.4c.8-2.3,2-.2,3,.1C250.3,523.6,249.3,522.8,248.2,521.7Zm83.9,9.2c-.7,2.4-2.7.7-1.2,3.8-1.4,1.6-3,1-4.6,0,.7-2.3.9-.9,1.4-4.4.5.7,1,2,1.5,1.4s-.3-1.3-.2-2.1C330.1,530.5,330.9,527.6,332.1,530.9ZM941.7,299.1c1-1.6.7-3.8,2-1.6S942.5,300.8,941.7,299.1Zm-1.9-56.9c1.7-1.3,1.9-1.9,3.3-5.4.7,2.3,1.3,1,2-.5a24.8,24.8,0,0,1,1.6,5.2c1.4-2.2.4-4.3,0-6.4,2.3,1.1,2.1,6.1.8,9-1.9-3.8-3.9,3.5-5.8,1.8s1.1-1.3.6-3.2C941.4,244,939.8,244.3,939.8,242.2ZM770.2,281.9c-1,2-2.1-.3-3,.7C768.1,280.5,769.1,280.7,770.2,281.9Zm-86,17.7c-.6-1.8-2.4-1.2-2-3.6C683,298.4,684.9,296.3,684.2,299.6Zm-65.4,5.5c.8.4,1.5-1.6,2.3.9S618.5,307.3,618.8,305.1Zm-384,39.6c-1.2.2-2.4.5-3.7-1.2C232.2,343.6,234.5,342.1,234.8,344.7Zm25.4,31.1c.1,2.4-4.8,2.4-4.2-1.1C257.6,377.2,258.7,373.1,260.2,375.8ZM163,380.7c.3-.9.1-1.8.7-2.8.5,1.1.9.5,1.5,1.4S163.9,382.4,163,380.7Zm132.9,64.2a12.3,12.3,0,0,1-5.7.1C292,443,293.9,443.3,295.9,444.9Zm-52.6,6.7c-.8-.2-3,.9-3.1-1.2C241,450.3,243.2,449,243.3,451.6Zm-27.2-.3c0,.7-.7,4.6-1.5,2.3S215.6,450.1,216.1,451.3Zm-64.4,48.4c-.6-.6-.2.8-.7,1.7-1-3.2-1.5,2-2.5-1.2C149.2,497.2,151.6,497.9,151.7,499.7Zm39.3,8c-.8.3-1.4,2.1-2.2.3C189.8,505.1,190.8,507.6,191,507.7Zm38.5,12c0,2-1.7,2.3-2.7.3C227.5,517.8,228.5,518.9,229.5,519.7Zm7.9-.4c-.8,1.4-3.2.8-3.4-1.7C235.2,518.8,236.1,516.6,237.4,519.3ZM173.9,418.2c1.9.1,3.6-1.7,5.5-.7C177.9,420.5,174.9,420.1,173.9,418.2ZM263.4,552c0,2.3-1.9,2.5-2.9.8C261.3,550,262.3,550.6,263.4,552Zm-41-66.2c-.9,0-1.7,1.9-2.7.3C220.3,484.5,222.4,483.1,222.4,485.8Zm-49.1-77c-.5-1.5-2.1,1.1-1.8-1.8C172.3,407.4,173.9,405.7,173.3,408.8Zm1.8-1.8c.7,3,.9.6,2,1.3s.7,1.7.5,2.6-1.2-2.1-2.2.3l-1-1.5C174.7,408.8,174.5,408,175.1,407Zm5.7,6.1c-.9.5-1.7,2.5-2.8.4C178.8,410.8,179.7,411.4,180.8,413.1Zm38.4,47.8c.4-1,1-1.5,1.5-1.3-1.1,1.9.1,6.8-1.8,5.6S220.3,462.5,219.2,460.9Zm-30.1-50.4-.9,2.2-.9-1.4C187.8,409,188.5,410.3,189.1,410.5Zm-18.8-29.7c-.7-3.6-1.1.4-2.3-.8C167.6,376.6,171.9,377.5,170.3,380.8Zm54.8,78.3c1.9,2,3.7-3.2,5,1.5,0-3.1,1.9-3.3,2.9-1.9-2.5,1-1.8,4.7-4.2,7.3-1.3-4.1-.9.6-1.8-2.9-1.3,1-4,3.6-4.6,1.1.3.3,1.7-.4,1-1.2-.9.8-1.8.5-2.8-.7.6-2,1.4-.7,2.3.8C223.6,461.4,225.2,462,225.1,459.1Zm33.8,59.2c.1,2.6-1.5,2.1-2.3,1.8C256.5,518,258,517.2,258.9,518.3Zm-40.3-65.8,1.3,2c-.5,1.4-1,2-1.6,1.2C219.4,454.5,217.5,453.7,218.6,452.5Zm-38.4-68.3c-.7,2.5-1.8-2.2-2.4.9-1-1.4-.2-3.7-1.7-3.5C177.8,377.6,178.5,384,180.2,384.2Zm18.2,27.7c-.8,1.7-1.4,4-2.4,1.9C196.8,413.5,197.4,410.1,198.4,411.9Zm-12.3-18.4c-1.2-2.8,1.3-6.9,2.7-5.1s-.5,3.5-1.1,3.8C187.4,389.5,186.5,391.4,186.1,393.5Zm56.4,71.9c-.2-2.7-1.1-.8-1.5,1.3-.8-.1-1.1-.6-1.3-2-1.7,2.8-3.9-.7-5.6,2.3-.9-1.2-.2-4.6-1.5-1.4-1-1.4-1.3-5.6.3-4.3-.2.8-.4,1.5.2,2.1-.2-5.9,3.1-4.5,4.8-6.4l1.5,2.5c1.1-.4,2-3.6,3.2-1.4s-2.7,4.2-4.2,3.6c.4.7,0,.9-.4,1.1s1.9,2.2,2.8,1.8c1.2-3.2,2.4-5.6,3.9-3.1C242.5,461.7,243.3,464,242.5,465.4Zm-42.3-55.3c.4-1.1-.9-2-.2-3.1.7,2.2,1-1.5,1.7.8s-.4,3.6-1.3,5.5l-.9-1.5Zm90.7,142.3c.5,1.5-1.2,3.9-1.8,1.8S290.1,550.2,290.9,552.4Zm-15-33c-.4,3.6-3.6-.7-2.5-.3S275,517.5,275.9,519.4Zm-80-128.2-1,2.2c-.3-.7-.9-1.3-.7-2S194.7,388.8,195.9,391.2Zm11.2,10.1a2.1,2.1,0,0,0,.4,2.6l-1.2,2.8c-.8-.3-1.7-1.6-2.6-2.3C204.8,403.9,205.9,402.2,207.1,401.3ZM196.4,390a12.4,12.4,0,0,0-.1-4.7c.7,1,1.1-.9,1.8.8-2,4,2.1,1.6,1.6,4.6-1.2-1.4-3.5,2.3-3.9-1.6Zm16.1,18c-.7-3.7-1.9.1-3.1-1.2C209.7,402,213,403.9,212.5,408Zm2.2.8c1.1.3.6,3.2,1.3,1.9s-.4-2.4,0-3.7l1.2,2c-.3.9-.8,1.8-.1,2.6s-1.1,2.8-1.8,1.8a1.8,1.8,0,0,0-.1-2.1c-1,1.2-.2,2.2-.9,3.3C212.9,412.9,214.6,410.7,214.7,408.8Zm8.6,12.6c-1.1,2.3-2.3,2.4-3.6-.1C220.8,419.6,222,420.1,223.3,421.4ZM200.5,389c1.3-1.4,2.8,1.6,4.1,0-1,2.4-1.8,2-3.5,2C201.4,390.3,200.9,389.6,200.5,389ZM249,458.9l-1,2.2c-.8-2.1-1.6-2-2.2.2l-.9-1.4C246.2,457.9,247.6,458.8,249,458.9Zm-42.2-66.5c-.9-1-1.7.2-2.6-1.2S206.9,390,206.8,392.4Zm82.8,128.5c-1.3,1.6-2.9-.6-4.3.5C285.6,517.9,288.2,519.9,289.6,520.9ZM199.8,378.5c-.3-1.2.3-2.5.6-3.7a1.8,1.8,0,0,1,2.2-.3c.4,1.5,0,3.1,0,4.7,1-3.9,2.4-2.9,3.6-3.6,1.5,3.5,2.5,2.8,4.5,4.2-.7,2.8-3.8,1.1-5.5.7a3.4,3.4,0,0,1,.4,2.6c-1.6.2-2.2-.7-1.5-2.5-1.3.8-5.1,3.2-6.5-1.8C199,380.1,198.5,378.2,199.8,378.5Zm16.1,22.7c-.2,2.7-.6,4.3-2.3,3C215.5,404,214,401.1,215.9,401.2ZM204,384.3c.7.7,1.3,0,2.1,1.3S203.4,386.7,204,384.3Zm48.8,74.1c.5.4.9.3,1.3-.7l1.5,2.5c1.7-2.8,2.3-.6,4.3-2.7-.5,1.2.5,2.1-.4,3.2-1.2-1.8-2.2-.6-3.2.4a6.6,6.6,0,0,1-.3,5.3c-.8-.6-1.7-.7-2.6-2.3.7-1.8,1.6-.5,2.3-2.9S253.1,460.5,252.8,458.4Zm1,2.5c-.8,1.7-1.8,1.3-2.8-.7C251.8,458.9,252.8,460.5,253.8,460.9Zm-42.4-73.3c1.3.9-.5,2.2.8,3-.7,1.4-1.4,1.5-2.2.3S210.7,387.6,211.4,387.6Zm90.7,146.1c-.7,1.4-1.3,2.8-2.1,1.3S301.3,533.4,302.1,533.7ZM209.5,383.6c.7.8.4,1.7,1,2.5s-1.2,1.2-1.9-.3Zm26.9,36.2a6.6,6.6,0,0,1,1,2.5c-1.2.7-2.3,2.2-3.6-.1C234.6,419.7,235.6,422.5,236.4,419.8Zm-21.9-32.1c1.6,1.8,2.9-1.2,4.5.5-1.5-.3-2.8,3.8-4.4,1.6C214.9,389.1,214.3,388.4,214.5,387.7Zm7.3,10.7,1-2.2c.4,1.2,1.1,2.3,1,3.5C223.1,397.8,222.6,400.3,221.8,398.4Zm-9-16.3c.2-1.4-2-2.5-.9-4.1s.2,2.2,1.6,3.5l-1.2,2.8c-.4-1.2-1.9-.4-1.5-2.4S212.1,382.4,212.8,382.1ZM263,459.8c-1.2-1-.9,2.3-2.4.8C261.1,458.4,263.1,456.9,263,459.8Zm-33.7-60.7c-1,.4-1.9,1.5-3,.9C227.2,397.3,228.3,398.7,229.3,399.1ZM313.8,535c-.6.9-1.1,2.3-1.8.8S313,532.8,313.8,535ZM238.2,408.5c-1.1-.5-2,.6-3.1-1.2C235.8,405.2,238.1,406.8,238.2,408.5ZM269,459.1c1.3-.6,2.6.2,3.9.6C271.9,462,268.7,463.1,269,459.1Zm-46.4-91.3c-.9,2,.2.5.7,2s-1.3-.9-1.9.7c1.1,2.8,2,1.5,3,2.8s1.5,4.3-.1,3.7c.5-2-1.1-.5-1.5-2.4-.9,3.3-2.2-.3-3.2,1.4-1-2.4-1.6-2.9-3-2.8s.7,1.7.5,2.6c-2.7-2.6-1.4-4.9-.6-9.4.6.8.2,1.7.4,2.6.4-.9,1,1,1.4.3a6,6,0,0,1-1-2.5c.9-1.8,1.8,0,1.2-2.8.7,0,1.3-.7,2.1,1.4s-1.1.7-.8,1.6A4.3,4.3,0,0,1,222.6,367.8Zm9.4,16.7c-.1-1.9.8-1.4,1.5-2.3.7,3.1,2.1.7,3.4,1.7-1,3.3,1.2-.1,1.9,3-1.1,1.3-2.5-.9-3.6-.1-2,3.3-1,9.2-3.4,7.8C233.3,392.5,234.7,386,232,384.5Zm90.9,146.4c.3,1.2-1.3,2.6-.1,3.7,1.4-1.8.6-3.3,1.1-4.9.5,1.1.9.5,1.4,1.4-.6,4.1-1.6,5.1-2.2,8.7-2.2-3.8-2.5-3.4-4.6-4.7C319.5,533,320.9,530.6,322.9,530.9Zm-47.3-72.6c-.3,2.2-1.2,2.9-2.4,1.8A6.3,6.3,0,0,1,275.6,458.3ZM216,362.8c-.5,1.1.8,2,.2,3.1S214.6,362.1,216,362.8Zm21.6,27.9-1.9,4.4c-.4-.6-.7.1-1.2-.9S236.3,389.4,237.6,390.7Zm40.2,68.4c.8,1.1,1.4.4,1,2.5-.6-1-1.1.9-1.7-.9ZM256.5,419c1.6,2.2-.9,4.1-1.8,2.8S255.9,421,256.5,419Zm-31.4-47.3c.6-.2,1.8,2,1.1,3.5C225.4,374.1,224.6,373,225.1,371.7Zm54.2,84c-.2.4-.3.8,0,1.1s.9-1.1,1.4-.7-1.7,2.4-2.7,1.4S278.8,455.2,279.3,455.7Zm-1.4-9.8c-1.1-1.7-1.7,2.1-2.8.3C275.8,444.3,277.9,443.2,277.9,445.9ZM214,340.9c-.3,2.3,1.2.8.8-.6.8,1.1.6,2.3.5,3.6-1.3-.4-.9,1-2.7.3C212.8,342.5,213.3,341.2,214,340.9Zm127.4,191c-.6,2-1.4.4-2.2.3C339.9,530.2,340.6,530.1,341.4,531.9Zm-67.9-114c-.6,1.7-1.2,1.2-2-.2S272.8,416.5,273.5,417.9Zm26.9,42.8c1.3,1.5,0,4.6-1,2.2C300.1,461.5,299.4,461,300.4,460.7ZM278.3,420c1-2.3,3.7-1.9,4.2,1.1-1.4-2.8-2.4.8-3.5,1C279.3,420.5,278.2,422,278.3,420Zm77,113.1c-1.1.8-2.2,1.7-3.5-.1C352.8,531.5,354.9,530.3,355.3,533.1ZM239.1,346.8c-.6-.8-2.6-.8-2.4-2.9S239.3,344.9,239.1,346.8ZM264,373.2c1,2.6,1.9,1.3,2.9,2.9-.9,2-2.1-.9-2.9,2.9-.6-1.4-1.1,0-1.7-1.9A11.8,11.8,0,0,0,264,373.2Zm43.8,68.2c1.1,1.5,1.7,3,.5,4.7-.8-.3-1.3-3-2.6-2.3C306.3,441.2,307.2,443.4,307.8,441.4Zm-48.6-92.9c-.9,2-1.8,3.6-2.9,3C257.2,349.6,258.1,346.7,259.2,348.5Zm26.4,45.4c-.6,1.6-1.2,1.1-2-.3S284.9,392.5,285.6,393.9ZM276.2,375c-.9,1.7-1.8,2.8-3,.8C274.2,374.2,275.2,374.9,276.2,375Zm7.7,8.6c1.6,1.9,2.9-1.2,4.4-.5-.7,3.9-2.5,2.5-4.5,3.1-.3.8,0,1.9-.8.6A5.8,5.8,0,0,1,283.9,383.6Zm25.7,35c-1.3,2.4-2.7,2.2-4,2C306.8,418.1,308.2,418.4,309.6,418.6ZM265.2,343c-.6,1.4-1.4,1.1-2.1,1.4.4-1.8-.4-3.5.2-5.3C264.6,340.3,264.1,341.8,265.2,343Zm-4.2,2.7c-.7-2.6-1.2-1.3-2.4-2.9,1.8-.7,2.9-6.7,4.2-2.6C261.3,341.2,261.6,343.4,261,345.7Zm4.8,2c-.7-2-2.5,1.1-2.3-1.8,1-.2,1.9-1,3.1,1.2a2.1,2.1,0,0,0,.4,2.6c-.8,1.5-1.7,1.9-2.7,1.4S266.4,349.7,265.8,347.7Zm21,28.2c-.8-1-1.4,1-2.3-.8S287,374.3,286.8,375.9Zm-3.3.3c.7-1.3-1-2.3.1-3.7C284.8,373.3,284.6,376.9,283.5,376.2Zm6.9,9.3c.6-2,1.3-1.5,2-2.4.9,2.2,1.6,1.5,2.3,1.9-1.1,1.2-.5,1.2-1.4,3.3-.6-2-1-2.7-2-.3A5.1,5.1,0,0,1,290.4,385.5ZM338.2,457c-.6,2.4-1.8,1.5-1.7,3.8l-.6-1c-.1.4-.3.6-.5.1C335.7,457.4,337,455.7,338.2,457Zm39.1,70.6c.8.7,1.3-.7,1.5,1.5S376.7,529.3,377.3,527.6ZM268.1,344.8c-.8.3-1.7-.1-2.6-1.3C266,340.7,268.3,343.9,268.1,344.8Zm63.2,95c-1,1.4-2.1,1.6-3.3.4C329.1,438.8,330.2,438.6,331.3,439.8Zm-52.2-92.6c-.7-.6-.3.9-.8,1.7s-1.4-3.4-2.8-.7,1.7,1.1,1,3.5c-1,.2-1.8-.6-2.3-2.8C275.5,345.7,278.3,344.1,279.1,347.2Zm43,74.7c1.2.6,2.3-2.6,3.6.1-.9,2.2-1.9,1.4-2.9,3A3.6,3.6,0,0,1,322.1,421.9Zm-24.2-44.2c.6.1,1.2.6,1.8,2S297.2,379.4,297.9,377.7Zm-14.7-30.4a5.4,5.4,0,0,0-.4,2.2c-.6-.1-1.2-.6-1.8-2S282.4,346.1,283.2,347.3Zm20.3,30.9c-.8.2-1.5,3.7-2.4,1.8C301.8,378.3,302.6,377.6,303.5,378.2Zm8.4,8c-.9,2.6-1.4-.4-1.8,2.8a6.3,6.3,0,0,1-.9-2.5Q310.4,383.3,311.9,386.2Zm-6.1-.4c1.2,2.1,2.1-2.3,3.4.7C308.4,389.6,306,388.5,305.8,385.8Zm-18.4-32.7c-.6,2.8-1.4.5-2.2-.8S286.7,352.8,287.4,353.1Zm20,26.7c-.6,2.2-1.4.8-2.1,1.3C305.2,378.7,306.5,378.1,307.4,379.8Zm3.1-4.5c-1.3,2.3-1.9,2.6-1.9,5.4-1,.2-.8-1.6-1.3-3s1.4-1.4,2.1-2.3-1.1-.1-.9-1.5,2.5.6,3.7,2.2,0,1.8-.7,2.7C310.3,377.7,311,376.4,310.5,375.3Zm4.4,5.2a4.3,4.3,0,0,1-5.4,1.7C309.5,377.2,313,379.1,314.9,380.5ZM285.7,337c-1.3,1.1-2.8,0-4.2-.1C282.8,335.7,284.2,334.9,285.7,337Zm9.1,14.8c0,1.4.1,4-1.2,2.7S294,350.8,294.8,351.8Zm-2.6-11.9c1.6,1.1-.9,2.6,0,3.7s1.3-2.3,2.2-.2c-1.4,2.6-2.9,1.7-4.4,1.5C290.2,342.6,291.8,343.4,292.2,339.9Zm25.3,46.7c1.6-3.5,3.8,1.1,3.2,4.4C319.8,389,319.9,387.9,317.5,386.6Zm-.1-6.9-1.3,2.8c-.3-.7-.9-1.3-.6-2C316.2,382,316.6,376.9,317.4,379.7ZM305,355.9c.9,1.1.3,2.4-.1,3.7-.4-.6-.7,0-1.1-1Zm-5.3-11.5a7.5,7.5,0,0,1,0,5.7C298.3,348.4,298.7,344.7,299.7,344.4Zm16,29.7c.7-2.5,2.2.3,2.3,1.9S317,375.6,315.7,374.1Zm-11.4-30.8c.5.9,1,1.4,1.5,1.4-1.3,1.4-1.7-.7-2.3,2.9-.7-3.2-1.4-.4-2.7-2.3C301.9,343.2,303.2,345.6,304.3,343.3Zm8,4.4c-1.9-3.5-4.9,1.7-5.9-2C308,345.7,312.2,342,312.3,347.7Zm-1.6.1c-.5,1.2.5,2.1-.4,3.2s-.9-.1-1.5-1.4C310,348.7,309.4,347,310.7,347.8Zm9.5-2.6c.8,1.9,1.3-.6,2,1.3s-1.4,1.9-2.1,1.3S320,346.1,320.2,345.2Zm26.5,31.9c-.9.3-3.6,3-3.1-1.3C344.6,378,346.7,374.8,346.7,377.1Zm30.6,51.5c1.4,1.3,0,4.7-.9,3.2C377.1,430.7,376.4,429.7,377.3,428.6Zm-31.5-54.1c-.6,1.6-1.3.4-2-.3s.4-4.5,1.2-3.8S345.6,373.1,345.8,374.5Zm.6-4.8c1.4,1.3.4,5.2-.7,3.8S345.3,371.1,346.4,369.7Zm-12.6-23.4c1,2.9,1.6-1.1,2.6,1.3-1.3,1.9-2.7,1.8-4.1,2Zm12.3,19.2-1,2.2-.9-1.4C344.8,364,345.5,365.3,346.1,365.5Zm5.5,10c1.3-2.8,1.3,1.6,2.9,1.8C353.6,378.3,351.8,377.5,351.6,375.5Zm3.7,2.2,1.2,2c-.5,1.9-2.4,2.9-2.2.2C355.1,381.1,355.2,378.2,355.3,377.7ZM386,426.6c-.6.4-1.3-.8-2-1.4,3.8-1.1,7.6-2,11.5-.1-.9,4-2.2-1.6-3.2,1.4.8,1.2,1.4.5,1,2.5-1.2.2-.8-2.1-2.1-3.5-1.1,2.8-2.5-1.1-3.5,2,.8.4,1.5-.3,2.3,1.8s-1.1.3-1.5,2.3c-1.1-.6,0-4.1-1.3-3s1,2.3-.1,3.7-1.1,0-1.7-.9S386.5,428.1,386,426.6Zm-34.8-58.5c1.5,2.8,2.6.2,4,1.7-.6,2.2.4,3.9-1.1,4.9-1.4-1.3-.5-2.8-.8-4.1-.8.7-1.7.1-2.4,1.8C349.8,371.1,350.5,369.6,351.2,368.1Zm-11-20.9c-.8,1.8-1.6,4.1-2.6,2.4C338.5,348.7,339.2,345.6,340.2,347.2ZM363,387.4l-1,2.2-.9-1.4C361.6,386.6,362.2,386,363,387.4Zm7.6-13.4c.4-.5.8-.5,1.3.4-1.8,2.9-3.2-3.6-4.3-4.3l-1.2,2.7c-2.3-2.9-4.4-2.1-6.4-.8a10.8,10.8,0,0,1-1.4,5.4c-.4-4.1-1,1.5-2.2-.8,1.6-3,2.9-4.8,3.7-8.4,2,4.5,4.9-1,7.1-1.8-.2,1.1-1.7,2.3-1,3.3.9-1.6,2-1.1,2.9-2.9s-1.1-.2-.9-1.5c1.1,1.6,3.4-2.1,3.6,1.2-1.4-1.3-3.2,2.9-1.9,5.4-.1-3.8,3.7-2,3.8-.4C372.7,371.5,369.7,370.3,370.6,374Zm.8-5.4c-.1-1.1,1-2.7,1.8-2.8-.4,1.7,1.2.3,1.7,1.9C373.8,369.7,372.6,368.9,371.4,368.6Zm-31.1-20.4a4,4,0,0,1,4.1.1C343.2,349.5,340.9,351.2,340.3,348.2Zm12.2,17.2c-.6-.6-1.1,1.3-1.7-.9S352.9,364,352.5,365.4Zm5.3,1c-.6,1.5-2.6,2.5-2.5-.3C356.1,366.9,356.9,365.6,357.8,366.4Zm-10.9-18.9c.1,1.6-1.3,2.9-2.2,1.3C345.4,346.8,346.1,347.2,346.9,347.5Zm51.7,78.9c-.1,2.4-1.6.5-1.2,3.8C396,428.9,397.7,424.9,398.6,426.4Zm3-.8c.1,2.3-1.3,1.7-2,4.4l-.9-1.5C399.6,426.7,400.5,424.1,401.6,425.6Zm-36.4-59.5c-.6.5-2.6,2.7-2.5-.2C363.6,366.4,364.3,364.7,365.2,366.1Zm-6-15.7c-.6,1.6-1.2,2.2-1.9.8S358.5,349,359.2,350.4Zm17.5,20.3c.8.1,1.5-.4,2.2-.2-.8,1.9-.7,3.9-2,3.3C377.3,372.7,376.1,371.8,376.7,370.7Zm6,4.1c.5.9,1,1.4,1.5,1.4l-.5,1.1c.1.4.3.7,0,1.1-1.6-2.2-.3,2.3-.9,3.2-.7-.7-1.3.7-2-1.3C382,378.4,381.9,376.6,382.7,374.8Zm-3.7-9.1c.4.8,1.2,1.6.9,2.5-1.3-.8-2.4,2.4-3.9-.6C377.4,365.8,378.3,368,379,365.7Zm88.4,148.9c1,1.3.4,2.7-.4,4.2a1.7,1.7,0,0,0-1.1-.9C465.8,516.5,466.6,514.6,467.4,514.6Zm-53.6-91.8c.9-1.2,1.8-.8,2.8.8-.8,2-.7,6-2.3,3.9C415,425.3,415.5,423.5,413.8,422.8Zm-24.7-47.1c-1.1.2-1.4-1.6-1.3-3-1.8,2.7-5.2,1.9-6.4-2,2.5,2.1,5.1.4,6.5-1.7a7.4,7.4,0,0,0,.8,4.1c0-2.2.1-2.4,1.2-2.7s.3,1.7.4,2.6c.5-2.9.6-1,1.6-1.3-.9-2,.8-2.7,1.6-1.2s-1.1,1.5-1.7,3.9C389.9,374,389.6,372.5,389.1,375.7Zm-23-42.9c1.5,2.1,2.3-3.1,3.1-3.5,1.3,2.6-.4,2.4-.8,5.4-.7-2-1.1.4-1.6,1.2A3,3,0,0,1,366.1,332.8Zm22,33.5c1.2.9,2.4.8,3.6,1.3-.7,1.1-1.5,1.8-2.4,1.8S387.1,369.2,388.1,366.3Zm-11.7-26.1c.1,1.4-1,4.1-1.8,2.8S375.7,339.1,376.4,340.2Zm-2.2-10.3c-.5,2-1.2.7-1.8,2.8s1.4.5,1,2.5c-.9-.6-3.1.8-3.2-2.3C371.3,331.3,372.4,328.3,374.2,329.9Zm20.7,41c.6,2.5,2.3-1.6,2,1.4C396.2,373,394.3,374.2,394.9,370.9Zm-6.6-18.8c-1.1.9-2.2.7-3.3,1.4C385,352,388,349.5,388.3,352.1Zm-11.1-18.3a5.4,5.4,0,0,0-.5,2.1c-.7-.9-2.7-.1-2.6-2.3C375.2,335,376,331.6,377.2,333.8Zm29.2,34.9c-1.6,1.8-4.4,2-6.5,2.8.5,1.2,1.2,2.3.5,3.6-.6-4.4-1.3-.9-2.9-2.8.9-2.2,1.7-2.3,1.1-6C400.7,372,403.7,366.8,406.4,368.7Zm78.5,143.8c-.9-.8-1.7,2.5-2.7.2C482.9,511.8,485,509.9,484.9,512.5Zm-51.8-92.1c.6,1.6,1.2,1.5,1.7-.2,1.2,3.1-1.5,7.2-3.1,5.6C433.2,423.4,433.1,423.2,433.1,420.4Zm-50.4-86.2c-1.6,1.4-3.3.3-4.9.6l.7-1.7C380,334.3,381.3,333,382.7,334.2Zm29.1,51.4c-1.1-.1-3.6,1.2-3.9-1.7C409.1,385.1,411.5,381.9,411.8,385.6Zm-3.2-10.2c1.6,2.1,2.9,0,4.5,1.6a2.9,2.9,0,0,1-5.2,0C408.4,377.7,408.6,376.2,408.6,375.4ZM384.9,333c-.4.9.7,1.6.4,2.5-.8-1-1.5,1-2.3-.8S384.2,331.9,384.9,333Zm5.3,1c-.9,2.2-1.8,2.1-2.7,1.3C388.4,334.7,389.2,332.9,390.2,334Zm18.4,34.5c1.4-2.6,1.9,0,3.1,2.3a7.7,7.7,0,0,0-.7,2.7l-.6-1C410.8,369.9,410,369.1,408.6,368.5Zm-21.5-41.6c1.5.5,2.8-2,4.4.7-1.4.6-.8,4-2,4.4s-.2-4.9-1.3-4.1.4,2.4-.6,3.7C386.7,330.1,387,328.5,387.1,326.9Zm6.9,6.7a6.8,6.8,0,0,1-.9,3.3c-.9-2.5-1.5-.1-2.3-1.9l.5-1.1C392.2,335.9,392.6,333.3,394,333.6Zm23.9,35c-1.2.1-4.6,5.4-4.3.5C415.1,371.2,416.4,366.3,417.9,368.6Zm8.6,7.6c-.6,1.1-1.3,1.9-2.1,1.3S425.7,374.6,426.5,376.2Zm.1-5.8c-1.8-1-5.8,3.5-5.9-2C422.5,370.9,425.6,367.4,426.6,370.4Zm10.1,12.2c-.6,2-1.4,1.6-2.1,1.3S435.9,381.6,436.7,382.6Zm-2.2-7.7c1.7,4.3,3.1.5,4.7,2.2-.7,3.3-3.9.9-5.7,1.1C434.2,377,433.5,376.1,434.5,374.9Zm.4-2.1c1.7,2.6,1.6-4.2,3.5-2-1.4,2-.7,1.4-1.2,3.8C436.4,374.9,434.2,375.8,434.9,372.8Zm9.4.1c-.8,2.2-1.6,2.4-2.4,1.8S443.3,370.3,444.3,372.9Zm-20.1-37.5c-.8,2.9-1.8,1.3-2.7,1.3C422.4,336,423.2,334.2,424.2,335.4Zm-.6-2.1c-.5,1.7-2.5,1.4-2.3-.8C422.1,333.7,422.7,330.6,423.6,333.3Zm4.3,5.4c-.4,1.1.9,2,.7,3.1s-1.2,2.2-1.9.7C427.6,341.5,426.4,338,427.9,338.7Zm-.7-11c-.1.8-1.1,2.7-.6,4.8.6-1.1,1.2.1,2,1.4-1.4,1.5-2.6,4.8-4.1,3C426.5,334.1,424.5,325.5,427.2,327.7Zm27.6,53.2c-.4,2.3-2.3,1.7-2-.4C453.5,381.3,454,378.8,454.8,380.9Zm-23.2-45.8c-.5,1.6-1.2,2.2-1.9.8S430.9,333.7,431.6,335.1ZM451,369.6c1.3-.6,3.6-1.6,4.2,1.2.9-1.8,2.9.9,2.9-2.9l1.2,2c-.7,2.1-1.4.8-1.3,2.8-1.6-1.2-2.4-1.1-2.7,2.3-1.2-.9-.3-2-.6-3.1l-1.3,2.8C451.9,371.8,453.2,370.1,451,369.6Zm10,2.3c1.6,3-1.6,5.5-2.6,3.4s-.1-1.8.1-2.7C460.3,372.1,460,376.3,461,371.9Zm2.9-4c1.4,1.8.1,3.9-.6,5.9-.5-.8-.9,1-1.4-.4C462.7,369.8,463.4,371.9,463.9,367.9Zm7.3,11.5c-.8,1-1.6,2.4-2.5.7C469.5,378.2,470.3,378.1,471.2,379.4Zm83,117.6c.7-1.1,2.6-2.3,2.5.4-.8-1.3-1.6.8-1.6,2.2A6.2,6.2,0,0,1,554.2,497ZM485.6,369.6c1.7,3-2.3,7.3-2.3,2.9C484.5,373.7,484.2,370.1,485.6,369.6Zm72.9,126c1.4-1.1,4.2-3.3,4.9.7-2-1.4-.7,2.7-1.5,4.3-1-1.8-.7-3.8-1-5.7C560.2,497.5,558.7,498.6,558.5,495.6Zm8.4-1.2c-.7-.4-1.4,1.2-2.2.2C564.4,491.3,567.8,491.8,566.9,494.4ZM483.2,327.2c-.9,1.3-1.8,1.4-2.8.2C481.3,325,482.2,326.1,483.2,327.2Zm4.8-3.6c.6-4.2,1.3-.3,2.2-.2-.8-2.7.5-4.8.9-6.4,1.4,2.1-1.5,4.7-.1,6.8.3-.9.1-1.8.8-2.7s2.2,1.6,1.7,3c-1.6-1.6-7,8.7-6,.6-1.1,0-3.6,2.7-3.9-.7S487.3,321,488,323.6Zm1.5-5.4c-1.3,2-2.7,1.8-4.1,1.9C486.7,318.5,488,316.6,489.5,318.2Zm95,166.5c1.2,1.2,3.6-3.7,4,.2C587.3,484.7,585,488.6,584.5,484.7ZM494.3,315.6c.4.8,1.2,1.7.9,2.6-1.4-1.5-1.9-.9-2.4,1.8C491.9,317.1,493.4,316.7,494.3,315.6Zm5.5,5.3c.7,2,1.2-1.3,1.9,1.4S499,323.1,499.8,320.9Zm-2.7-11.3a3,3,0,0,1,.7,3.1c-.4-.5-.8-1.6-1.1-1s-.5,1.1-.8.6ZM598,482.6c-.3.9-.1,1.8-.8,2.7-.7-2.1-1.3-.7-1.9-1.4S597,481,598,482.6ZM509.6,319c-.1,1.1,1.3,1.1,1.4,1.5s0-1.8.2-2.6,2.1,2.2,1,4.6c-1.5-.3-2.9.4-4.4-.7C508.8,320.6,509.1,319.1,509.6,319Zm93.3,167.4-1.1-2C602.6,481.9,604.1,484.7,602.9,486.4ZM516.8,320.5c.8-.9,1.6-1.4,2.5.4-.7,1.8-1.6,1.5-2.4.7A1.1,1.1,0,0,0,516.8,320.5Zm97.8,156.6c.6.8,1.3.1,1.9,1.5s.4,3.7-.7,2.7c.5-1.5-.2-2.7-.9-1.6a6.9,6.9,0,0,1,.1,3.2c-.5-1-1,.8-1.6-.9C614.7,480.3,613.3,478.8,614.6,477.1ZM524.9,314.6c1.2.9,3.8-1.3,4.2,1.2-.9-.7-1.7.7-2.5.7s1,.5,1.5,1.5-1.9,1.8-1.8,3.9A39.1,39.1,0,0,1,524.9,314.6ZM620,476.7c-.4,1.3,0,2.5-.7,3.8C618.6,479,618.7,475.3,620,476.7Zm-89.2-160a9.1,9.1,0,0,1,1,6.8c-.4-.7-.7-.9-1.1-1C531.2,320.5,529.5,318.8,530.8,316.7Zm91.7,162.5c-.6,1.6-1.2,2.2-1.9.6S621.8,477.7,622.5,479.2ZM534.3,314.9c-1.5.7-2.9,1.6-4.4.3,1.5-.7,1.8-1.7,3-1.8a1.4,1.4,0,0,0,.3,1.5C533.5,314.3,533.9,313.8,534.3,314.9Zm2.3,1.9c-.3.9.3,1.7.3,2.6s-3,2-4.6.9c.8-1.5.1-2.8.9-4.3C534.4,316.8,535.4,315.8,536.6,316.8Zm92.6,158.3c-1,1.6-1.7,3.2-1.3,4.8-.8-1.3-1.6.4-2.4-.4,1.4-3.5-.8-2-.1-4.2C626.7,477.2,627.9,474.2,629.2,475.1ZM538.3,310.8c.6.8.3,1.7.9,2.6s.1-1.1.2-1.6c1.3,1.1.6,2.4-.1,3.7-.4-.5-.8-1.5-1.2-1s-.1,1.4-.4,2.2l-.9-1.5C538.2,312.7,537.9,313.4,538.3,310.8Zm4.1,7c.8-1.3,1.8,0,2.7-.2C544.3,320.3,542.6,321,542.4,317.8Zm5.9-4.7c.8-.4,1.6-1.8,2.4-.7-.6,2.6-1.4.7-2.1,1.2s.5,1,.3,1.6A5.6,5.6,0,0,1,548.3,313.1Zm6.4,3.2c-.9-1-1.8,1-2.8-.8C552.6,314,554.8,313.7,554.7,316.3Zm-.5,1.1c.3.3.6.1.8-.6a3.6,3.6,0,0,1,.7,3.1c-.5-.6-1,.1-1.4-.4S554,318.1,554.2,317.4Zm6.3,0c-1.3,2.7-2.8,2.5-4.3,1.4C557.6,316.4,559.1,318.6,560.5,317.4Zm.7-5.8c-.4,3.7-2.2,3.3-3.5,2.9C558.8,312,559.9,310.3,561.2,311.6Zm7.1,6.3c.3.8.1,1.7.9,2.5-1.2,2.1-2.3,3.2-3.6.8A3.7,3.7,0,0,0,568.3,317.9Zm15.9-9.2c-.6,1.6.9.2,1.2,2.1s-2.3.1-2-1.5C584,310.1,583.7,308.1,584.2,308.7Zm113-15.2c.8.8,1.5.1,2.3,2-1.1,2.5-2.2,2.9-3.3,3.3l-.8-1.5C696.9,296,696.7,296.5,697.2,293.5Zm9.1,2.1c-1.2-2.5-2.7,2.1-2.5-2.5C704.5,294.3,706.5,292.7,706.3,295.6ZM815.8,441c-2.4,3.9,2.7.9.1,6.3-1-2.2-.7-2.4-1.9-2.5S814.6,439.5,815.8,441Zm-2.6,6.5c-.4-.6-.7-1.6-1.1-1s.2,4.8-1,4.2.4-2.4-.3-3.6c1.4-.6,1.2-5,2.6-5.4C813.8,443.6,814.3,445.5,813.2,447.5Zm-80-158.8c.8-1.5,1.6-.8,2.4-.7.1,1.9-1.1,1.4-1.8,3.8C732.8,290.8,733.7,289.7,733.2,288.7Zm86.7,151.6c.8,1.7.3,3.5.6,5.3-.8-1.1-1.4,2.2-2.2.1C819,442.9,819.2,443.3,819.9,440.3ZM738.9,290c-1.3-1-.9,2.5-2.1,1.1S739.2,286.4,738.9,290Zm81.8,150.8c.5-1.3,1.1-1.3,1.6-.1s-.5,2.3-1,2.2A2.9,2.9,0,0,0,820.7,440.8Zm-1.5-171.3c-1-1.6-2,1.8-3,.7C817,267.3,819.3,266.8,819.2,269.5Zm4.4-1.2c-1.4-.2-2.7,1.2-4.1-.4C820.9,265.7,822.2,265.5,823.6,268.3Zm1.9-2.8-1.1,2.2-.8-1.5C824.2,264,824.9,265.2,825.5,265.5Zm88.8,77.8c.9,1.7.3,3.5-.5,5.3s-3.2,1.4-5.2,3.8c-.3-.7-.8-1.4-.6-2.1C909.4,347.6,912.2,345.1,914.3,343.3Zm7.4-.8a6,6,0,0,1,.5,3.2c-1.8.6-3.6,2.5-5.4,2.2C918.4,345.8,920,344.7,921.7,342.5Zm-46.2-90.7c-.2,2.1-2.2,4.4-3.3,3.3C873.3,252.3,874.4,252.5,875.5,251.8ZM929.9,337c-2.4,2.9-4.4,4.1-5.5,8.6l-1.1-2.1C924.9,342.3,926.8,335.2,929.9,337ZM894.7,234.2c.5-1,1-1.5,1.4-1.6,1.4,2.4-.9,4.9,1.1,7.3-1,.5-2,3-3,.7C896,240.5,896.5,236.9,894.7,234.2ZM950,337.4c.8,1.4-.1,2.8,0,4.2-.6-.8-1.3.6-1.9-1.5S949.4,339.4,950,337.4ZM939,295c.8.6,1.3-3.2,1.7-4.3,1.1,1,.2,2.1.5,3.2s.6-.2.8.5-2.5.2-1.9,3.7C939.4,298.2,939,296.4,939,295Zm-11-49.8c-.7-1.5-1.3,1.7-1.9-.4S928.4,243.2,928,245.2Zm7.7-.2c-1.4,1.7-2.8,3.3-4.2,1.7C932.9,246.5,934.3,243.3,935.7,245Zm5.5.9c-.8,1-1.5,2.2-2.2,0S940.4,244.6,941.2,245.9Zm-.5-10.6c.7,1.7,1,1.7,1.1,0,1.2,1.7-1.2,4-1.7,2.2A6.6,6.6,0,0,0,940.7,235.3Zm49,17.2c0,1.9-1.4,3.3-2.2,3.2S988.9,251,989.7,252.5Z" fill="#0a6cff" fill-rule="evenodd"/><path d="M344.8,333.5c-.3,1.1.7.4.3,1.6,2.8-5.4,6-1.9,8.9-4.7-2.6-1.6-5.2-.9-7.7-.2-.3.7.3,1.4.6,2.1S345.5,333.9,344.8,333.5Z" fill="#0a6cff" fill-rule="evenodd"/><path d="M172.5,545.4c.9,1.2,1.7-1.3,2.6-1.4C174.2,543.9,173.2,543.1,172.5,545.4Z" fill="#0a6cff" fill-rule="evenodd"/><path d="M220.4,526.6c-.7,1-.4,1.8-.7,2.7s.9-.9,1.3-1.7a3.7,3.7,0,0,0,.7,2C222.2,527.5,221.2,527.6,220.4,526.6Z" fill="#0a6cff" fill-rule="evenodd"/><path d="M174.2,455.1c-1.1.8,1.8.1,1.9,2.9a15.3,15.3,0,0,0,0-3.7C174.8,452.9,175.5,456.5,174.2,455.1Z" fill="#0a6cff" fill-rule="evenodd"/><path d="M194.3,484.1a2.9,2.9,0,0,0,.2,3.2c-.1-1.4.5-2,1.3-1.8C196.2,484.1,194.7,484.9,194.3,484.1Z" fill="#0a6cff" fill-rule="evenodd"/><path d="M190.2,472c-.2-.8.2-1.8-.4-2.6a6.1,6.1,0,0,0-.9,3.3c.6.9,1-1.5,1.6-.2C190.7,471.8,190.3,471.7,190.2,472Z" fill="#0a6cff" fill-rule="evenodd"/><path d="M234.4,540.7c1.1,2.3.6-1.4.9-2.2s.2,1.6,1.2,1.9c1.3-3.2,2.8-2.7,4.3-1.5.2-1.1.2-2.1.3-3.2a3.9,3.9,0,0,1-5.6,1.2C235,539.3,234.3,538.9,234.4,540.7Z" fill="#0a6cff" fill-rule="evenodd"/><path d="M186.6,459.8c3.3-1.2,5.6-.7,8.6-4.2-.5-1-1.2-.4-1-1.5s-.6.9-1.8,1.8c.1-2.7-4.1,0-3.1-2.2C188.4,451.8,187,457.2,186.6,459.8Z" fill="#0a6cff" fill-rule="evenodd"/><path d="M249.8,556.2c.9,2,4,1.3,5.7-.1C253.6,556.3,251.7,556,249.8,556.2Z" fill="#0a6cff" fill-rule="evenodd"/><path d="M143.7,377.5c.1,1.9-.9,1-1.5,3.3,1.9.8,1.7-1,2.4-1.9S144.1,378.5,143.7,377.5Z" fill="#0a6cff" fill-rule="evenodd"/><path d="M193.7,458.9c1-.7,2.1.5,2.9-2C195.5,454.7,194.7,458.3,193.7,458.9Z" fill="#0a6cff" fill-rule="evenodd"/><path d="M244.5,528.9c-.7,1,.3,1.8-.1,2.7s1.3-.5,1.9-.8S245.1,531.7,244.5,528.9Z" fill="#0a6cff" fill-rule="evenodd"/><path d="M173.9,401.4c.2-.6-.2-1-.4-1.5s1.1-.4,1.5-2.3-2.3-1.5-3.2,1.4C172.9,400,173.2,398.6,173.9,401.4Z" fill="#0a6cff" fill-rule="evenodd"/><path d="M206.6,427.7c1.3-1.6,1.3,1,2.8.7a27.8,27.8,0,0,1,.8-4.3C209.1,425.7,206.8,425.7,206.6,427.7Z" fill="#0a6cff" fill-rule="evenodd"/><path d="M275.6,533.1c-.6-1.8,1.4-1.1.9-3.3s-1.2,1.8-1.9-.3c.4,2.2-1,3.4.4,6.3.6-1.1,1.3-1.9,2.1-1.3C277.5,533.1,276,533.8,275.6,533.1Z" fill="#0a6cff" fill-rule="evenodd"/><path d="M280.6,534.6c1.4,1.6,2.4-2.5,3.8.6.8-2.1-.8-1.3-.4-2.6C282.9,533.4,281.7,533.2,280.6,534.6Z" fill="#0a6cff" fill-rule="evenodd"/><path d="M286.1,531.3c-.5-.8-.3-1.7-.9-2.5-1.5,1.6-3,1.3-4.7,0,.6,4.4,3,.6,4.4,4.3.7-2.9,1.7-1.2,2.7.7,1.6-1,1.5-2.2,2.8-4-.6-.5-1.1-.4-1.7-.9-.7,1,.2,1.8-.1,2.7s-.5,0-.8.6c-.4-1,.5-2.2-.7-3.1S286.1,529.9,286.1,531.3Z" fill="#0a6cff" fill-rule="evenodd"/><path d="M197.3,340.9c-.2.7.2.8.4.5s.9,1.3.6,2,.9-1,1.3-1.7S198.1,341.3,197.3,340.9Z" fill="#0a6cff" fill-rule="evenodd"/><path d="M225,351.7c-.4,1.4,3.8,3.5,5,.4-.4-.4-2.1,1.7-1.7-.8C227.1,350.2,226.2,354.2,225,351.7Z" fill="#0a6cff" fill-rule="evenodd"/><path d="M239.5,357.8c1.2.8,2,4.6,3.4,1.7-.6-4.1-3.1-.3-3-4.9C238.7,355.8,240.7,356.6,239.5,357.8Z" fill="#0a6cff" fill-rule="evenodd"/><path d="M298.1,429.4c-.5,2.2,1.1.6,1.4,1.4.5-.9.1-2.3.8-1.7a.9.9,0,0,0-.1-1l-.6-1c.3.7-1.1,4-.7,1.6C298.3,428.2,298.7,430.2,298.1,429.4Z" fill="#0a6cff" fill-rule="evenodd"/><path d="M270.9,358.7c.1,1.9,2.4,1.1,3.4,1.7-.1,3.2,2.2,5.1,3.1,6a64.2,64.2,0,0,0-1.9-8.7c.1,5.3-1.8-.6-3.6-.2C271.9,358.9,271.6,359.4,270.9,358.7Z" fill="#0a6cff" fill-rule="evenodd"/><path d="M280.5,367.6c.5,2.1,3.2.9,4.5,1.6.7-2-2-.7-1.3-3C283.3,366.9,281.8,369.1,280.5,367.6Z" fill="#0a6cff" fill-rule="evenodd"/><path d="M277.3,359.6c-1.1,1.4.2,1.8.6.9a3.5,3.5,0,0,1,.4,2.6c.5.5.9-.2,1.4.4s-1.1-4.3.7-1.7c.3-.9-.5-1.7-.9-2.5C278.8,360.7,278.1,360.7,277.3,359.6Z" fill="#0a6cff" fill-rule="evenodd"/><path d="M291.4,360.6c-.4-.5-.9.2-1.4-.4-.9,1.4.4,2.4-.6,3.8C290.3,363.7,290.2,362.4,291.4,360.6Z" fill="#0a6cff" fill-rule="evenodd"/><path d="M302.3,336.2c0,1.9-.4.6-1,2.2,1.1,1.1-.5,2.5,1,3.5l.8-1.6c-.6-1.3-1.2-2.8.4-2.2C304,336.6,302.6,338,302.3,336.2Z" fill="#0a6cff" fill-rule="evenodd"/><path d="M324.6,370.5c-.8-.6-.1,1.4.3.5a6,6,0,0,1-.4,3.2c.9.5,1.9-3.3.9-4.3C325.2,370.6,324.9,370.7,324.6,370.5Z" fill="#0a6cff" fill-rule="evenodd"/><path d="M359.7,432c.4.5.4-.2.2-.5s1.8,2.5,2.5-.8c-1.1-2.5-1.9-.5-2.8-.8S360,431.3,359.7,432Z" fill="#0a6cff" fill-rule="evenodd"/><path d="M331.5,329.2c-1.2-2.1-2.3-1.9-3.3-.7,1.4,2.8,2.7,1.7,4.1,3.7.3-3.7,2.3-1.9,3.7-3.5C335.7,328.9,331.7,326.2,331.5,329.2Z" fill="#0a6cff" fill-rule="evenodd"/><path d="M335.3,332.4c1.5.3,2.8-2.5,4.4-.4,0-6,4.4.8,6.3-2.3-.1-.8-.7-1.7-.4-2.6-1.2.6-2.3,3.4-3.6-.1-1.7,2.2-3.5.9-5.3,1.1-.2.9.6,1.7,1,2.5S336,329.9,335.3,332.4Z" fill="#0a6cff" fill-rule="evenodd"/><path d="M331.7,320.7c.7,5.5,6.9,4.4,8.1,1.8C337.2,322.4,333.6,325.3,331.7,320.7Z" fill="#0a6cff" fill-rule="evenodd"/><path d="M352.6,324.3a10.9,10.9,0,0,0,3.4.7C355.9,322.8,353.5,323.6,352.6,324.3Z" fill="#0a6cff" fill-rule="evenodd"/><path d="M367.6,324.8c1.8,1.9,6,1.5,8.6.6-1.3-2.8-2.3.7-2.9-2.8,0,3.8-2.3-.4-3.2,2.4-1.1-1.3.6-3.8-1-3.5C369.7,324.2,369,324.9,367.6,324.8Z" fill="#0a6cff" fill-rule="evenodd"/><path d="M366.8,319.6c.1,2.9,2.4.2,3.3.7.5-2.1-1-.5-1.5-2.5C367.8,320.1,368.1,320.6,366.8,319.6Z" fill="#0a6cff" fill-rule="evenodd"/><path d="M376.8,325.4a5.9,5.9,0,0,0,5.8.9C381.4,319.9,378.5,324.1,376.8,325.4Z" fill="#0a6cff" fill-rule="evenodd"/><path d="M406.7,326.6c.8.4,1.6-.4,3-.9l-.9-1.5C408.2,326.8,407.3,324.6,406.7,326.6Z" fill="#0a6cff" fill-rule="evenodd"/><path d="M422,317.1l-1.5,3.3c1.5.7,1.3-3.5,3-1.8C424,317.1,422.4,317.9,422,317.1Z" fill="#0a6cff" fill-rule="evenodd"/><path d="M438.1,317.6c.7,4.9,1.5-2.8,3.1,2.4a6.3,6.3,0,0,1,.5-2.2C440.4,315.6,439.3,317.9,438.1,317.6Z" fill="#0a6cff" fill-rule="evenodd"/><path d="M464.2,313.6c-.8-.5-.1,1.4.3.5.5,1.2-.1,2.5-.2,3.7s1.8-2.4,2.8-.2c.9-5.3,2.5-2.1,4-3s-.8-2,.4-3.2c-1.5,1.6-3.1-.5-4.6,2-.6-.8-.3-1.7-.9-2.6C466.1,312.5,464.9,313.6,464.2,313.6Z" fill="#0a6cff" fill-rule="evenodd"/><path d="M509.1,311.2c1.5,2.2,2.8-3.2,4.4-.4.2-.9-.6-1.7-.9-2.5C511.5,311.6,510.1,307.9,509.1,311.2Z" fill="#0a6cff" fill-rule="evenodd"/><path d="M537.8,305.1c.1,2,3.6,1.8,3.6.2S539.1,306.3,537.8,305.1Z" fill="#0a6cff" fill-rule="evenodd"/><path d="M565.6,313.3a30.1,30.1,0,0,0,.5-4.2c-.8-.6-1.5.1-2.2,1.2s1.1-.1,1.6-.1S563.8,311.5,565.6,313.3Z" fill="#0a6cff" fill-rule="evenodd"/><path d="M671,290.4c-.1,2.9,2.1.6,2.8,1.9a.8.8,0,0,0,0-1l-.6-1C672.5,291.9,671.8,290.2,671,290.4Z" fill="#0a6cff" fill-rule="evenodd"/><path d="M771.5,469c1.6.3,3.1-.6,4.6.3.6-3.2,2.7-1.8,4.1-1.8a8.8,8.8,0,0,1,.2-1.6c-.3-.3-.1-.7,0-1.1C777.5,467.3,774.5,466.3,771.5,469Z" fill="#0a6cff" fill-rule="evenodd"/><path d="M830.7,250c1.4-1.5-.4-2.8,1-4.3-.2-.3-.5.1-.8-.5l-.5,1.1C831.8,247.5,829.2,248.8,830.7,250Z" fill="#0a6cff" fill-rule="evenodd"/><path d="M843.1,252.1c1.5,2.9-.3-4.1,1.3-2.7.5-1.9-1.2-1.8-1.6.1A2.3,2.3,0,0,1,843.1,252.1Z" fill="#0a6cff" fill-rule="evenodd"/><path d="M476.2,435.3a3.7,3.7,0,0,1-.4,1.5c-3,5.3-7.7,8.5-14.1,9.7s-12.3,0-17.2-3.7-7.7-8.7-9-15.3a24.9,24.9,0,0,1,2.8-17.3,19.7,19.7,0,0,1,14.2-9.8q10.2-1.9,17.1,3.3a1.9,1.9,0,0,1,.9,1.1c.1.4-.4,2-1.4,4.8a33.3,33.3,0,0,1-1.9,4.8l-.6.4-1.8-1a13.9,13.9,0,0,0-3.8-1.7,12.4,12.4,0,0,0-5.4-.3,9.1,9.1,0,0,0-6.7,4.8,13.9,13.9,0,0,0,2.9,15.9,8.9,8.9,0,0,0,8.1,2.2,11.4,11.4,0,0,0,4.9-2.2,12.7,12.7,0,0,0,2.9-2.8,9.8,9.8,0,0,1,1.3-1.4.7.7,0,0,1,.7.2,40.1,40.1,0,0,1,3.5,3.4Z" fill="#fff"/><path d="M508,420.8c.9,4.7.2,8.9-2.2,12.4a15.8,15.8,0,0,1-10.7,6.6,15.5,15.5,0,0,1-12.2-2.3,15.4,15.4,0,0,1-6.5-10.5,17.3,17.3,0,0,1,2-12.6c2.3-3.6,5.9-5.8,10.8-6.7A15.3,15.3,0,0,1,508,420.8Zm-10.3,1.9a6.7,6.7,0,0,0-2.3-4.1,5,5,0,0,0-4.4-1.2,5.1,5.1,0,0,0-3.7,2.7,6.7,6.7,0,0,0-.7,4.6,6.7,6.7,0,0,0,2.3,4.1,5.2,5.2,0,0,0,4.5,1.2,5.3,5.3,0,0,0,3.7-2.7A7.2,7.2,0,0,0,497.7,422.7Z" fill="#fff"/><path d="M564.8,425a1.1,1.1,0,0,1-.8,1.4,32.3,32.3,0,0,1-4.6,1,34.3,34.3,0,0,1-4.8.7c-.7,0-1.1-.4-1.2-1.3a41,41,0,0,1-.7-4.4c-.3-1.9-.6-3.4-.8-4.3-.6-3.7-1.2-6.3-1.5-7.8s-2-3.5-4.3-3.1a4.6,4.6,0,0,0-2.7,1.8,4.2,4.2,0,0,0-1.1,3c.1.9.5,3.5,1.3,7.8l.9,4.5c.5,1.9.8,3.4,1,4.5a.9.9,0,0,1-.8,1.2l-9.5,1.7c-.6.1-.9-.2-1.1-1.1s-.4-2.5-.7-4.5-.6-3.4-.8-4.4a26.4,26.4,0,0,0-.7-3.5c-.3-1.6-.5-2.8-.7-3.6-.6-3-2-4.3-4.3-3.8a4.9,4.9,0,0,0-2.7,1.6,3.3,3.3,0,0,0-1.4,2.8c.4,1.9.9,4.7,1.7,8.5s1.2,6.6,1.6,8.5a1.6,1.6,0,0,1,0,1c-.1.2-.4.3-1,.5l-4.4.9-4.5.7h-1a2.2,2.2,0,0,1-.3-.9c-.3-1.7-.8-4.2-1.4-7.6s-1-5.8-1.3-7.5c-.7-3.4-1.6-7.2-2.9-11.4a3.9,3.9,0,0,1-.2-.6.6.6,0,0,1,.3-.8,11.3,11.3,0,0,1,2.5-1l2.8-.8,2.3-1.1a9.2,9.2,0,0,1,2.4-.9c.4-.1.8.6,1.1,2.1a6.4,6.4,0,0,0,.6,2.1l.7-.6a26.1,26.1,0,0,1,3.9-3.8,11.2,11.2,0,0,1,5-2.1,9.8,9.8,0,0,1,5.4.3,7,7,0,0,1,4.1,3.4,12.8,12.8,0,0,1,3.9-4.6,11.3,11.3,0,0,1,5.4-2.6,11.1,11.1,0,0,1,7.1.7,7.2,7.2,0,0,1,4.1,5.6c.2,1.1.5,2.8.8,5s.6,4,.9,5.1.6,3.3,1.2,5.9S564.5,423.7,564.8,425Z" fill="#fff"/><path d="M576.4,385c.7,3.6-1.1,5.9-5.2,6.6a7.1,7.1,0,0,1-4.6-.6,4.9,4.9,0,0,1-2.6-3.7,5.1,5.1,0,0,1,1.2-4.4,6.4,6.4,0,0,1,4-2.2,6.3,6.3,0,0,1,4.5.7A5,5,0,0,1,576.4,385Zm3.5,23.5c.3,1.5.7,3.8,1.4,6.8l1.3,6.8a.8.8,0,0,1-.6,1,43.3,43.3,0,0,1-4.8,1,29.9,29.9,0,0,1-4.9.7c-.5,0-.8,0-.9-.2s-.1-.4-.2-.9-.7-3.7-1.2-6.6-.8-5.1-1.1-6.6a118.4,118.4,0,0,0-3.3-14l-.2-.7c-.1-.4.2-.7.7-.8l2.8-.3,2.7-.3,2.7-.7,2.7-.6c.5-.1.8,0,.9.5a2.1,2.1,0,0,0,.1.6A132.1,132.1,0,0,0,579.9,408.5Z" fill="#fff"/><path d="M619.7,415.1a.9.9,0,0,1-.7,1.2l-4.5.9a43.7,43.7,0,0,1-5,.8,1.4,1.4,0,0,1-1.2-1.2c-.1-.9-.4-2.4-.7-4.4s-.5-3.6-.7-4.6-.4-1.9-.7-3.4a30,30,0,0,1-.7-3.5c-.6-2.9-2.1-4.1-4.6-3.6a5.7,5.7,0,0,0-2.6,1.6,3.3,3.3,0,0,0-1.4,2.7l3.2,17a1.1,1.1,0,0,1-.8,1.3l-4.5,1a44.5,44.5,0,0,1-4.8.7,1,1,0,0,1-1.1-.9c-.3-1.6-.8-4.1-1.4-7.4s-1-5.8-1.3-7.4a54.6,54.6,0,0,0-3.5-12.1c-.1-.2-.2-.3-.2-.4a.8.8,0,0,1,.4-.8l5.1-1.7a47.8,47.8,0,0,1,5.5-2c.2-.1.5.6.9,2s.7,2.1.9,2a21.7,21.7,0,0,1,3-2.8,14.6,14.6,0,0,1,6.1-3.4,11.5,11.5,0,0,1,7,.7,6.9,6.9,0,0,1,4.1,5.5l1.9,10c.3,1.4.6,3.4,1.2,6.1S619.5,413.8,619.7,415.1Z" fill="#fff"/><path d="M655,401.1c1.1,5.9.6,10.5-1.4,13.5s-6.2,5.3-12.3,6.4a35.5,35.5,0,0,1-7.3.5c-4,0-6.1-.5-6.3-1.4a59.4,59.4,0,0,1,.2-6.4c.1-.7.2-1,.5-1h.4a19.5,19.5,0,0,0,9.4.7,9.2,9.2,0,0,0,4.3-1.9q2.4-2,2.1-3.9l-.4-2.1a11.7,11.7,0,0,1-7.7,4.5,12.7,12.7,0,0,1-10.5-2.4,14.8,14.8,0,0,1-5.5-9.4,14.7,14.7,0,0,1,1.6-10.6,12.5,12.5,0,0,1,8.9-5.9,8.7,8.7,0,0,1,7.9,2,2.1,2.1,0,0,0,.8.6c.2,0,.2-.4.1-1.2s-.3-2.5.1-2.6l5.5-.5,5.3-.4a.7.7,0,0,1,.6.7c.3,1.5.7,3.7,1.1,6.5s.8,5.1,1.1,6.5.4,2.2.7,3.9S654.8,400.2,655,401.1Zm-12.5-6.7a6.1,6.1,0,0,0-2.3-3.7,5,5,0,0,0-4.1-1,4.9,4.9,0,0,0-3.5,2.4,6,6,0,0,0-.8,4.3,5.7,5.7,0,0,0,6.4,4.7,5.1,5.1,0,0,0,3.5-2.4A6.6,6.6,0,0,0,642.5,394.4Z" fill="#fff"/><path d="M697,386.8a13.8,13.8,0,0,1-3.4,11.9,22.9,22.9,0,0,1-10.5,7.3h-.4c-.5.1-1.8-1.2-4-3.8s-3.4-4.3-3.5-5a.5.5,0,0,1,.4-.5,34.6,34.6,0,0,0,5.7-2.9q3-2.2,2.4-5.4a7.9,7.9,0,0,0-3-4.2l-4.9-4a12.8,12.8,0,0,1-3.5-6.8c-.7-3.9.4-7.4,3.5-10.6a24.4,24.4,0,0,1,9.9-6l.5-.2a1,1,0,0,1,.9.6c.9,1.5,2.7,4,5.4,7.6v.3c.1.4,0,.6-.4.7h-1.8a7.9,7.9,0,0,0-3.8,1.8,3.7,3.7,0,0,0-1.4,3.7c.2,1.3,1.3,2.7,3.1,4.3l5.2,4.5A12.7,12.7,0,0,1,697,386.8Z" fill="#fff"/><path d="M732.1,379.2c.8,4.8.1,9-2.3,12.5s-5.9,5.7-10.7,6.6a16,16,0,0,1-12.2-2.3,15.4,15.4,0,0,1-6.5-10.5c-.9-4.9-.2-9.1,2-12.6s5.9-5.8,10.8-6.7a15.7,15.7,0,0,1,12.3,2.3A16,16,0,0,1,732.1,379.2Zm-10.4,1.9a7.3,7.3,0,0,0-2.3-4.1,5.3,5.3,0,0,0-4.4-1.1,5.1,5.1,0,0,0-3.7,2.7,6.6,6.6,0,0,0-.7,4.6,6.7,6.7,0,0,0,2.3,4.1,5.2,5.2,0,0,0,4.5,1.2,5.3,5.3,0,0,0,3.7-2.7A6.8,6.8,0,0,0,721.7,381.1Z" fill="#fff"/><path d="M766.1,372.9a16.6,16.6,0,0,1-2.2,12.5,17.3,17.3,0,0,1-22.9,4.3,15.8,15.8,0,0,1-6.6-10.5q-1.4-7.3,2.1-12.6c2.3-3.6,5.9-5.8,10.7-6.7a15.9,15.9,0,0,1,12.4,2.3A16.3,16.3,0,0,1,766.1,372.9Zm-10.3,1.9a7,7,0,0,0-2.4-4.1,5.1,5.1,0,0,0-4.3-1.1,4.9,4.9,0,0,0-3.7,2.7,6.6,6.6,0,0,0-.7,4.6A6.7,6.7,0,0,0,747,381a5.1,5.1,0,0,0,4.4,1.2,4.9,4.9,0,0,0,3.7-2.7A6.9,6.9,0,0,0,755.8,374.8Z" fill="#fff"/><path d="M803.9,381a1,1,0,0,1-.7,1.1l-4.6,1a34.8,34.8,0,0,1-4.9.7,1.1,1.1,0,0,1-1.2-1.1c-.2-1-.5-2.5-.8-4.5s-.5-3.5-.7-4.5-.4-1.9-.7-3.5-.6-2.6-.7-3.4c-.5-2.9-2.1-4.1-4.6-3.6a5,5,0,0,0-2.6,1.6c-1,1-1.5,1.9-1.3,2.6l3.1,17a1.1,1.1,0,0,1-.8,1.4l-4.4.9a30.7,30.7,0,0,1-4.8.7c-.7,0-1.1-.2-1.2-.8s-.8-4.1-1.3-7.4-1.1-5.8-1.4-7.4c-1-5.3-2.1-9.3-3.5-12.1a1.1,1.1,0,0,1-.1-.5.7.7,0,0,1,.3-.8c1.3-.3,3-.9,5.2-1.6a37.7,37.7,0,0,1,5.4-2c.2-.1.5.6.9,2s.7,2,1,2,.7-.9,2.9-2.8a13.3,13.3,0,0,1,6.2-3.4,11.6,11.6,0,0,1,7,.6,7.5,7.5,0,0,1,4.1,5.5l1.8,10.1c.3,1.3.7,3.4,1.2,6.1S803.6,379.6,803.9,381Z" fill="#fff"/></svg>