<svg xmlns="http://www.w3.org/2000/svg" xmlns:xlink="http://www.w3.org/1999/xlink" width="824.14" height="228.29" viewBox="0 0 824.14 228.29"><defs><linearGradient id="a" x1="25.58" y1="103.67" x2="183.61" y2="103.67" gradientUnits="userSpaceOnUse"><stop offset="0" stop-color="#0af5ff"/><stop offset="1" stop-color="#0a6cff"/></linearGradient><linearGradient id="b" x1="47.7" y1="124.62" x2="205.73" y2="124.62" xlink:href="#a"/><linearGradient id="c" x1="25.58" y1="114.14" x2="183.61" y2="114.14" xlink:href="#a"/><linearGradient id="d" x1="48.8" y1="114.14" x2="182.51" y2="114.14" xlink:href="#a"/></defs><rect width="824.14" height="228.29" fill="none"/><path d="M94.16,65h88.35l.22-.64A15.26,15.26,0,0,0,168.33,44H72a15.26,15.26,0,0,0-14.4,10.21L26.45,143a15.27,15.27,0,0,0,14.41,20.32H48.8l31-88.17A15.26,15.26,0,0,1,94.16,65Z" fill="url(#a)"/><path d="M190.45,65h-7.94l-31,88.16a15.25,15.25,0,0,1-14.4,10.21H48.8l-.23.63A15.27,15.27,0,0,0,63,184.29h96.28a15.26,15.26,0,0,0,14.4-10.21l31.19-88.8A15.26,15.26,0,0,0,190.45,65Z" fill="url(#b)"/><path d="M151.54,153.12l31-88.16H94.16a15.26,15.26,0,0,0-14.4,10.2l-31,88.17h88.34A15.25,15.25,0,0,0,151.54,153.12Z" fill="url(#c)"/><path d="M151.54,153.12l31-88.16H94.16a15.26,15.26,0,0,0-14.4,10.2l-31,88.17h88.34A15.25,15.25,0,0,0,151.54,153.12Z" fill="url(#d)"/><path d="M84.82,129.4l4.74-36H97a33.49,33.49,0,0,1,6.83.5,8.94,8.94,0,0,1,3.63,1.67,7.92,7.92,0,0,1,2.3,2.82,8.23,8.23,0,0,1,.77,3.61,8.44,8.44,0,0,1-2,5.8,8.74,8.74,0,0,1-5.55,2.8,8.93,8.93,0,0,1,5.39,2.62,7.43,7.43,0,0,1,2,5.29,10.82,10.82,0,0,1-1.18,5.06,10,10,0,0,1-3.42,3.74,11.23,11.23,0,0,1-4.2,1.59,50.71,50.71,0,0,1-8.38.47ZM93,123.46H94.5c3.13,0,5.29-.39,6.5-1.17a4.37,4.37,0,0,0,1.8-4,3.78,3.78,0,0,0-1.49-3.38c-1-.66-2.89-1-5.65-1H94.3ZM96.2,99.31,95,108h.81q4.2,0,5.8-1.08a4.11,4.11,0,0,0,1.6-3.66,3.49,3.49,0,0,0-1.29-3.1c-.86-.59-2.56-.88-5.1-.88Z" fill="#fff"/><path d="M142.8,128.1a20.39,20.39,0,0,1-4.88,1.69,26.14,26.14,0,0,1-5.59.57q-7.91,0-12.73-4.72t-4.83-12.38a21.75,21.75,0,0,1,1.35-7.64A20.66,20.66,0,0,1,120,99.11a18.54,18.54,0,0,1,6.75-4.86,21.47,21.47,0,0,1,8.56-1.68,22.52,22.52,0,0,1,6.15.82,20.32,20.32,0,0,1,5.42,2.45l-1.06,7a22.42,22.42,0,0,0-5.3-2.9,15.28,15.28,0,0,0-5.21-.93,12.11,12.11,0,0,0-9.29,3.88,14,14,0,0,0-3.61,10,10.94,10.94,0,0,0,2.85,7.94,10.18,10.18,0,0,0,7.66,3,19.2,19.2,0,0,0,5.79-.85,16.29,16.29,0,0,0,4.95-2.59Z" fill="#fff"/><path d="M253.85,146V83.13h13.78q13.44,0,18.91,1.35a25.52,25.52,0,0,1,9.6,4.53A26.23,26.23,0,0,1,304.4,99.7a37.2,37.2,0,0,1,2.81,14.89,36.82,36.82,0,0,1-2.81,14.84,26.68,26.68,0,0,1-8.26,10.66,25.65,25.65,0,0,1-9.38,4.53Q281.5,146,270.38,146H253.85Zm10.22-9.23h8.59a44.33,44.33,0,0,0,10.62-.94,15.54,15.54,0,0,0,6.16-3.18,18.85,18.85,0,0,0,5.35-7.57,32.1,32.1,0,0,0,0-21.08,18.88,18.88,0,0,0-5.35-7.58,15.67,15.67,0,0,0-6.37-3.17,51.52,51.52,0,0,0-11.62-1h-7.38Z" fill="#0adbff"/><path d="M358.9,146l-7.13-16.18H326.88L319.58,146H308.84l30.44-65.33L369.68,146Zm-28.25-24.68h17.52L341.73,107c-.37-.91-.76-2-1.16-3.15s-.8-2.51-1.2-4c-.35,1.37-.71,2.65-1.1,3.84s-.78,2.28-1.18,3.28Z" fill="#0adbff"/><path d="M372,133.4l8.16-3.78A11.27,11.27,0,0,0,384.4,136a13.27,13.27,0,0,0,7.9,2.21,10.1,10.1,0,0,0,7.23-2.54,8.87,8.87,0,0,0,2.68-6.78q0-5.54-9.18-9.87c-.86-.43-1.52-.75-2-1q-10.38-5.06-13.84-9.16a15,15,0,0,1-3.46-10A16,16,0,0,1,379,86.48q5.22-4.77,13.67-4.77a23.09,23.09,0,0,1,11.64,2.68,14.17,14.17,0,0,1,6.48,7.71l-8,4.12a13.44,13.44,0,0,0-4.14-4.34,9.79,9.79,0,0,0-5.17-1.37,9.54,9.54,0,0,0-6.55,2.15,7.28,7.28,0,0,0-2.42,5.75q0,5.67,10.64,10.56l1.29.6q9.31,4.29,12.79,8.39a15.29,15.29,0,0,1,3.48,10.24q0,8.93-5.62,14.19t-15.2,5.26q-8,0-13.16-3.69A17.26,17.26,0,0,1,372,133.4Z" fill="#0adbff"/><path d="M423.85,146V83.13h10.22v23.18H465V83.13h10.21V146H465V115.45H434.07V146Z" fill="#0adbff"/><path d="M489.62,146V83.13h15.84a49.57,49.57,0,0,1,10,.73,13.86,13.86,0,0,1,10,8,18.13,18.13,0,0,1,1.61,7.69,14.5,14.5,0,0,1-2.32,8.39,12,12,0,0,1-6.74,4.7,12.93,12.93,0,0,1,8.65,5,16.79,16.79,0,0,1,3.16,10.46,19.85,19.85,0,0,1-1.34,7.25,16.22,16.22,0,0,1-3.77,5.84,14.07,14.07,0,0,1-6.4,3.69Q514.56,146,505.54,146Zm10-36.31h3.91q7.29,0,10.32-2t3-6.72q0-5.14-2.79-7.23t-10.56-2.08h-3.91Zm0,27.77h3.52a54.4,54.4,0,0,0,8-.43,10.09,10.09,0,0,0,4.21-1.5,8.31,8.31,0,0,0,2.91-3.35,10.35,10.35,0,0,0,1-4.63,10.58,10.58,0,0,0-1.25-5.24,8.71,8.71,0,0,0-3.56-3.48,12.51,12.51,0,0,0-3.33-1.07,28.42,28.42,0,0,0-5-.35h-6.61Z" fill="#0adbff"/><path d="M604.71,114.68a32.35,32.35,0,0,1-2.51,12.66A32,32,0,0,1,594.88,138a34.27,34.27,0,0,1-11,7.17,33.46,33.46,0,0,1-12.79,2.49,34,34,0,0,1-12.94-2.51A33.49,33.49,0,0,1,547.31,138a32,32,0,0,1-7.29-10.6,32.69,32.69,0,0,1,7.29-36.11,33.36,33.36,0,0,1,10.91-7.12,35.13,35.13,0,0,1,25.78,0,33.34,33.34,0,0,1,10.88,7.12A32.87,32.87,0,0,1,602.2,102,32.4,32.4,0,0,1,604.71,114.68Zm-10.65,0a23.87,23.87,0,0,0-1.73-9.06,23.44,23.44,0,0,0-5-7.64A22.15,22.15,0,0,0,580,92.89a22.86,22.86,0,0,0-17.64,0,23.41,23.41,0,0,0-12.43,12.71,24.34,24.34,0,0,0-1.72,9.1,23.88,23.88,0,0,0,1.72,9,23.4,23.4,0,0,0,5,7.6,22.36,22.36,0,0,0,16.27,6.87,22.05,22.05,0,0,0,8.74-1.76,22.87,22.87,0,0,0,7.44-5.11,23.49,23.49,0,0,0,6.74-16.61Z" fill="#0adbff"/><path d="M656.4,146l-7.13-16.18h-24.9L617.07,146H606.34l30.44-65.33L667.17,146Zm-28.25-24.68h17.52L639.23,107c-.38-.91-.76-2-1.16-3.15s-.8-2.51-1.21-4c-.34,1.37-.7,2.65-1.09,3.84S635,106,634.59,107Z" fill="#0adbff"/><path d="M682.67,117.86V146H673.1V83.13h14.25a44.91,44.91,0,0,1,9.72.81,15.28,15.28,0,0,1,5.9,2.71,14.83,14.83,0,0,1,4.51,5.88,19.36,19.36,0,0,1,1.59,7.9c0,5-1.22,9-3.65,11.82s-6,4.56-10.77,5.13L716.28,146H704.74l-20.91-28.11Zm.64-8h1.85q8.12,0,10.77-1.88c1.78-1.26,2.67-3.5,2.67-6.7,0-3.46-1-5.9-2.86-7.32s-5.43-2.13-10.58-2.13h-1.85Z" fill="#0adbff"/><path d="M722.34,146V83.13h13.78q13.43,0,18.91,1.35A25.48,25.48,0,0,1,764.62,89a26.25,26.25,0,0,1,8.27,10.69,37.37,37.37,0,0,1,2.81,14.89,37,37,0,0,1-2.81,14.84,26.7,26.7,0,0,1-8.27,10.66,25.57,25.57,0,0,1-9.38,4.53Q750,146,738.86,146H722.34Zm10.21-9.23h8.59a44.33,44.33,0,0,0,10.62-.94,15.47,15.47,0,0,0,6.16-3.18,18.85,18.85,0,0,0,5.35-7.57,28.66,28.66,0,0,0,1.78-10.54A28.63,28.63,0,0,0,763.27,104a18.88,18.88,0,0,0-5.35-7.58,15.67,15.67,0,0,0-6.37-3.17,51.47,51.47,0,0,0-11.61-1h-7.39Z" fill="#0adbff"/></svg>