<svg xmlns="http://www.w3.org/2000/svg" xmlns:xlink="http://www.w3.org/1999/xlink" width="866" height="548" viewBox="0 0 866 548"><defs><linearGradient id="a" x1="636.3" y1="76.92" x2="743.68" y2="196.17" gradientUnits="userSpaceOnUse"><stop offset="0" stop-color="#0a6cff"/><stop offset="1" stop-color="#0ad6ff"/></linearGradient><linearGradient id="b" x1="720.88" y1="225.46" x2="722.14" y2="153.09" xlink:href="#a"/><linearGradient id="c" x1="675.15" y1="235.51" x2="729.26" y2="124.55" gradientUnits="userSpaceOnUse"><stop offset="0" stop-color="#02a7fe"/><stop offset="1" stop-color="#0261fe"/></linearGradient></defs><rect width="866" height="548" fill="none"/><path d="M84.3,242.7l6.3-7.1a9.6,9.6,0,0,0,3.8,4.6,11.3,11.3,0,0,0,6,1.7,9.2,9.2,0,0,0,6.2-1.9,5.9,5.9,0,0,0,2.4-5c0-2.5-2.6-5-7.7-7.5l-4-2c-4.6-2.4-7.8-4.7-9.6-7a13,13,0,0,1-2.7-8.2,13.5,13.5,0,0,1,5.2-10.8q5.3-4.2,13.5-4.2A19.5,19.5,0,0,1,112,197a15.8,15.8,0,0,1,6.1,5.2l-6.6,6.4a8.1,8.1,0,0,0-3.2-3.4,9,9,0,0,0-4.8-1.2,8.5,8.5,0,0,0-5.4,1.7,5.3,5.3,0,0,0-2,4.4c0,2.8,2.7,5.3,8.1,7.6l2.5,1.1c4.5,2.1,7.8,4.4,10,7a13.4,13.4,0,0,1,3.2,8.8,14.8,14.8,0,0,1-5.1,11.8c-3.4,3-7.9,4.5-13.6,4.5a23.5,23.5,0,0,1-10.4-2.1A13.8,13.8,0,0,1,84.3,242.7Z" fill="#00244f"/><path d="M138.3,214v18.7c0,3.1.6,5.3,1.9,6.7s3.2,2,5.9,2,4.7-.7,5.9-2,1.9-3.6,1.9-6.7V214h10.3v18.7c0,6.2-1.5,10.8-4.4,13.7s-7.4,4.5-13.6,4.5-10.8-1.5-13.7-4.4-4.4-7.6-4.4-13.8V214Z" fill="#00244f"/><path d="M174.1,249.5v-56h9.8v20.2c0,1.1,0,2.2-.1,3.3l-.3,3.2a15.5,15.5,0,0,1,5.5-5.6,12.4,12.4,0,0,1,6.7-1.8c5.1,0,9.1,1.7,11.9,5s4.2,8,4.2,14-1.4,10.4-4.3,13.8a13.8,13.8,0,0,1-11.3,5.3,15.9,15.9,0,0,1-7.2-1.6,14.6,14.6,0,0,1-5-4.9v5.1Zm9.4-17.8a11.4,11.4,0,0,0,2.3,7.5,9.7,9.7,0,0,0,13.2,0q2.4-2.7,2.4-7.5a11.4,11.4,0,0,0-2.4-7.6,8.4,8.4,0,0,0-6.6-2.8,8.2,8.2,0,0,0-6.5,2.8A11.4,11.4,0,0,0,183.5,231.7Z" fill="#00244f"/><path d="M216.2,243.2l7.9-4a5.4,5.4,0,0,0,2.1,3.2,7.5,7.5,0,0,0,4.3,1.2,7.4,7.4,0,0,0,4-.9,2.9,2.9,0,0,0,1.5-2.6c0-1.7-1.7-3.1-5.2-4.3l-2.5-.9c-4.2-1.5-7-3.1-8.6-4.7a7.8,7.8,0,0,1-2.5-5.9,10.1,10.1,0,0,1,4.1-8.4c2.8-2.2,6.3-3.2,10.8-3.2a17,17,0,0,1,8.3,1.9,11.4,11.4,0,0,1,5,5.4l-7.5,3.8a4.6,4.6,0,0,0-2.2-3,6.2,6.2,0,0,0-3.7-1.1,5.8,5.8,0,0,0-3.7,1,2.6,2.6,0,0,0-1.4,2.4c0,1.8,2.3,3.4,7,4.9l1.2.4c3.9,1.3,6.7,2.8,8.3,4.5a9.2,9.2,0,0,1,2.5,6.5,10.1,10.1,0,0,1-4.1,8.4c-2.7,2-6.4,3.1-11,3.1a19.5,19.5,0,0,1-9.4-2.1A10.1,10.1,0,0,1,216.2,243.2Z" fill="#00244f"/><path d="M279.5,248.4a14.3,14.3,0,0,1-4.4,1.9,19.6,19.6,0,0,1-5,.6c-5.6,0-10.2-1.8-13.7-5.4s-5.3-8.1-5.3-13.8,1.8-10.1,5.4-13.6,8.1-5.3,13.7-5.3a19.8,19.8,0,0,1,5.1.6,12.8,12.8,0,0,1,4.2,1.7v10.3a12.2,12.2,0,0,0-3.8-2.6,11.3,11.3,0,0,0-4.5-.9,9,9,0,0,0-6.9,2.7,9.4,9.4,0,0,0-2.6,7c0,3,.8,5.4,2.6,7.1a9.7,9.7,0,0,0,7.2,2.7,10.5,10.5,0,0,0,4.4-.9,10.4,10.4,0,0,0,3.6-2.8Z" fill="#00244f"/><path d="M297.2,223.1a17.3,17.3,0,0,1,4.5-7.7,10.4,10.4,0,0,1,7.2-2.6,16.9,16.9,0,0,1,3.2.4h.7l-1.6,11-2.3-.7-2.5-.2c-3.1,0-5.4.8-6.7,2.4s-2.1,4.3-2.1,8v15.7H287.3V214h10.2Z" fill="#00244f"/><path d="M316.9,199.5a5.8,5.8,0,0,1,1.8-4.3,5.7,5.7,0,0,1,4.2-1.7,5.7,5.7,0,0,1,4.3,1.7,5.8,5.8,0,0,1,1.8,4.3,5.8,5.8,0,0,1-1.8,4.2,5.8,5.8,0,0,1-4.3,1.8,6.2,6.2,0,0,1-6-6Zm.9,50V214h10.3v35.5Z" fill="#00244f"/><path d="M338.5,249.5v-56h9.9v20.2c0,1.1,0,2.2-.1,3.3s-.2,2.1-.4,3.2a17.3,17.3,0,0,1,5.5-5.6,13,13,0,0,1,6.8-1.8c5.1,0,9,1.7,11.9,5s4.2,8,4.2,14-1.4,10.4-4.3,13.8a13.9,13.9,0,0,1-11.3,5.3,15.9,15.9,0,0,1-7.2-1.6,14.6,14.6,0,0,1-5-4.9v5.1Zm9.4-17.8q0,4.8,2.4,7.5a9.7,9.7,0,0,0,13.2,0q2.4-2.7,2.4-7.5a11.4,11.4,0,0,0-2.4-7.6,8.7,8.7,0,0,0-6.7-2.8,8.4,8.4,0,0,0-6.5,2.8A11.4,11.4,0,0,0,347.9,231.7Z" fill="#00244f"/><path d="M418.8,234.3H392.1a9.6,9.6,0,0,0,2.8,5.7,8.5,8.5,0,0,0,5.9,1.9,10.7,10.7,0,0,0,4.9-1.1,8.9,8.9,0,0,0,3.4-3.3l8.3,4.2a19.2,19.2,0,0,1-7,6.9,20.3,20.3,0,0,1-9.8,2.3c-5.7,0-10.3-1.7-13.6-5.2s-5.1-8-5.1-13.8a18.9,18.9,0,0,1,5.3-13.7,18,18,0,0,1,13.5-5.4c5.6,0,10.1,1.7,13.3,5.1s4.9,7.9,4.9,13.7v1C418.9,233,418.8,233.6,418.8,234.3Zm-10.2-6.2a7.3,7.3,0,0,0-2.5-5.1,7.6,7.6,0,0,0-5.4-1.7,8.2,8.2,0,0,0-5.6,1.7,7.4,7.4,0,0,0-2.6,5.1Z" fill="#00244f"/><text transform="translate(81.8 319.2)" font-size="55.69" fill="#00244f" font-family="FuturaBT-Book, Futura Bk BT">to our<tspan x="0" y="66.8">newsletter</tspan></text><path d="M334.8,324.8l2.9-1.4" fill="none" stroke="#0a6cff" stroke-linecap="round" stroke-miterlimit="10" stroke-width="2.19"/><path d="M343.7,320.7c23.1-10,87-34.3,144.8-25.6,0,0,26.5,4.2,47,23.9s11.5,52.8-13.7,59.8l-1.2.3c-26.9,7.1-40.9-30.8-36.3-59.9,8.2-52.6,52-89,123.1-107.8" fill="none" stroke="#0a6cff" stroke-linecap="round" stroke-miterlimit="10" stroke-width="2.19" stroke-dasharray="6.54 6.54"/><path d="M610.6,210.6l3.2-.8" fill="none" stroke="#0a6cff" stroke-linecap="round" stroke-miterlimit="10" stroke-width="2.19"/><polygon points="589.8 118.8 638.4 156.2 790.2 154.3 589.8 118.8" fill="url(#a)"/><polygon points="653.5 185.7 683.8 224.8 790.2 154.3 653.5 185.7" fill="url(#b)"/><polygon points="638.4 156.2 619.1 208.2 653.5 185.7 790.2 154.3 638.4 156.2" fill="url(#c)"/><polygon points="667.4 203.5 619.1 208.2 653.5 185.7 667.4 203.5" fill="#006ad3"/></svg>