<svg xmlns="http://www.w3.org/2000/svg" xmlns:xlink="http://www.w3.org/1999/xlink" width="892" height="548" viewBox="0 0 892 548"><defs><linearGradient id="a" x1="649.3" y1="76.92" x2="756.68" y2="196.17" gradientUnits="userSpaceOnUse"><stop offset="0" stop-color="#0a6cff"/><stop offset="1" stop-color="#0ad6ff"/></linearGradient><linearGradient id="b" x1="733.88" y1="225.46" x2="735.14" y2="153.09" xlink:href="#a"/><linearGradient id="c" x1="688.15" y1="235.51" x2="742.26" y2="124.55" gradientUnits="userSpaceOnUse"><stop offset="0" stop-color="#02a7fe"/><stop offset="1" stop-color="#0261fe"/></linearGradient></defs><rect width="892" height="548" fill="none"/><path d="M97.31,242.74l6.29-7.12a9.67,9.67,0,0,0,3.83,4.61,10.82,10.82,0,0,0,5.93,1.68,9.72,9.72,0,0,0,6.29-1.88A6.18,6.18,0,0,0,122,235q0-3.76-7.7-7.48c-1.66-.8-3-1.45-3.94-2q-6.93-3.61-9.61-7.07A13,13,0,0,1,98,210.25a13.26,13.26,0,0,1,5.18-10.75q5.19-4.2,13.46-4.2A18.89,18.89,0,0,1,125,197a16.93,16.93,0,0,1,6.17,5.25l-6.69,6.4a8.18,8.18,0,0,0-3.16-3.45,9.33,9.33,0,0,0-4.75-1.14,8.3,8.3,0,0,0-5.42,1.68,5.33,5.33,0,0,0-2.06,4.35q0,4.2,8.16,7.66c1.09.46,1.92.82,2.5,1.09q6.72,3.08,9.95,6.94a13.31,13.31,0,0,1,3.24,8.81,15,15,0,0,1-5.08,11.87q-5.08,4.42-13.64,4.43a23.69,23.69,0,0,1-10.41-2.1A14.11,14.11,0,0,1,97.31,242.74Z" fill="#00244f"/><path d="M151.33,214v18.65q0,4.69,1.83,6.72c1.21,1.35,3.2,2,5.94,2s4.7-.68,5.93-2,1.84-3.6,1.84-6.7V214h10.3v18.65q0,9.36-4.37,13.78t-13.55,4.43q-9.36,0-13.75-4.41t-4.39-13.8V214Z" fill="#00244f"/><path d="M187.07,249.46v-56h9.86v20.2c0,1.11,0,2.21-.12,3.31s-.2,2.16-.35,3.19a17.54,17.54,0,0,1,5.5-5.58,13,13,0,0,1,6.79-1.75q7.59,0,11.83,5t4.25,14q0,8.64-4.3,13.86a14,14,0,0,1-11.31,5.22,15.13,15.13,0,0,1-7.17-1.57,13.43,13.43,0,0,1-5-4.94l.07,5.1Zm9.39-17.78q0,4.81,2.37,7.48a9.48,9.48,0,0,0,13.19,0q2.37-2.67,2.37-7.48a11.16,11.16,0,0,0-2.41-7.57,8.32,8.32,0,0,0-6.63-2.76,8.1,8.1,0,0,0-6.48,2.78A11.11,11.11,0,0,0,196.46,231.68Z" fill="#00244f"/><path d="M229.2,243.24l7.91-4.08a5,5,0,0,0,2.13,3.25,7.38,7.38,0,0,0,4.3,1.19,7.31,7.31,0,0,0,4-.92,2.86,2.86,0,0,0,1.44-2.54c0-1.71-1.71-3.15-5.13-4.3-1.06-.36-1.9-.67-2.53-.91q-6.24-2.34-8.65-4.73a8,8,0,0,1-2.4-5.89,10.22,10.22,0,0,1,4.08-8.42q4.08-3.21,10.77-3.21a16.82,16.82,0,0,1,8.25,1.91,11.45,11.45,0,0,1,5.08,5.42l-7.55,3.76a5.45,5.45,0,0,0-2.13-3,6.59,6.59,0,0,0-3.8-1,6.5,6.5,0,0,0-3.68.94,2.85,2.85,0,0,0-1.41,2.46c0,1.76,2.34,3.39,7,4.91l1.26.4q5.82,1.92,8.28,4.46a9,9,0,0,1,2.45,6.49,10,10,0,0,1-4.08,8.38q-4.08,3.11-11,3.11a20,20,0,0,1-9.38-2A10.32,10.32,0,0,1,229.2,243.24Z" fill="#00244f"/><path d="M292.54,248.41a16.69,16.69,0,0,1-4.41,1.86,20.12,20.12,0,0,1-5.06.6q-8.38,0-13.65-5.33t-5.28-13.86q0-8.34,5.31-13.6t13.77-5.26a21.69,21.69,0,0,1,5.06.54,16.29,16.29,0,0,1,4.26,1.7l-.07,10.33a11.63,11.63,0,0,0-3.76-2.56,11.51,11.51,0,0,0-4.52-.9,9.25,9.25,0,0,0-6.93,2.65,10.84,10.84,0,0,0,.05,14.17,9.69,9.69,0,0,0,7.17,2.65,10.37,10.37,0,0,0,4.43-.9,10.56,10.56,0,0,0,3.56-2.82Z" fill="#00244f"/><path d="M310.25,223.12a16.2,16.2,0,0,1,4.46-7.73,10.51,10.51,0,0,1,7.21-2.57,23.07,23.07,0,0,1,3.21.36l.65.11-1.55,11.06a12.71,12.71,0,0,0-2.33-.71,13.14,13.14,0,0,0-2.48-.23q-4.69,0-6.75,2.4c-1.38,1.6-2.06,4.28-2.06,8v15.61h-10.3V214h10.15Z" fill="#00244f"/><path d="M329.94,199.45a6,6,0,0,1,6-6,5.9,5.9,0,0,1,4.28,1.76,5.71,5.71,0,0,1,1.79,4.24,6.08,6.08,0,0,1-6.07,6,5.73,5.73,0,0,1-4.23-1.8A5.87,5.87,0,0,1,329.94,199.45Zm.9,50V214H341.1v35.45Z" fill="#00244f"/><path d="M351.55,249.46v-56h9.86v20.2c0,1.11,0,2.21-.13,3.31s-.2,2.16-.34,3.19a17.62,17.62,0,0,1,5.49-5.58,13.09,13.09,0,0,1,6.8-1.75q7.57,0,11.83,5t4.24,14q0,8.64-4.3,13.86a13.92,13.92,0,0,1-11.31,5.22,15.19,15.19,0,0,1-7.17-1.57,13.57,13.57,0,0,1-5-4.94l.07,5.1Zm9.39-17.78q0,4.81,2.37,7.48a9.48,9.48,0,0,0,13.19,0q2.36-2.67,2.36-7.48a11.16,11.16,0,0,0-2.4-7.57,8.32,8.32,0,0,0-6.63-2.76,8.12,8.12,0,0,0-6.49,2.78A11.16,11.16,0,0,0,360.94,231.68Z" fill="#00244f"/><path d="M431.76,234.28H405.13a9.27,9.27,0,0,0,2.78,5.73,8.67,8.67,0,0,0,5.89,1.9,10.14,10.14,0,0,0,4.86-1.09,9,9,0,0,0,3.42-3.29l8.31,4.16a19.23,19.23,0,0,1-7,6.92,20.14,20.14,0,0,1-9.79,2.26q-8.61,0-13.63-5.13t-5-13.81a18.83,18.83,0,0,1,5.26-13.73,18,18,0,0,1,13.46-5.38q8.44,0,13.37,5t4.91,13.75c0,.31,0,.66,0,1S431.83,233.56,431.76,234.28Zm-10.19-6.21a7.7,7.7,0,0,0-2.44-5.08,8.17,8.17,0,0,0-5.47-1.72,8.48,8.48,0,0,0-5.55,1.72,8.1,8.1,0,0,0-2.65,5.08Z" fill="#00244f"/><path d="M99.79,297.86H95.22v-3.51h4.57v-10h4.35v10h4.57v3.51h-4.57v21.37H99.79Z" fill="#00244f"/><path d="M111.54,306.86a13.43,13.43,0,0,1,1-5.18,13,13,0,0,1,2.94-4.34,13.29,13.29,0,0,1,4.38-2.9,13.78,13.78,0,0,1,5.22-1,13.36,13.36,0,0,1,5.15,1,14.14,14.14,0,0,1,4.42,2.93,12.94,12.94,0,0,1,2.93,4.31,13.41,13.41,0,0,1,1,5.16,13.14,13.14,0,0,1-1,5.12,12.82,12.82,0,0,1-2.93,4.28,14.09,14.09,0,0,1-4.45,3,13.26,13.26,0,0,1-5.12,1,13.53,13.53,0,0,1-9.6-3.94,13.83,13.83,0,0,1-2.94-4.35A13.16,13.16,0,0,1,111.54,306.86Zm4.51,0a9.23,9.23,0,0,0,2.64,6.67,8.53,8.53,0,0,0,6.39,2.73,8.43,8.43,0,0,0,6.33-2.73,9.84,9.84,0,0,0,0-13.35,8.43,8.43,0,0,0-6.33-2.73,8.56,8.56,0,0,0-6.41,2.73A9.28,9.28,0,0,0,116.05,306.86Z" fill="#00244f"/><path d="M159.64,306.86a13.43,13.43,0,0,1,1-5.18,13,13,0,0,1,2.94-4.34,13.39,13.39,0,0,1,4.38-2.9,13.78,13.78,0,0,1,5.22-1,13.36,13.36,0,0,1,5.15,1,14.14,14.14,0,0,1,4.42,2.93,12.94,12.94,0,0,1,2.93,4.31,13.41,13.41,0,0,1,1,5.16,13.14,13.14,0,0,1-1,5.12,12.82,12.82,0,0,1-2.93,4.28,14.09,14.09,0,0,1-4.45,3,13.26,13.26,0,0,1-5.12,1,13.48,13.48,0,0,1-5.21-1,13.65,13.65,0,0,1-4.39-2.92,13.83,13.83,0,0,1-2.94-4.35A13.16,13.16,0,0,1,159.64,306.86Zm4.51,0a9.23,9.23,0,0,0,2.64,6.67,8.55,8.55,0,0,0,6.39,2.73,8.43,8.43,0,0,0,6.33-2.73,9.84,9.84,0,0,0,0-13.35,8.43,8.43,0,0,0-6.33-2.73,8.56,8.56,0,0,0-6.41,2.73A9.28,9.28,0,0,0,164.15,306.86Z" fill="#00244f"/><path d="M197.32,294.35v12.24c0,3.57.53,6.06,1.59,7.49s2.85,2.13,5.37,2.13,4.3-.7,5.35-2.11,1.56-3.91,1.56-7.51V294.35h4.35v14.52q0,5.63-2.88,8.52t-8.49,2.9q-5.53,0-8.42-2.91t-2.89-8.51V294.35Z" fill="#00244f"/><path d="M223.83,319.23V294.35h3.78v5.17a13.18,13.18,0,0,1,3.65-4.63,7.85,7.85,0,0,1,4.7-1.38,8.75,8.75,0,0,1,1.47.12,8.15,8.15,0,0,1,1.41.37l-1.41,3.83a10.7,10.7,0,0,0-1.39-.37,6.86,6.86,0,0,0-1.25-.12,5.76,5.76,0,0,0-5.06,2.43q-1.68,2.44-1.68,7.33v12.13Z" fill="#00244f"/><path d="M99.14,386.05V361.17h4.16V365a10.28,10.28,0,0,1,3.86-3.56,11.16,11.16,0,0,1,5.22-1.17,9.67,9.67,0,0,1,6.88,2.33,8.52,8.52,0,0,1,2.47,6.5v16.94h-4.35V371.4q0-3.78-1.59-5.62a6.17,6.17,0,0,0-4.91-1.83,8.45,8.45,0,0,0-3.46.69,6.81,6.81,0,0,0-2.6,2,6,6,0,0,0-1.13,2.23,18.74,18.74,0,0,0-.34,4.35v12.86Z" fill="#00244f"/><path d="M152.38,374.25H132.66v.38a9.08,9.08,0,0,0,2.29,6.46,7.73,7.73,0,0,0,6,2.46,8,8,0,0,0,4.52-1.34,11.92,11.92,0,0,0,3.56-4.07l3.23,2.18a12.44,12.44,0,0,1-11.53,6.79,12,12,0,0,1-9.19-3.75,13.81,13.81,0,0,1-3.5-9.84,13.45,13.45,0,0,1,3.48-9.57,11.67,11.67,0,0,1,8.94-3.73,11.22,11.22,0,0,1,8.74,3.54q3.22,3.53,3.23,9.65Zm-4.57-3.45a7.21,7.21,0,0,0-2.19-5.07,7.75,7.75,0,0,0-5.4-1.78,7.28,7.28,0,0,0-7.56,6.85Z" fill="#00244f"/><path d="M174.05,360.28l7.45,17.86,6.69-17H193L181.91,387.6l-8.19-19.09-8.18,19.09-11.1-26.43h4.73l6.64,17,7.56-17.86Z" fill="#00244f"/><path d="M194.68,381.87l3.65-2.45a7.6,7.6,0,0,0,2.61,3,6.84,6.84,0,0,0,3.72,1,5.26,5.26,0,0,0,3.39-1,3.29,3.29,0,0,0,1.29-2.71,2.93,2.93,0,0,0-.88-2.18,8.19,8.19,0,0,0-3-1.6l-.71-.25q-9.09-3.12-9.08-7.83a6.8,6.8,0,0,1,2.44-5.41,9.44,9.44,0,0,1,6.37-2.09,11.2,11.2,0,0,1,5.54,1.29,7.45,7.45,0,0,1,3.32,3.65l-3.45,2.13a5.74,5.74,0,0,0-2.25-2.64,6.3,6.3,0,0,0-3.44-.93,4.4,4.4,0,0,0-3,1.05,3.42,3.42,0,0,0-1.19,2.68q0,2.28,4.95,3.83c.62.2,1.11.36,1.47.46a13.71,13.71,0,0,1,5.64,3,6.16,6.16,0,0,1,1.59,4.42,7.22,7.22,0,0,1-2.51,5.72,9.66,9.66,0,0,1-6.57,2.19,12.35,12.35,0,0,1-5.91-1.3A9.7,9.7,0,0,1,194.68,381.87Z" fill="#00244f"/><path d="M220.22,386.05V343.91h4.35v42.14Z" fill="#00244f"/><path d="M255.7,374.25H236v.38a9.12,9.12,0,0,0,2.28,6.46,7.75,7.75,0,0,0,6,2.46,8,8,0,0,0,4.51-1.34,11.81,11.81,0,0,0,3.56-4.07l3.24,2.18A12.47,12.47,0,0,1,244,387.11a12,12,0,0,1-9.19-3.75,13.82,13.82,0,0,1-3.51-9.84,13.45,13.45,0,0,1,3.48-9.57,11.67,11.67,0,0,1,9-3.73,11.23,11.23,0,0,1,8.74,3.54q3.22,3.53,3.22,9.65Zm-4.57-3.45a7.12,7.12,0,0,0-2.19-5.07,7.72,7.72,0,0,0-5.39-1.78A7.26,7.26,0,0,0,236,370.8Z" fill="#00244f"/><path d="M262.77,364.68H258.2v-3.51h4.57v-10h4.35v10h4.57v3.51h-4.57v21.37h-4.35Z" fill="#00244f"/><path d="M277.18,364.68h-4.57v-3.51h4.57v-10h4.35v10h4.57v3.51h-4.57v21.37h-4.35Z" fill="#00244f"/><path d="M313.16,374.25H293.44v.38a9.08,9.08,0,0,0,2.29,6.46,7.73,7.73,0,0,0,5.95,2.46,8,8,0,0,0,4.51-1.34,11.83,11.83,0,0,0,3.57-4.07l3.23,2.18a12.44,12.44,0,0,1-11.53,6.79,12,12,0,0,1-9.19-3.75,13.81,13.81,0,0,1-3.5-9.84,13.4,13.4,0,0,1,3.48-9.57,11.67,11.67,0,0,1,8.94-3.73,11.22,11.22,0,0,1,8.74,3.54q3.22,3.53,3.23,9.65Zm-4.57-3.45a7.21,7.21,0,0,0-2.19-5.07A7.75,7.75,0,0,0,301,364a7.44,7.44,0,0,0-5.17,1.86,7.52,7.52,0,0,0-2.39,5Z" fill="#00244f"/><path d="M319.63,386.05V361.17h3.78v5.17a13,13,0,0,1,3.64-4.62,7.81,7.81,0,0,1,4.7-1.39,8.75,8.75,0,0,1,1.47.12,9.6,9.6,0,0,1,1.42.37l-1.42,3.83a10.88,10.88,0,0,0-1.38-.36,7.09,7.09,0,0,0-1.26-.13,5.75,5.75,0,0,0-5.05,2.44q-1.69,2.43-1.69,7.33v12.12Z" fill="#00244f"/><path d="M347.77,325.91a1.1,1.1,0,0,1-.49-2.08s1-.51,3-1.41a1.09,1.09,0,1,1,.92,2c-1.9.88-2.92,1.39-2.93,1.39A1.07,1.07,0,0,1,347.77,325.91Z" fill="#0a6cff"/><path d="M529.72,380.91a1.09,1.09,0,0,1-.12-2.18,25.79,25.79,0,0,0,3.76-.7l1.11-.3c.43-.12.86-.25,1.28-.39a1.1,1.1,0,0,1,1.38.71,1.08,1.08,0,0,1-.7,1.37c-.46.15-.91.29-1.38.42l-1.13.3a28.92,28.92,0,0,1-4.08.77Zm-6.5-.22H523a22.82,22.82,0,0,1-6.45-2.25,1.09,1.09,0,1,1,1-1.93,20.71,20.71,0,0,0,5.83,2,1.11,1.11,0,0,1,.88,1.28A1.09,1.09,0,0,1,523.22,380.69Zm18.84-3.84a1.07,1.07,0,0,1-.95-.55,1.1,1.1,0,0,1,.41-1.49,31.36,31.36,0,0,0,5.14-3.66,1.1,1.1,0,0,1,1.44,1.65,32.65,32.65,0,0,1-5.5,3.91A1,1,0,0,1,542.06,376.85Zm-30.3-2.05a1.09,1.09,0,0,1-.73-.29,33.79,33.79,0,0,1-4.5-5,1.09,1.09,0,1,1,1.76-1.3,32.09,32.09,0,0,0,4.21,4.7,1.1,1.1,0,0,1,.07,1.55A1.07,1.07,0,0,1,511.76,374.8Zm40.07-6.5a1,1,0,0,1-.66-.23,1.09,1.09,0,0,1-.21-1.53,34.27,34.27,0,0,0,3.36-5.36,1.09,1.09,0,1,1,1.95,1,36.18,36.18,0,0,1-3.57,5.7A1.1,1.1,0,0,1,551.83,368.3Zm-47.89-3.9a1.1,1.1,0,0,1-1-.58,57.42,57.42,0,0,1-2.76-6.07,1.09,1.09,0,0,1,.63-1.41,1.1,1.1,0,0,1,1.41.62,56,56,0,0,0,2.65,5.84,1.07,1.07,0,0,1-.45,1.47A1,1,0,0,1,503.94,364.4Zm53.77-7.7a1.08,1.08,0,0,1-1.05-1.41,36.12,36.12,0,0,0,1.29-6.2,1.1,1.1,0,1,1,2.18.26,39.73,39.73,0,0,1-1.37,6.57A1.09,1.09,0,0,1,557.71,356.7Zm-58.53-4.46a1.08,1.08,0,0,1-1.05-.8c-.58-2.09-1.08-4.26-1.48-6.46a1.09,1.09,0,0,1,.87-1.28,1.11,1.11,0,0,1,1.28.88c.39,2.14.88,4.25,1.44,6.28a1.1,1.1,0,0,1-.77,1.35A1.36,1.36,0,0,1,499.18,352.24Zm60.07-8.46a1.09,1.09,0,0,1-1.09-1,34.59,34.59,0,0,0-.9-6.27,1.11,1.11,0,0,1,.82-1.32,1.09,1.09,0,0,1,1.31.81,39,39,0,0,1,1,6.66,1.1,1.1,0,0,1-1,1.15Zm-62.44-4.38a1.1,1.1,0,0,1-1.09-1c-.22-2.19-.35-4.42-.38-6.62a1.09,1.09,0,1,1,2.18,0c0,2.13.17,4.3.38,6.44a1.09,1.09,0,0,1-1,1.19Zm59.45-8.27a1.13,1.13,0,0,1-1-.65,33.44,33.44,0,0,0-3.08-5.52,1.1,1.1,0,1,1,1.8-1.25,36.39,36.39,0,0,1,3.29,5.88,1.11,1.11,0,0,1-.56,1.45A1.19,1.19,0,0,1,556.26,331.13Zm-59.67-4.8h-.07a1.09,1.09,0,0,1-1-1.16c.15-2.1.38-4.17.69-6.17l.07-.43a1.09,1.09,0,1,1,2.16.36l-.07.41c-.3,1.94-.53,4-.66,6A1.09,1.09,0,0,1,496.59,326.33Zm-139.89-4.5a1.09,1.09,0,0,1-1-.66,1.1,1.1,0,0,1,.57-1.44c1.78-.77,3.81-1.62,6.05-2.55a1.1,1.1,0,1,1,.83,2c-2.23.91-4.24,1.76-6,2.53A1.11,1.11,0,0,1,356.7,321.83Zm192.17-1.4a1.09,1.09,0,0,1-.76-.32l-.34-.33c-1.41-1.36-2.91-2.7-4.46-4a1.1,1.1,0,0,1,1.4-1.69c1.58,1.31,3.12,2.69,4.58,4.09l.35.34a1.09,1.09,0,0,1,0,1.55A1.07,1.07,0,0,1,548.87,320.43ZM368.8,316.86a1.09,1.09,0,0,1-.39-2.11c1.93-.76,4-1.53,6.13-2.33a1.09,1.09,0,0,1,.76,2.05c-2.14.79-4.18,1.57-6.1,2.32A1.12,1.12,0,0,1,368.8,316.86Zm129.77-3.43a1,1,0,0,1-.24,0,1.1,1.1,0,0,1-.83-1.31c.48-2.15,1-4.3,1.62-6.39a1.1,1.1,0,0,1,2.11.6c-.59,2.05-1.13,4.16-1.6,6.27A1.09,1.09,0,0,1,498.57,313.43Zm-117.49-1.1a1.11,1.11,0,0,1-1-.74,1.09,1.09,0,0,1,.67-1.39q3-1.05,6.22-2.12a1.11,1.11,0,0,1,1.38.7,1.09,1.09,0,0,1-.7,1.38c-2.12.7-4.18,1.41-6.17,2.1A1,1,0,0,1,381.08,312.33Zm157.74-.24a1.12,1.12,0,0,1-.63-.2c-1.74-1.23-3.56-2.42-5.41-3.53a1.1,1.1,0,0,1,1.13-1.88c1.89,1.15,3.76,2.36,5.54,3.62a1.09,1.09,0,0,1,.26,1.52A1.07,1.07,0,0,1,538.82,312.09ZM393.5,308.22a1.09,1.09,0,0,1-.33-2.14q3.07-1,6.28-1.9a1.11,1.11,0,0,1,1.36.75,1.08,1.08,0,0,1-.74,1.35c-2.13.63-4.21,1.25-6.25,1.89A1.25,1.25,0,0,1,393.5,308.22Zm134.13-2.89a1.11,1.11,0,0,1-.5-.12c-1.89-1-3.86-1.91-5.84-2.77a1.1,1.1,0,1,1,.87-2c2,.89,4,1.84,6,2.83a1.09,1.09,0,0,1-.5,2.07Zm-121.58-.78a1.09,1.09,0,0,1-1.05-.8,1.1,1.1,0,0,1,.77-1.35c2.08-.56,4.2-1.12,6.35-1.66a1.09,1.09,0,0,1,.53,2.12q-3.21.81-6.31,1.65A.92.92,0,0,1,406.05,304.55Zm12.69-3.19a1.09,1.09,0,0,1-.24-2.16c2.14-.49,4.3-1,6.41-1.41a1.09,1.09,0,1,1,.44,2.14c-2.09.44-4.23.91-6.36,1.4Zm83.43-.48a1,1,0,0,1-.37-.07,1.09,1.09,0,0,1-.66-1.39c.36-1,.75-2.06,1.14-3.07-.59-.12-.92-.17-.93-.17-1.59-.24-3.23-.46-4.88-.66a1.09,1.09,0,0,1-1-1.21,1.11,1.11,0,0,1,1.22-1c1.67.2,3.33.42,4.95.66,0,0,.51.08,1.44.27.14-.34.28-.68.43-1a1.09,1.09,0,0,1,2,.86c-.84,2-1.64,4-2.36,6A1.09,1.09,0,0,1,502.17,300.88Zm13.47-.77a1.19,1.19,0,0,1-.37-.06c-2-.74-4.11-1.42-6.15-2a1.09,1.09,0,1,1,.61-2.1c2.08.6,4.2,1.29,6.28,2.05a1.09,1.09,0,0,1,.66,1.4A1.1,1.1,0,0,1,515.64,300.11Zm-84.1-1.42a1.09,1.09,0,0,1-.19-2.17c2.17-.4,4.34-.78,6.46-1.13a1.09,1.09,0,0,1,.36,2.16c-2.11.34-4.27.72-6.42,1.12Zm12.92-2.1a1.09,1.09,0,0,1-.15-2.18c2.18-.3,4.38-.57,6.51-.81a1.08,1.08,0,0,1,1.21,1,1.09,1.09,0,0,1-1,1.21c-2.12.24-4.3.51-6.46.81Zm13-1.45a1.1,1.1,0,0,1-.1-2.19c2.18-.18,4.39-.34,6.55-.46a1.11,1.11,0,0,1,1.16,1,1.09,1.09,0,0,1-1,1.15c-2.15.12-4.33.28-6.49.46Zm32.65-.25H490c-2.14-.17-4.32-.3-6.49-.39a1.1,1.1,0,0,1,.09-2.19c2.2.09,4.41.23,6.57.4a1.09,1.09,0,0,1-.08,2.18Zm-19.61-.48a1.1,1.1,0,0,1,0-2.19c1.74,0,3.49-.07,5.23-.07H477a1.09,1.09,0,1,1,0,2.18H475.7c-1.72,0-3.45,0-5.18.07Zm36.82-5.54a1.07,1.07,0,0,1-.49-.12,1.1,1.1,0,0,1-.49-1.47c1-1.94,2.05-3.89,3.16-5.79a1.09,1.09,0,0,1,1.89,1.1c-1.09,1.86-2.13,3.77-3.09,5.68A1.1,1.1,0,0,1,507.31,288.87Zm6.59-11.27a1.09,1.09,0,0,1-.9-1.7c1.21-1.81,2.5-3.62,3.83-5.37a1.09,1.09,0,1,1,1.74,1.32c-1.31,1.72-2.57,3.49-3.76,5.27A1.1,1.1,0,0,1,513.9,277.6Zm7.9-10.4a1.13,1.13,0,0,1-.71-.26,1.09,1.09,0,0,1-.12-1.54c1.4-1.65,2.89-3.3,4.42-4.9A1.09,1.09,0,1,1,527,262c-1.5,1.58-3,3.19-4.34,4.81A1.08,1.08,0,0,1,521.8,267.2Zm9-9.46a1.06,1.06,0,0,1-.79-.34,1.09,1.09,0,0,1,0-1.55c1.57-1.48,3.22-3,4.9-4.41a1.1,1.1,0,0,1,1.42,1.67c-1.65,1.41-3.27,2.87-4.82,4.33A1.08,1.08,0,0,1,530.81,257.74Zm9.92-8.51a1.06,1.06,0,0,1-.86-.42,1.08,1.08,0,0,1,.18-1.53c1.7-1.33,3.48-2.65,5.28-3.94a1.1,1.1,0,0,1,1.53.26,1.09,1.09,0,0,1-.26,1.52c-1.77,1.27-3.52,2.58-5.2,3.88A1.07,1.07,0,0,1,540.73,249.23Zm10.64-7.58a1.1,1.1,0,0,1-.92-.5,1.09,1.09,0,0,1,.32-1.51c1.81-1.19,3.69-2.36,5.58-3.49a1.09,1.09,0,1,1,1.12,1.87c-1.86,1.12-3.72,2.28-5.51,3.45A1.07,1.07,0,0,1,551.37,241.65Zm11.2-6.73a1.11,1.11,0,0,1-1-.57,1.09,1.09,0,0,1,.43-1.48c1.89-1.05,3.84-2.08,5.81-3.08a1.09,1.09,0,1,1,1,1.94c-1.94,1-3.87,2-5.74,3.05A1.13,1.13,0,0,1,562.57,234.92ZM574.22,229a1.1,1.1,0,0,1-.47-2.09c1.94-.91,4-1.82,6-2.71a1.1,1.1,0,0,1,.88,2c-2,.87-4,1.78-5.93,2.68A1.11,1.11,0,0,1,574.22,229Zm12-5.23a1.09,1.09,0,0,1-.41-2.1c2-.81,4.07-1.61,6.12-2.38a1.09,1.09,0,0,1,.77,2c-2,.76-4.08,1.55-6.07,2.36A1.22,1.22,0,0,1,586.2,223.75Zm12.24-4.57a1.1,1.1,0,0,1-1-.74,1.09,1.09,0,0,1,.68-1.39c2-.7,4.13-1.4,6.22-2.07a1.09,1.09,0,1,1,.67,2.08c-2.08.67-4.16,1.36-6.18,2.06A1.13,1.13,0,0,1,598.44,219.18Zm12.45-4a1.11,1.11,0,0,1-1-.79,1.1,1.1,0,0,1,.74-1.36c2.06-.61,4.19-1.21,6.31-1.8a1.09,1.09,0,1,1,.58,2.11c-2.11.58-4.22,1.18-6.26,1.79A1.19,1.19,0,0,1,610.89,215.19Z" fill="#0a6cff"/><path d="M623.58,211.7a1.09,1.09,0,0,1-.26-2.15l3.19-.8a1.1,1.1,0,0,1,.52,2.13l-3.18.79A1.24,1.24,0,0,1,623.58,211.7Z" fill="#0a6cff"/><polygon points="602.77 118.81 651.39 156.17 803.21 154.28 602.77 118.81" fill="url(#a)"/><polygon points="666.48 185.73 696.77 224.81 803.21 154.28 666.48 185.73" fill="url(#b)"/><polygon points="651.39 156.17 632.13 208.19 666.48 185.73 803.21 154.28 651.39 156.17" fill="url(#c)"/><polygon points="680.39 203.5 632.13 208.19 666.48 185.73 680.39 203.5" fill="#006ad3"/></svg>
